Amika-Bold v022.ufo
<glyph name="exclam" format="1">
  <advance width="308"/>
  <unicode hex="0021"/>
  <outline>
    <contour>
      <point x="154" y="-12" type="curve" smooth="yes"/>
      <point x="202" y="-12"/>
      <point x="242" y="23"/>
      <point x="242" y="77" type="curve" smooth="yes"/>
      <point x="242" y="131"/>
      <point x="202" y="166"/>
      <point x="154" y="166" type="curve" smooth="yes"/>
      <point x="106" y="166"/>
      <point x="66" y="131"/>
      <point x="66" y="77" type="curve" smooth="yes"/>
      <point x="66" y="23"/>
      <point x="106" y="-12"/>
    </contour>
    <contour>
      <point x="220" y="254" type="line"/>
      <point x="220" y="754" type="line"/>
      <point x="88" y="754" type="line"/>
      <point x="88" y="254" type="line"/>
    </contour>
  </outline>
</glyph>
<glyph name="quotedbl" format="1">
  <advance width="308"/>
  <unicode hex="0022"/>
  <outline>
    <contour>
      <point x="120" y="464" type="line"/>
      <point x="132" y="696" type="line"/>
      <point x="22" y="696" type="line"/>
      <point x="34" y="464" type="line"/>
    </contour>
    <contour>
      <point x="274" y="464" type="line"/>
      <point x="286" y="696" type="line"/>
      <point x="176" y="696" type="line"/>
      <point x="188" y="464" type="line"/>
    </contour>
  </outline>
</glyph>
<glyph name="numbersign" format="1">
  <advance width="726"/>
  <unicode hex="0023"/>
  <outline>
    <contour>
      <point x="110" y="0" type="line"/>
      <point x="236" y="0" type="line"/>
      <point x="324" y="696" type="line"/>
      <point x="198" y="696" type="line"/>
    </contour>
    <contour>
      <point x="402" y="0" type="line"/>
      <point x="528" y="0" type="line"/>
      <point x="616" y="696" type="line"/>
      <point x="490" y="696" type="line"/>
    </contour>
    <contour>
      <point x="38" y="433" type="line"/>
      <point x="711" y="433" type="line"/>
      <point x="726" y="542" type="line"/>
      <point x="54" y="542" type="line"/>
    </contour>
    <contour>
      <point x="0" y="154" type="line"/>
      <point x="673" y="154" type="line"/>
      <point x="687" y="263" type="line"/>
      <point x="15" y="263" type="line"/>
    </contour>
  </outline>
</glyph>
<glyph name="dollar" format="1">
  <advance width="594"/>
  <unicode hex="0024"/>
  <outline>
    <contour>
      <point x="293" y="-12" type="curve" smooth="yes"/>
      <point x="448" y="-12"/>
      <point x="550" y="68"/>
      <point x="550" y="196" type="curve" smooth="yes"/>
      <point x="550" y="434"/>
      <point x="200" y="387"/>
      <point x="200" y="519" type="curve" smooth="yes"/>
      <point x="200" y="570"/>
      <point x="252" y="594"/>
      <point x="330" y="594" type="curve" smooth="yes"/>
      <point x="396" y="594"/>
      <point x="461" y="577"/>
      <point x="528" y="538" type="curve"/>
      <point x="528" y="663" type="line"/>
      <point x="470" y="692"/>
      <point x="402" y="708"/>
      <point x="328" y="708" type="curve" smooth="yes"/>
      <point x="169" y="708"/>
      <point x="65" y="634"/>
      <point x="65" y="511" type="curve" smooth="yes"/>
      <point x="65" y="286"/>
      <point x="414" y="338"/>
      <point x="414" y="188" type="curve" smooth="yes"/>
      <point x="414" y="131"/>
      <point x="364" y="102"/>
      <point x="283" y="102" type="curve" smooth="yes"/>
      <point x="211" y="102"/>
      <point x="135" y="125"/>
      <point x="44" y="172" type="curve"/>
      <point x="44" y="44" type="line"/>
      <point x="121" y="9"/>
      <point x="213" y="-12"/>
    </contour>
    <contour>
      <point x="272" y="-116" type="line"/>
      <point x="354" y="-116" type="line"/>
      <point x="354" y="812" type="line"/>
      <point x="272" y="812" type="line"/>
    </contour>
  </outline>
</glyph>
<glyph name="ampersand" format="1">
  <advance width="682"/>
  <unicode hex="0026"/>
  <outline>
    <contour>
      <point x="513" y="0" type="line"/>
      <point x="682" y="0" type="line"/>
      <point x="355" y="332" type="line" smooth="yes"/>
      <point x="288" y="400"/>
      <point x="251" y="458"/>
      <point x="251" y="513" type="curve" smooth="yes"/>
      <point x="251" y="566"/>
      <point x="286" y="594"/>
      <point x="346" y="594" type="curve" smooth="yes"/>
      <point x="400" y="594"/>
      <point x="455" y="571"/>
      <point x="502" y="527" type="curve"/>
      <point x="502" y="648" type="line"/>
      <point x="451" y="688"/>
      <point x="403" y="708"/>
      <point x="335" y="708" type="curve" smooth="yes"/>
      <point x="205" y="708"/>
      <point x="116" y="635"/>
      <point x="116" y="517" type="curve" smooth="yes"/>
      <point x="116" y="453"/>
      <point x="142" y="376"/>
      <point x="211" y="306" type="curve" smooth="yes"/>
    </contour>
    <contour>
      <point x="260" y="-12" type="curve" smooth="yes"/>
      <point x="399" y="-12"/>
      <point x="514" y="74"/>
      <point x="616" y="276" type="curve"/>
      <point x="539" y="346" type="line"/>
      <point x="535" y="346" type="line"/>
      <point x="450" y="183"/>
      <point x="365" y="97"/>
      <point x="267" y="97" type="curve" smooth="yes"/>
      <point x="202" y="97"/>
      <point x="160" y="135"/>
      <point x="160" y="202" type="curve" smooth="yes"/>
      <point x="160" y="267"/>
      <point x="199" y="317"/>
      <point x="282" y="356" type="curve"/>
      <point x="231" y="443" type="line"/>
      <point x="88" y="377"/>
      <point x="22" y="293"/>
      <point x="22" y="194" type="curve" smooth="yes"/>
      <point x="22" y="73"/>
      <point x="122" y="-12"/>
    </contour>
  </outline>
</glyph>
<glyph name="quotesingle" format="1">
  <advance width="176"/>
  <unicode hex="0027"/>
  <outline>
    <contour>
      <point x="142" y="464" type="line"/>
      <point x="154" y="696" type="line"/>
      <point x="22" y="696" type="line"/>
      <point x="34" y="464" type="line"/>
    </contour>
  </outline>
</glyph>
<glyph name="parenleft" format="1">
  <advance width="352"/>
  <unicode hex="0028"/>
  <outline>
    <contour>
      <point x="252" y="-126" type="curve"/>
      <point x="316" y="-58" type="line"/>
      <point x="210" y="49"/>
      <point x="183" y="195"/>
      <point x="183" y="343" type="curve" smooth="yes"/>
      <point x="183" y="504"/>
      <point x="215" y="643"/>
      <point x="315" y="754" type="curve"/>
      <point x="252" y="822" type="line"/>
      <point x="108" y="699"/>
      <point x="44" y="536"/>
      <point x="44" y="345" type="curve" smooth="yes"/>
      <point x="44" y="161"/>
      <point x="103" y="-9"/>
    </contour>
  </outline>
</glyph>
<glyph name="parenright" format="1">
  <advance width="352"/>
  <unicode hex="0029"/>
  <outline>
    <contour>
      <point x="36" y="754" type="line"/>
      <point x="142" y="647"/>
      <point x="169" y="501"/>
      <point x="169" y="353" type="curve" smooth="yes"/>
      <point x="169" y="192"/>
      <point x="137" y="53"/>
      <point x="37" y="-58" type="curve"/>
      <point x="100" y="-126" type="line"/>
      <point x="244" y="-3"/>
      <point x="308" y="160"/>
      <point x="308" y="351" type="curve" smooth="yes"/>
      <point x="308" y="535"/>
      <point x="249" y="705"/>
      <point x="100" y="822" type="curve"/>
    </contour>
  </outline>
</glyph>
<glyph name="asterisk" format="1">
  <advance width="374"/>
  <unicode hex="002A"/>
  <outline>
    <contour>
      <point x="189" y="575" type="line"/>
      <point x="256" y="456" type="line"/>
      <point x="325" y="508" type="line"/>
      <point x="227" y="601" type="line"/>
      <point x="228" y="604" type="line"/>
      <point x="352" y="615" type="line"/>
      <point x="330" y="705" type="line"/>
      <point x="213" y="646" type="line"/>
      <point x="210" y="648" type="line"/>
      <point x="235" y="774" type="line"/>
      <point x="141" y="774" type="line"/>
      <point x="164" y="649" type="line"/>
      <point x="161" y="647" type="line"/>
      <point x="45" y="706" type="line"/>
      <point x="22" y="616" type="line"/>
      <point x="147" y="605" type="line"/>
      <point x="148" y="602" type="line"/>
      <point x="49" y="509" type="line"/>
      <point x="118" y="457" type="line"/>
      <point x="185" y="575" type="line"/>
    </contour>
  </outline>
</glyph>
<glyph name="plus" format="1">
  <advance width="594"/>
  <unicode hex="002B"/>
  <outline>
    <contour>
      <point x="66" y="293" type="line"/>
      <point x="528" y="293" type="line"/>
      <point x="528" y="399" type="line"/>
      <point x="66" y="399" type="line"/>
    </contour>
    <contour>
      <point x="355" y="100" type="line"/>
      <point x="355" y="592" type="line"/>
      <point x="239" y="592" type="line"/>
      <point x="239" y="100" type="line"/>
    </contour>
  </outline>
</glyph>
<glyph name="period" format="1">
  <advance width="264"/>
  <unicode hex="002E"/>
  <outline>
    <contour>
      <point x="132" y="-12" type="curve" smooth="yes"/>
      <point x="181" y="-12"/>
      <point x="222" y="23"/>
      <point x="222" y="79" type="curve" smooth="yes"/>
      <point x="222" y="135"/>
      <point x="181" y="170"/>
      <point x="132" y="170" type="curve" smooth="yes"/>
      <point x="83" y="170"/>
      <point x="42" y="135"/>
      <point x="42" y="79" type="curve" smooth="yes"/>
      <point x="42" y="23"/>
      <point x="83" y="-12"/>
    </contour>
  </outline>
</glyph>
<glyph name="slash" format="1">
  <advance width="352"/>
  <unicode hex="002F"/>
  <outline>
    <contour>
      <point x="0" y="-232" type="line"/>
      <point x="123" y="-232" type="line"/>
      <point x="352" y="754" type="line"/>
      <point x="228" y="754" type="line"/>
    </contour>
  </outline>
</glyph>
<glyph name="zero" format="1">
  <advance width="594"/>
  <unicode hex="0030"/>
  <outline>
    <contour>
      <point x="297" y="-12" type="curve" smooth="yes"/>
      <point x="495" y="-12"/>
      <point x="572" y="146"/>
      <point x="572" y="348" type="curve" smooth="yes"/>
      <point x="572" y="550"/>
      <point x="495" y="708"/>
      <point x="297" y="708" type="curve" smooth="yes"/>
      <point x="99" y="708"/>
      <point x="22" y="550"/>
      <point x="22" y="348" type="curve" smooth="yes"/>
      <point x="22" y="146"/>
      <point x="99" y="-12"/>
    </contour>
    <contour>
      <point x="297" y="101" type="curve" smooth="yes"/>
      <point x="194" y="101"/>
      <point x="161" y="214"/>
      <point x="161" y="348" type="curve" smooth="yes"/>
      <point x="161" y="482"/>
      <point x="194" y="595"/>
      <point x="297" y="595" type="curve" smooth="yes"/>
      <point x="400" y="595"/>
      <point x="433" y="482"/>
      <point x="433" y="348" type="curve" smooth="yes"/>
      <point x="433" y="214"/>
      <point x="400" y="101"/>
    </contour>
  </outline>
</glyph>
<glyph name="one" format="1">
  <advance width="594"/>
  <unicode hex="0031"/>
  <outline>
    <contour>
      <point x="396" y="58" type="line"/>
      <point x="396" y="649" type="line"/>
      <point x="264" y="649" type="line"/>
      <point x="264" y="58" type="line"/>
    </contour>
    <contour>
      <point x="550" y="0" type="line"/>
      <point x="550" y="116" type="line"/>
      <point x="44" y="116" type="line"/>
      <point x="44" y="0" type="line"/>
    </contour>
    <contour>
      <point x="396" y="559" type="line"/>
      <point x="396" y="696" type="line"/>
      <point x="286" y="696" type="line"/>
      <point x="66" y="573" type="line"/>
      <point x="66" y="569" type="line"/>
      <point x="86" y="473" type="line"/>
      <point x="90" y="473" type="line"/>
      <point x="286" y="559" type="line"/>
    </contour>
  </outline>
</glyph>
<glyph name="two" format="1">
  <advance width="594"/>
  <unicode hex="0032"/>
  <outline>
    <contour>
      <point x="44" y="100" type="line"/>
      <point x="217" y="100" type="line"/>
      <point x="426" y="306" type="line" smooth="yes"/>
      <point x="501" y="380"/>
      <point x="529" y="449"/>
      <point x="529" y="513" type="curve" smooth="yes"/>
      <point x="529" y="636"/>
      <point x="427" y="708"/>
      <point x="270" y="708" type="curve" smooth="yes"/>
      <point x="196" y="708"/>
      <point x="129" y="692"/>
      <point x="66" y="659" type="curve"/>
      <point x="66" y="538" type="line"/>
      <point x="128" y="575"/>
      <point x="197" y="594"/>
      <point x="264" y="594" type="curve" smooth="yes"/>
      <point x="347" y="594"/>
      <point x="394" y="565"/>
      <point x="394" y="502" type="curve" smooth="yes"/>
      <point x="394" y="458"/>
      <point x="371" y="412"/>
      <point x="289" y="334" type="curve" smooth="yes"/>
    </contour>
    <contour>
      <point x="44" y="0" type="line"/>
      <point x="550" y="0" type="line"/>
      <point x="550" y="117" type="line"/>
      <point x="82" y="117" type="line"/>
      <point x="44" y="100" type="line"/>
    </contour>
  </outline>
</glyph>
<glyph name="three" format="1">
  <advance width="594"/>
  <unicode hex="0033"/>
  <outline>
    <contour>
      <point x="267" y="-12" type="curve" smooth="yes"/>
      <point x="434" y="-12"/>
      <point x="550" y="68"/>
      <point x="550" y="191" type="curve" smooth="yes"/>
      <point x="550" y="310"/>
      <point x="441" y="399"/>
      <point x="283" y="399" type="curve" smooth="yes"/>
      <point x="198" y="399" type="line"/>
      <point x="198" y="308" type="line"/>
      <point x="242" y="308" type="line" smooth="yes"/>
      <point x="349" y="308"/>
      <point x="414" y="262"/>
      <point x="414" y="198" type="curve" smooth="yes"/>
      <point x="414" y="137"/>
      <point x="354" y="102"/>
      <point x="263" y="102" type="curve" smooth="yes"/>
      <point x="192" y="102"/>
      <point x="123" y="123"/>
      <point x="48" y="170" type="curve"/>
      <point x="44" y="170" type="line"/>
      <point x="44" y="45" type="line"/>
      <point x="117" y="6"/>
      <point x="187" y="-12"/>
    </contour>
    <contour>
      <point x="198" y="326" type="line"/>
      <point x="285" y="326" type="line" smooth="yes"/>
      <point x="431" y="326"/>
      <point x="534" y="411"/>
      <point x="534" y="524" type="curve" smooth="yes"/>
      <point x="534" y="638"/>
      <point x="430" y="708"/>
      <point x="273" y="708" type="curve" smooth="yes"/>
      <point x="200" y="708"/>
      <point x="134" y="693"/>
      <point x="65" y="659" type="curve"/>
      <point x="65" y="539" type="line"/>
      <point x="69" y="539" type="line"/>
      <point x="145" y="577"/>
      <point x="205" y="593"/>
      <point x="267" y="593" type="curve" smooth="yes"/>
      <point x="349" y="593"/>
      <point x="400" y="565"/>
      <point x="400" y="512" type="curve" smooth="yes"/>
      <point x="400" y="454"/>
      <point x="341" y="418"/>
      <point x="242" y="418" type="curve" smooth="yes"/>
      <point x="198" y="418" type="line"/>
    </contour>
  </outline>
</glyph>
<glyph name="four" format="1">
  <advance width="594"/>
  <unicode hex="0034"/>
  <outline>
    <contour>
      <point x="473" y="0" type="line"/>
      <point x="473" y="696" type="line"/>
      <point x="341" y="696" type="line"/>
      <point x="341" y="0" type="line"/>
    </contour>
    <contour>
      <point x="572" y="152" type="line"/>
      <point x="572" y="265" type="line"/>
      <point x="117" y="265" type="line"/>
      <point x="22" y="255" type="line"/>
      <point x="22" y="152" type="line"/>
    </contour>
    <contour>
      <point x="22" y="255" type="line"/>
      <point x="154" y="233" type="line"/>
      <point x="441" y="665" type="line"/>
      <point x="341" y="696" type="line"/>
    </contour>
  </outline>
</glyph>
<glyph name="five" format="1">
  <advance width="594"/>
  <unicode hex="0035"/>
  <outline>
    <contour>
      <point x="276" y="-11" type="curve" smooth="yes"/>
      <point x="441" y="-11"/>
      <point x="550" y="77"/>
      <point x="550" y="214" type="curve" smooth="yes"/>
      <point x="550" y="340"/>
      <point x="458" y="437"/>
      <point x="321" y="437" type="curve" smooth="yes"/>
      <point x="220" y="437"/>
      <point x="137" y="385"/>
      <point x="66" y="298" type="curve"/>
      <point x="153" y="271" type="line"/>
      <point x="157" y="271" type="line"/>
      <point x="200" y="306"/>
      <point x="248" y="324"/>
      <point x="294" y="324" type="curve" smooth="yes"/>
      <point x="367" y="324"/>
      <point x="415" y="279"/>
      <point x="415" y="216" type="curve" smooth="yes"/>
      <point x="415" y="148"/>
      <point x="359" y="102"/>
      <point x="273" y="102" type="curve" smooth="yes"/>
      <point x="200" y="102"/>
      <point x="108" y="135"/>
      <point x="48" y="181" type="curve"/>
      <point x="44" y="181" type="line"/>
      <point x="44" y="53" type="line"/>
      <point x="107" y="12"/>
      <point x="192" y="-11"/>
    </contour>
    <contour>
      <point x="66" y="298" type="line"/>
      <point x="190" y="298" type="line"/>
      <point x="234" y="696" type="line"/>
      <point x="111" y="696" type="line"/>
      <point x="66" y="303" type="line"/>
    </contour>
    <contour>
      <point x="111" y="581" type="line"/>
      <point x="517" y="581" type="line"/>
      <point x="517" y="696" type="line"/>
      <point x="111" y="696" type="line"/>
    </contour>
  </outline>
</glyph>
<glyph name="six" format="1">
  <advance width="594"/>
  <unicode hex="0036"/>
  <outline>
    <contour>
      <point x="305" y="-12" type="curve" smooth="yes"/>
      <point x="460" y="-12"/>
      <point x="572" y="80"/>
      <point x="572" y="221" type="curve" smooth="yes"/>
      <point x="572" y="354"/>
      <point x="471" y="447"/>
      <point x="318" y="447" type="curve" smooth="yes"/>
      <point x="241" y="447"/>
      <point x="182" y="424"/>
      <point x="120" y="369" type="curve"/>
      <point x="120" y="264" type="line"/>
      <point x="182" y="309"/>
      <point x="249" y="334"/>
      <point x="306" y="334" type="curve" smooth="yes"/>
      <point x="387" y="334"/>
      <point x="434" y="284"/>
      <point x="434" y="219" type="curve" smooth="yes"/>
      <point x="434" y="148"/>
      <point x="377" y="100"/>
      <point x="303" y="100" type="curve" smooth="yes"/>
      <point x="208" y="100"/>
      <point x="161" y="180"/>
      <point x="161" y="328" type="curve" smooth="yes"/>
      <point x="161" y="499"/>
      <point x="223" y="596"/>
      <point x="344" y="596" type="curve" smooth="yes"/>
      <point x="401" y="596"/>
      <point x="473" y="575"/>
      <point x="535" y="531" type="curve"/>
      <point x="539" y="531" type="line"/>
      <point x="539" y="652" type="line"/>
      <point x="478" y="688"/>
      <point x="407" y="708"/>
      <point x="335" y="708" type="curve" smooth="yes"/>
      <point x="141" y="708"/>
      <point x="22" y="565"/>
      <point x="22" y="330" type="curve" smooth="yes"/>
      <point x="22" y="115"/>
      <point x="123" y="-12"/>
    </contour>
  </outline>
</glyph>
<glyph name="seven" format="1">
  <advance width="594"/>
  <unicode hex="0037"/>
  <outline>
    <contour>
      <point x="495" y="581" type="line"/>
      <point x="572" y="629" type="line"/>
      <point x="572" y="696" type="line"/>
      <point x="66" y="696" type="line"/>
      <point x="66" y="581" type="line"/>
    </contour>
    <contour>
      <point x="143" y="0" type="line"/>
      <point x="266" y="0" type="line"/>
      <point x="572" y="629" type="line"/>
      <point x="454" y="659" type="line"/>
      <point x="121" y="4" type="line"/>
    </contour>
  </outline>
</glyph>
<glyph name="eight" format="1">
  <advance width="594"/>
  <unicode hex="0038"/>
  <outline>
    <contour>
      <point x="298" y="-12" type="curve" smooth="yes"/>
      <point x="458" y="-12"/>
      <point x="572" y="72"/>
      <point x="572" y="193" type="curve" smooth="yes"/>
      <point x="572" y="265"/>
      <point x="531" y="332"/>
      <point x="456" y="358" type="curve"/>
      <point x="521" y="380"/>
      <point x="559" y="449"/>
      <point x="559" y="517" type="curve" smooth="yes"/>
      <point x="559" y="633"/>
      <point x="450" y="708"/>
      <point x="297" y="708" type="curve" smooth="yes"/>
      <point x="145" y="708"/>
      <point x="35" y="633"/>
      <point x="35" y="516" type="curve" smooth="yes"/>
      <point x="35" y="447"/>
      <point x="74" y="379"/>
      <point x="137" y="358" type="curve"/>
      <point x="71" y="335"/>
      <point x="22" y="271"/>
      <point x="22" y="193" type="curve" smooth="yes"/>
      <point x="22" y="73"/>
      <point x="136" y="-12"/>
    </contour>
    <contour>
      <point x="297" y="99" type="curve" smooth="yes"/>
      <point x="208" y="99"/>
      <point x="158" y="136"/>
      <point x="158" y="201" type="curve" smooth="yes"/>
      <point x="158" y="267"/>
      <point x="210" y="303"/>
      <point x="297" y="303" type="curve" smooth="yes"/>
      <point x="386" y="303"/>
      <point x="436" y="266"/>
      <point x="436" y="201" type="curve" smooth="yes"/>
      <point x="436" y="137"/>
      <point x="387" y="99"/>
    </contour>
    <contour>
      <point x="297" y="415" type="curve" smooth="yes"/>
      <point x="215" y="415"/>
      <point x="169" y="448"/>
      <point x="169" y="506" type="curve" smooth="yes"/>
      <point x="169" y="564"/>
      <point x="214" y="598"/>
      <point x="297" y="598" type="curve" smooth="yes"/>
      <point x="380" y="598"/>
      <point x="425" y="564"/>
      <point x="425" y="506" type="curve" smooth="yes"/>
      <point x="425" y="447"/>
      <point x="378" y="415"/>
    </contour>
  </outline>
</glyph>
<glyph name="nine" format="1">
  <advance width="594"/>
  <unicode hex="0039"/>
  <outline>
    <contour>
      <point x="251" y="-12" type="curve" smooth="yes"/>
      <point x="462" y="-12"/>
      <point x="572" y="118"/>
      <point x="572" y="364" type="curve" smooth="yes"/>
      <point x="572" y="590"/>
      <point x="479" y="708"/>
      <point x="292" y="708" type="curve" smooth="yes"/>
      <point x="129" y="708"/>
      <point x="22" y="619"/>
      <point x="22" y="476" type="curve" smooth="yes"/>
      <point x="22" y="342"/>
      <point x="117" y="254"/>
      <point x="273" y="254" type="curve" smooth="yes"/>
      <point x="355" y="254"/>
      <point x="417" y="278"/>
      <point x="474" y="331" type="curve"/>
      <point x="474" y="443" type="line"/>
      <point x="414" y="392"/>
      <point x="351" y="367"/>
      <point x="290" y="367" type="curve" smooth="yes"/>
      <point x="209" y="367"/>
      <point x="160" y="411"/>
      <point x="160" y="480" type="curve" smooth="yes"/>
      <point x="160" y="551"/>
      <point x="212" y="594"/>
      <point x="291" y="594" type="curve" smooth="yes"/>
      <point x="390" y="594"/>
      <point x="433" y="525"/>
      <point x="433" y="363" type="curve" smooth="yes"/>
      <point x="433" y="182"/>
      <point x="379" y="103"/>
      <point x="256" y="103" type="curve" smooth="yes"/>
      <point x="192" y="103"/>
      <point x="119" y="124"/>
      <point x="59" y="165" type="curve"/>
      <point x="55" y="165" type="line"/>
      <point x="55" y="42" type="line"/>
      <point x="119" y="4"/>
      <point x="177" y="-12"/>
    </contour>
  </outline>
</glyph>
<glyph name="colon" format="1">
  <advance width="264"/>
  <unicode hex="003A"/>
  <outline>
    <contour>
      <point x="132" y="-12" type="curve" smooth="yes"/>
      <point x="177" y="-12"/>
      <point x="218" y="23"/>
      <point x="218" y="79" type="curve" smooth="yes"/>
      <point x="218" y="131"/>
      <point x="177" y="166"/>
      <point x="132" y="166" type="curve" smooth="yes"/>
      <point x="87" y="166"/>
      <point x="46" y="131"/>
      <point x="46" y="79" type="curve" smooth="yes"/>
      <point x="46" y="23"/>
      <point x="87" y="-12"/>
    </contour>
    <contour>
      <point x="132" y="308" type="curve" smooth="yes"/>
      <point x="177" y="308"/>
      <point x="218" y="343"/>
      <point x="218" y="399" type="curve" smooth="yes"/>
      <point x="218" y="451"/>
      <point x="177" y="486"/>
      <point x="132" y="486" type="curve" smooth="yes"/>
      <point x="87" y="486"/>
      <point x="46" y="451"/>
      <point x="46" y="399" type="curve" smooth="yes"/>
      <point x="46" y="343"/>
      <point x="87" y="308"/>
    </contour>
  </outline>
</glyph>
<glyph name="semicolon" format="1">
  <advance width="264"/>
  <unicode hex="003B"/>
  <outline>
    <contour>
      <point x="132" y="308" type="curve" smooth="yes"/>
      <point x="177" y="308"/>
      <point x="218" y="343"/>
      <point x="218" y="399" type="curve" smooth="yes"/>
      <point x="218" y="451"/>
      <point x="177" y="486"/>
      <point x="132" y="486" type="curve" smooth="yes"/>
      <point x="87" y="486"/>
      <point x="46" y="451"/>
      <point x="46" y="399" type="curve" smooth="yes"/>
      <point x="46" y="343"/>
      <point x="87" y="308"/>
    </contour>
    <contour>
      <point x="110" y="-175" type="line"/>
      <point x="185" y="-109"/>
      <point x="222" y="-25"/>
      <point x="222" y="57" type="curve" smooth="yes"/>
      <point x="222" y="133"/>
      <point x="191" y="170"/>
      <point x="132" y="170" type="curve" smooth="yes"/>
      <point x="73" y="170"/>
      <point x="42" y="131"/>
      <point x="42" y="79" type="curve" smooth="yes"/>
      <point x="42" y="26"/>
      <point x="74" y="0"/>
      <point x="113" y="0" type="curve" smooth="yes"/>
      <point x="119" y="0"/>
      <point x="126" y="0"/>
      <point x="133" y="2" type="curve"/>
      <point x="118" y="-48"/>
      <point x="95" y="-79"/>
      <point x="46" y="-128" type="curve"/>
      <point x="46" y="-132" type="line"/>
    </contour>
  </outline>
</glyph>
<glyph name="less" format="1">
  <advance width="594"/>
  <unicode hex="003C"/>
  <outline>
    <contour>
      <point x="66" y="298" type="line"/>
      <point x="528" y="106" type="line"/>
      <point x="528" y="217" type="line"/>
      <point x="204" y="346" type="line"/>
      <point x="528" y="475" type="line"/>
      <point x="528" y="586" type="line"/>
      <point x="66" y="394" type="line"/>
    </contour>
  </outline>
</glyph>
<glyph name="equal" format="1">
  <advance width="594"/>
  <unicode hex="003D"/>
  <outline>
    <contour>
      <point x="88" y="396" type="line"/>
      <point x="528" y="396" type="line"/>
      <point x="528" y="492" type="line"/>
      <point x="88" y="492" type="line"/>
    </contour>
    <contour>
      <point x="88" y="188" type="line"/>
      <point x="528" y="188" type="line"/>
      <point x="528" y="284" type="line"/>
      <point x="88" y="284" type="line"/>
    </contour>
  </outline>
</glyph>
<glyph name="greater" format="1">
  <advance width="594"/>
  <unicode hex="003E"/>
  <outline>
    <contour>
      <point x="528" y="394" type="line"/>
      <point x="66" y="586" type="line"/>
      <point x="66" y="475" type="line"/>
      <point x="390" y="346" type="line"/>
      <point x="66" y="217" type="line"/>
      <point x="66" y="106" type="line"/>
      <point x="528" y="298" type="line"/>
    </contour>
  </outline>
</glyph>
<glyph name="question" format="1">
  <advance width="550"/>
  <unicode hex="003F"/>
  <outline>
    <contour>
      <point x="236" y="766" type="curve" smooth="yes"/>
      <point x="162" y="766"/>
      <point x="103" y="750"/>
      <point x="44" y="711" type="curve"/>
      <point x="44" y="593" type="line"/>
      <point x="48" y="593" type="line"/>
      <point x="104" y="630"/>
      <point x="157" y="650"/>
      <point x="228" y="650" type="curve" smooth="yes"/>
      <point x="321" y="650"/>
      <point x="372" y="615"/>
      <point x="372" y="556" type="curve" smooth="yes"/>
      <point x="372" y="485"/>
      <point x="300" y="438"/>
      <point x="154" y="438" type="curve"/>
      <point x="154" y="334" type="line"/>
      <point x="240" y="334" type="line" smooth="yes"/>
      <point x="386" y="334"/>
      <point x="506" y="424"/>
      <point x="506" y="560" type="curve" smooth="yes"/>
      <point x="506" y="690"/>
      <point x="396" y="766"/>
    </contour>
    <contour>
      <point x="286" y="254" type="line"/>
      <point x="286" y="399" type="line"/>
      <point x="154" y="399" type="line"/>
      <point x="154" y="254" type="line"/>
    </contour>
    <contour>
      <point x="219" y="-12" type="curve" smooth="yes"/>
      <point x="267" y="-12"/>
      <point x="307" y="23"/>
      <point x="307" y="77" type="curve" smooth="yes"/>
      <point x="307" y="131"/>
      <point x="267" y="166"/>
      <point x="219" y="166" type="curve" smooth="yes"/>
      <point x="171" y="166"/>
      <point x="131" y="131"/>
      <point x="131" y="77" type="curve" smooth="yes"/>
      <point x="131" y="23"/>
      <point x="171" y="-12"/>
    </contour>
  </outline>
</glyph>
<glyph name="at" format="1">
  <advance width="858"/>
  <unicode hex="0040"/>
  <outline>
    <contour>
      <point x="357" y="58" type="curve" smooth="yes"/>
      <point x="409" y="58"/>
      <point x="464" y="88"/>
      <point x="511" y="144" type="curve"/>
      <point x="520" y="221" type="line"/>
      <point x="479" y="169"/>
      <point x="430" y="143"/>
      <point x="390" y="143" type="curve" smooth="yes"/>
      <point x="353" y="143"/>
      <point x="343" y="165"/>
      <point x="343" y="217" type="curve" smooth="yes"/>
      <point x="343" y="283"/>
      <point x="359" y="366"/>
      <point x="435" y="366" type="curve" smooth="yes"/>
      <point x="459" y="366"/>
      <point x="493" y="358"/>
      <point x="534" y="338" type="curve"/>
      <point x="541" y="409" type="line"/>
      <point x="515" y="428"/>
      <point x="477" y="448"/>
      <point x="427" y="448" type="curve" smooth="yes"/>
      <point x="300" y="448"/>
      <point x="247" y="320"/>
      <point x="247" y="209" type="curve" smooth="yes"/>
      <point x="247" y="116"/>
      <point x="284" y="58"/>
    </contour>
    <contour>
      <point x="422" y="-48" type="curve" smooth="yes"/>
      <point x="251" y="-48"/>
      <point x="136" y="58"/>
      <point x="136" y="235" type="curve" smooth="yes"/>
      <point x="136" y="413"/>
      <point x="252" y="541"/>
      <point x="431" y="541" type="curve" smooth="yes"/>
      <point x="601" y="541"/>
      <point x="722" y="425"/>
      <point x="722" y="268" type="curve" smooth="yes"/>
      <point x="722" y="170"/>
      <point x="675" y="135"/>
      <point x="630" y="135" type="curve" smooth="yes"/>
      <point x="585" y="135"/>
      <point x="566" y="169"/>
      <point x="566" y="210" type="curve" smooth="yes"/>
      <point x="566" y="219"/>
      <point x="567" y="237"/>
      <point x="570" y="254" type="curve" smooth="yes"/>
      <point x="595" y="422" type="line"/>
      <point x="505" y="422" type="line"/>
      <point x="478" y="239" type="line" smooth="yes"/>
      <point x="476" y="226"/>
      <point x="475" y="214"/>
      <point x="475" y="202" type="curve" smooth="yes"/>
      <point x="475" y="98"/>
      <point x="555" y="53"/>
      <point x="629" y="53" type="curve" smooth="yes"/>
      <point x="727" y="53"/>
      <point x="814" y="132"/>
      <point x="814" y="274" type="curve" smooth="yes"/>
      <point x="814" y="458"/>
      <point x="669" y="629"/>
      <point x="432" y="629" type="curve" smooth="yes"/>
      <point x="199" y="629"/>
      <point x="44" y="463"/>
      <point x="44" y="238" type="curve" smooth="yes"/>
      <point x="44" y="16"/>
      <point x="197" y="-135"/>
      <point x="424" y="-135" type="curve" smooth="yes"/>
      <point x="493" y="-135"/>
      <point x="562" y="-121"/>
      <point x="630" y="-82" type="curve"/>
      <point x="630" y="5" type="line"/>
      <point x="626" y="5" type="line"/>
      <point x="559" y="-29"/>
      <point x="494" y="-48"/>
    </contour>
  </outline>
</glyph>
<glyph name="A" format="1">
  <advance width="682"/>
  <unicode hex="0041"/>
  <outline>
    <contour>
      <point x="418" y="696" type="line"/>
      <point x="281" y="696" type="line"/>
      <point x="545" y="0" type="line"/>
      <point x="682" y="0" type="line"/>
    </contour>
    <contour>
      <point x="396" y="696" type="line"/>
      <point x="264" y="696" type="line"/>
      <point x="0" y="0" type="line"/>
      <point x="132" y="0" type="line"/>
    </contour>
    <contour>
      <point x="528" y="158" type="line"/>
      <point x="528" y="270" type="line"/>
      <point x="154" y="270" type="line"/>
      <point x="154" y="158" type="line"/>
    </contour>
    <contour>
      <point x="341" y="783" type="move" name="topUC"/>
    </contour>
    <contour>
      <point x="565" y="52" type="move" name="ogonek"/>
    </contour>
  </outline>
</glyph>
<glyph name="B" format="1">
  <advance width="682"/>
  <unicode hex="0042"/>
  <outline>
    <contour>
      <point x="176" y="330" type="line"/>
      <point x="369" y="330" type="line" smooth="yes"/>
      <point x="530" y="330"/>
      <point x="616" y="394"/>
      <point x="616" y="513" type="curve" smooth="yes"/>
      <point x="616" y="631"/>
      <point x="532" y="696"/>
      <point x="381" y="696" type="curve" smooth="yes"/>
      <point x="176" y="696" type="line"/>
      <point x="176" y="580" type="line"/>
      <point x="370" y="580" type="line" smooth="yes"/>
      <point x="450" y="580"/>
      <point x="477" y="561"/>
      <point x="477" y="500" type="curve" smooth="yes"/>
      <point x="477" y="444"/>
      <point x="441" y="414"/>
      <point x="369" y="414" type="curve" smooth="yes"/>
      <point x="176" y="414" type="line"/>
    </contour>
    <contour>
      <point x="88" y="0" type="line"/>
      <point x="369" y="0" type="line" smooth="yes"/>
      <point x="544" y="0"/>
      <point x="638" y="68"/>
      <point x="638" y="195" type="curve" smooth="yes"/>
      <point x="638" y="319"/>
      <point x="548" y="386"/>
      <point x="381" y="386" type="curve" smooth="yes"/>
      <point x="220" y="386" type="line"/>
      <point x="220" y="696" type="line"/>
      <point x="88" y="696" type="line"/>
    </contour>
    <contour>
      <point x="220" y="117" type="line"/>
      <point x="220" y="299" type="line"/>
      <point x="370" y="299" type="line" smooth="yes"/>
      <point x="458" y="299"/>
      <point x="499" y="270"/>
      <point x="499" y="208" type="curve" smooth="yes"/>
      <point x="499" y="141"/>
      <point x="464" y="117"/>
      <point x="369" y="117" type="curve" smooth="yes"/>
    </contour>
  </outline>
</glyph>
<glyph name="C" format="1">
  <advance width="682"/>
  <unicode hex="0043"/>
  <outline>
    <contour>
      <point x="401" y="-12" type="curve" smooth="yes"/>
      <point x="496" y="-12"/>
      <point x="580" y="17"/>
      <point x="638" y="68" type="curve"/>
      <point x="638" y="190" type="line"/>
      <point x="634" y="190" type="line"/>
      <point x="570" y="135"/>
      <point x="486" y="105"/>
      <point x="412" y="105" type="curve" smooth="yes"/>
      <point x="272" y="105"/>
      <point x="183" y="190"/>
      <point x="183" y="348" type="curve" smooth="yes"/>
      <point x="183" y="507"/>
      <point x="274" y="592"/>
      <point x="418" y="592" type="curve" smooth="yes"/>
      <point x="481" y="592"/>
      <point x="562" y="572"/>
      <point x="621" y="527" type="curve"/>
      <point x="625" y="527" type="line"/>
      <point x="625" y="648" type="line"/>
      <point x="572" y="689"/>
      <point x="485" y="708"/>
      <point x="407" y="708" type="curve" smooth="yes"/>
      <point x="176" y="708"/>
      <point x="44" y="567"/>
      <point x="44" y="348" type="curve" smooth="yes"/>
      <point x="44" y="129"/>
      <point x="174" y="-12"/>
    </contour>
    <contour>
      <point x="341" y="783" type="move" name="topUC"/>
    </contour>
    <contour>
      <point x="341" y="-116" type="move" name="bottom"/>
    </contour>
  </outline>
</glyph>
<glyph name="D" format="1">
  <advance width="748"/>
  <unicode hex="0044"/>
  <outline>
    <contour>
      <point x="88" y="0" type="line"/>
      <point x="220" y="0" type="line"/>
      <point x="220" y="696" type="line"/>
      <point x="88" y="696" type="line"/>
    </contour>
    <contour>
      <point x="365" y="0" type="line" smooth="yes"/>
      <point x="582" y="0"/>
      <point x="706" y="136"/>
      <point x="706" y="348" type="curve" smooth="yes"/>
      <point x="706" y="560"/>
      <point x="582" y="696"/>
      <point x="365" y="696" type="curve" smooth="yes"/>
      <point x="154" y="696" type="line"/>
      <point x="154" y="579" type="line"/>
      <point x="365" y="579" type="line" smooth="yes"/>
      <point x="489" y="579"/>
      <point x="567" y="502"/>
      <point x="567" y="348" type="curve" smooth="yes"/>
      <point x="567" y="194"/>
      <point x="489" y="117"/>
      <point x="365" y="117" type="curve" smooth="yes"/>
      <point x="154" y="117" type="line"/>
      <point x="154" y="0" type="line"/>
    </contour>
    <contour>
      <point x="374" y="783" type="move" name="topUC"/>
    </contour>
    <contour>
      <point x="374" y="-116" type="move" name="bottom"/>
    </contour>
  </outline>
</glyph>
<glyph name="E" format="1">
  <advance width="660"/>
  <unicode hex="0045"/>
  <outline>
    <contour>
      <point x="88" y="0" type="line"/>
      <point x="594" y="0" type="line"/>
      <point x="594" y="116" type="line"/>
      <point x="220" y="116" type="line"/>
      <point x="220" y="580" type="line"/>
      <point x="594" y="580" type="line"/>
      <point x="594" y="696" type="line"/>
      <point x="88" y="696" type="line"/>
    </contour>
    <contour>
      <point x="572" y="297" type="line"/>
      <point x="572" y="406" type="line"/>
      <point x="154" y="406" type="line"/>
      <point x="154" y="297" type="line"/>
    </contour>
    <contour>
      <point x="330" y="783" type="move" name="topUC"/>
    </contour>
    <contour>
      <point x="330" y="-116" type="move" name="bottom"/>
    </contour>
    <contour>
      <point x="550" y="52" type="move" name="ogonek"/>
    </contour>
  </outline>
</glyph>
<glyph name="F" format="1">
  <advance width="638"/>
  <unicode hex="0046"/>
  <outline>
    <contour>
      <point x="594" y="580" type="line"/>
      <point x="594" y="696" type="line"/>
      <point x="88" y="696" type="line"/>
      <point x="88" y="0" type="line"/>
      <point x="220" y="0" type="line"/>
      <point x="220" y="580" type="line"/>
    </contour>
    <contour>
      <point x="528" y="285" type="line"/>
      <point x="528" y="395" type="line"/>
      <point x="154" y="395" type="line"/>
      <point x="154" y="285" type="line"/>
    </contour>
  </outline>
</glyph>
<glyph name="G" format="1">
  <advance width="726"/>
  <unicode hex="0047"/>
  <outline>
    <contour>
      <point x="366" y="-12" type="curve" smooth="yes"/>
      <point x="487" y="-12"/>
      <point x="584" y="46"/>
      <point x="649" y="157" type="curve"/>
      <point x="649" y="255" type="line"/>
      <point x="634" y="255" type="line"/>
      <point x="564" y="159"/>
      <point x="473" y="104"/>
      <point x="382" y="104" type="curve" smooth="yes"/>
      <point x="261" y="104"/>
      <point x="183" y="203"/>
      <point x="183" y="351" type="curve" smooth="yes"/>
      <point x="183" y="501"/>
      <point x="264" y="592"/>
      <point x="405" y="592" type="curve" smooth="yes"/>
      <point x="479" y="592"/>
      <point x="569" y="567"/>
      <point x="634" y="526" type="curve"/>
      <point x="638" y="526" type="line"/>
      <point x="638" y="647" type="line"/>
      <point x="579" y="683"/>
      <point x="491" y="708"/>
      <point x="399" y="708" type="curve" smooth="yes"/>
      <point x="182" y="708"/>
      <point x="44" y="571"/>
      <point x="44" y="348" type="curve" smooth="yes"/>
      <point x="44" y="131"/>
      <point x="175" y="-12"/>
    </contour>
    <contour>
      <point x="418" y="257" type="line"/>
      <point x="682" y="257" type="line"/>
      <point x="682" y="367" type="line"/>
      <point x="418" y="367" type="line"/>
    </contour>
    <contour>
      <point x="594" y="0" type="line"/>
      <point x="682" y="0" type="line"/>
      <point x="682" y="309" type="line"/>
      <point x="550" y="309" type="line"/>
      <point x="550" y="116" type="line"/>
    </contour>
    <contour>
      <point x="363" y="783" type="move" name="topUC"/>
    </contour>
    <contour>
      <point x="363" y="-116" type="move" name="bottom"/>
    </contour>
  </outline>
</glyph>
<glyph name="H" format="1">
  <advance width="770"/>
  <unicode hex="0048"/>
  <outline>
    <contour>
      <point x="88" y="0" type="line"/>
      <point x="220" y="0" type="line"/>
      <point x="220" y="696" type="line"/>
      <point x="88" y="696" type="line"/>
    </contour>
    <contour>
      <point x="550" y="0" type="line"/>
      <point x="682" y="0" type="line"/>
      <point x="682" y="696" type="line"/>
      <point x="550" y="696" type="line"/>
    </contour>
    <contour>
      <point x="616" y="306" type="line"/>
      <point x="616" y="423" type="line"/>
      <point x="154" y="423" type="line"/>
      <point x="154" y="306" type="line"/>
    </contour>
    <contour>
      <point x="385" y="783" type="move" name="topUC"/>
    </contour>
    <contour>
      <point x="385" y="-116" type="move" name="bottom"/>
    </contour>
  </outline>
</glyph>
<glyph name="I" format="1">
  <advance width="484"/>
  <unicode hex="0049"/>
  <outline>
    <contour>
      <point x="308" y="58" type="line"/>
      <point x="308" y="638" type="line"/>
      <point x="176" y="638" type="line"/>
      <point x="176" y="58" type="line"/>
    </contour>
    <contour>
      <point x="418" y="0" type="line"/>
      <point x="418" y="115" type="line"/>
      <point x="66" y="115" type="line"/>
      <point x="66" y="0" type="line"/>
    </contour>
    <contour>
      <point x="418" y="581" type="line"/>
      <point x="418" y="696" type="line"/>
      <point x="66" y="696" type="line"/>
      <point x="66" y="581" type="line"/>
    </contour>
    <contour>
      <point x="242" y="783" type="move" name="topUC"/>
    </contour>
    <contour>
      <point x="242" y="-116" type="move" name="bottom"/>
    </contour>
    <contour>
      <point x="242" y="52" type="move" name="ogonek"/>
    </contour>
  </outline>
</glyph>
<glyph name="J" format="1">
  <advance width="594"/>
  <unicode hex="004A"/>
  <outline>
    <contour>
      <point x="176" y="579" type="line"/>
      <point x="396" y="579" type="line"/>
      <point x="396" y="247" type="line" smooth="yes"/>
      <point x="396" y="148"/>
      <point x="350" y="104"/>
      <point x="277" y="104" type="curve" smooth="yes"/>
      <point x="200" y="104"/>
      <point x="154" y="154"/>
      <point x="154" y="247" type="curve" smooth="yes"/>
      <point x="154" y="261" type="line"/>
      <point x="22" y="261" type="line"/>
      <point x="22" y="244" type="line" smooth="yes"/>
      <point x="22" y="85"/>
      <point x="116" y="-12"/>
      <point x="278" y="-12" type="curve" smooth="yes"/>
      <point x="432" y="-12"/>
      <point x="528" y="75"/>
      <point x="528" y="244" type="curve" smooth="yes"/>
      <point x="528" y="696" type="line"/>
      <point x="176" y="696" type="line"/>
    </contour>
    <contour>
      <point x="297" y="783" type="move" name="topUC"/>
    </contour>
  </outline>
</glyph>
<glyph name="K" format="1">
  <advance width="704"/>
  <unicode hex="004B"/>
  <outline>
    <contour>
      <point x="220" y="0" type="line"/>
      <point x="220" y="696" type="line"/>
      <point x="88" y="696" type="line"/>
      <point x="88" y="0" type="line"/>
    </contour>
    <contour>
      <point x="203" y="199" type="line"/>
      <point x="682" y="696" type="line"/>
      <point x="520" y="696" type="line"/>
      <point x="134" y="295" type="line"/>
    </contour>
    <contour>
      <point x="704" y="0" type="line"/>
      <point x="391" y="405" type="line"/>
      <point x="260" y="361" type="line"/>
      <point x="537" y="0" type="line"/>
    </contour>
    <contour>
      <point x="352" y="-116" type="move" name="bottom"/>
    </contour>
  </outline>
</glyph>
<glyph name="L" format="1">
  <advance width="616"/>
  <unicode hex="004C"/>
  <outline>
    <contour>
      <point x="88" y="0" type="line"/>
      <point x="220" y="0" type="line"/>
      <point x="220" y="696" type="line"/>
      <point x="88" y="696" type="line"/>
    </contour>
    <contour>
      <point x="572" y="0" type="line"/>
      <point x="572" y="116" type="line"/>
      <point x="155" y="116" type="line"/>
      <point x="155" y="0" type="line"/>
    </contour>
    <contour>
      <point x="308" y="783" type="move" name="topUC"/>
    </contour>
    <contour>
      <point x="308" y="-116" type="move" name="bottom"/>
    </contour>
    <contour>
      <point x="510" y="638" type="move" name="caronalt"/>
    </contour>
    <contour>
      <point x="510" y="348" type="move" name="periodcentered"/>
    </contour>
  </outline>
</glyph>
<glyph name="M" format="1">
  <advance width="924"/>
  <unicode hex="004D"/>
  <outline>
    <contour>
      <point x="391" y="0" type="line"/>
      <point x="528" y="0" type="line"/>
      <point x="280" y="696" type="line"/>
      <point x="143" y="696" type="line"/>
    </contour>
    <contour>
      <point x="405" y="0" type="line"/>
      <point x="537" y="0" type="line"/>
      <point x="779" y="696" type="line"/>
      <point x="647" y="696" type="line"/>
    </contour>
    <contour>
      <point x="88" y="0" type="line"/>
      <point x="220" y="0" type="line"/>
      <point x="220" y="696" type="line"/>
      <point x="88" y="696" type="line"/>
    </contour>
    <contour>
      <point x="704" y="0" type="line"/>
      <point x="836" y="0" type="line"/>
      <point x="836" y="696" type="line"/>
      <point x="704" y="696" type="line"/>
    </contour>
  </outline>
</glyph>
<glyph name="N" format="1">
  <advance width="792"/>
  <unicode hex="004E"/>
  <outline>
    <contour>
      <point x="88" y="0" type="line"/>
      <point x="220" y="0" type="line"/>
      <point x="220" y="696" type="line"/>
      <point x="88" y="696" type="line"/>
    </contour>
    <contour>
      <point x="572" y="0" type="line"/>
      <point x="691" y="55" type="line"/>
      <point x="220" y="696" type="line"/>
      <point x="101" y="642" type="line"/>
    </contour>
    <contour>
      <point x="572" y="0" type="line"/>
      <point x="704" y="0" type="line"/>
      <point x="704" y="696" type="line"/>
      <point x="572" y="696" type="line"/>
    </contour>
    <contour>
      <point x="396" y="783" type="move" name="topUC"/>
    </contour>
    <contour>
      <point x="396" y="-116" type="move" name="bottom"/>
    </contour>
  </outline>
</glyph>
<glyph name="O" format="1">
  <advance width="770"/>
  <unicode hex="004F"/>
  <outline>
    <contour>
      <point x="385" y="-12" type="curve" smooth="yes"/>
      <point x="602" y="-12"/>
      <point x="726" y="129"/>
      <point x="726" y="348" type="curve" smooth="yes"/>
      <point x="726" y="567"/>
      <point x="602" y="708"/>
      <point x="385" y="708" type="curve" smooth="yes"/>
      <point x="168" y="708"/>
      <point x="44" y="567"/>
      <point x="44" y="348" type="curve" smooth="yes"/>
      <point x="44" y="129"/>
      <point x="168" y="-12"/>
    </contour>
    <contour>
      <point x="385" y="110" type="curve" smooth="yes"/>
      <point x="261" y="110"/>
      <point x="183" y="193"/>
      <point x="183" y="348" type="curve" smooth="yes"/>
      <point x="183" y="503"/>
      <point x="261" y="586"/>
      <point x="385" y="586" type="curve" smooth="yes"/>
      <point x="509" y="586"/>
      <point x="587" y="503"/>
      <point x="587" y="348" type="curve" smooth="yes"/>
      <point x="587" y="193"/>
      <point x="509" y="110"/>
    </contour>
    <contour>
      <point x="385" y="783" type="move" name="topUC"/>
    </contour>
    <contour>
      <point x="385" y="-116" type="move" name="bottom"/>
    </contour>
    <contour>
      <point x="385" y="52" type="move" name="ogonek"/>
    </contour>
  </outline>
</glyph>
<glyph name="P" format="1">
  <advance width="682"/>
  <unicode hex="0050"/>
  <outline>
    <contour>
      <point x="88" y="696" type="line"/>
      <point x="88" y="0" type="line"/>
      <point x="220" y="0" type="line"/>
      <point x="220" y="232" type="line"/>
      <point x="386" y="232" type="line" smooth="yes"/>
      <point x="568" y="232"/>
      <point x="660" y="321"/>
      <point x="660" y="468" type="curve" smooth="yes"/>
      <point x="660" y="613"/>
      <point x="570" y="696"/>
      <point x="374" y="696" type="curve" smooth="yes"/>
    </contour>
    <contour>
      <point x="374" y="579" type="line" smooth="yes"/>
      <point x="474" y="579"/>
      <point x="521" y="550"/>
      <point x="521" y="465" type="curve" smooth="yes"/>
      <point x="521" y="377"/>
      <point x="471" y="347"/>
      <point x="375" y="347" type="curve" smooth="yes"/>
      <point x="220" y="347" type="line"/>
      <point x="220" y="579" type="line"/>
    </contour>
  </outline>
</glyph>
<glyph name="Q" format="1">
  <advance width="770"/>
  <unicode hex="0051"/>
  <outline>
    <contour>
      <point x="385" y="-12" type="curve" smooth="yes"/>
      <point x="602" y="-12"/>
      <point x="726" y="129"/>
      <point x="726" y="348" type="curve" smooth="yes"/>
      <point x="726" y="567"/>
      <point x="602" y="708"/>
      <point x="385" y="708" type="curve" smooth="yes"/>
      <point x="168" y="708"/>
      <point x="44" y="567"/>
      <point x="44" y="348" type="curve" smooth="yes"/>
      <point x="44" y="129"/>
      <point x="168" y="-12"/>
    </contour>
    <contour>
      <point x="385" y="101" type="curve" smooth="yes"/>
      <point x="261" y="101"/>
      <point x="183" y="186"/>
      <point x="183" y="348" type="curve" smooth="yes"/>
      <point x="183" y="510"/>
      <point x="261" y="595"/>
      <point x="385" y="595" type="curve" smooth="yes"/>
      <point x="509" y="595"/>
      <point x="587" y="510"/>
      <point x="587" y="348" type="curve" smooth="yes"/>
      <point x="587" y="186"/>
      <point x="509" y="101"/>
    </contour>
    <contour>
      <point x="603" y="-153" type="line"/>
      <point x="423" y="58" type="line"/>
      <point x="296" y="40" type="line"/>
      <point x="483" y="-230" type="line"/>
    </contour>
  </outline>
</glyph>
<glyph name="R" format="1">
  <advance width="682"/>
  <unicode hex="0052"/>
  <outline>
    <contour>
      <point x="88" y="696" type="line"/>
      <point x="88" y="0" type="line"/>
      <point x="220" y="0" type="line"/>
      <point x="220" y="265" type="line"/>
      <point x="381" y="265" type="line" smooth="yes"/>
      <point x="551" y="265"/>
      <point x="638" y="349"/>
      <point x="638" y="485" type="curve" smooth="yes"/>
      <point x="638" y="620"/>
      <point x="552" y="696"/>
      <point x="369" y="696" type="curve" smooth="yes"/>
    </contour>
    <contour>
      <point x="369" y="579" type="line" smooth="yes"/>
      <point x="457" y="579"/>
      <point x="499" y="555"/>
      <point x="499" y="482" type="curve" smooth="yes"/>
      <point x="499" y="406"/>
      <point x="454" y="381"/>
      <point x="370" y="381" type="curve" smooth="yes"/>
      <point x="220" y="381" type="line"/>
      <point x="220" y="579" type="line"/>
    </contour>
    <contour>
      <point x="660" y="0" type="line"/>
      <point x="489" y="318" type="line"/>
      <point x="364" y="274" type="line"/>
      <point x="510" y="0" type="line"/>
    </contour>
    <contour>
      <point x="341" y="783" type="move" name="topUC"/>
    </contour>
    <contour>
      <point x="341" y="-116" type="move" name="bottom"/>
    </contour>
  </outline>
</glyph>
<glyph name="S" format="1">
  <advance width="638"/>
  <unicode hex="0053"/>
  <outline>
    <contour>
      <point x="315" y="-12" type="curve" smooth="yes"/>
      <point x="483" y="-12"/>
      <point x="594" y="66"/>
      <point x="594" y="200" type="curve" smooth="yes"/>
      <point x="594" y="452"/>
      <point x="200" y="400"/>
      <point x="200" y="523" type="curve" smooth="yes"/>
      <point x="200" y="568"/>
      <point x="254" y="594"/>
      <point x="344" y="594" type="curve" smooth="yes"/>
      <point x="416" y="594"/>
      <point x="492" y="577"/>
      <point x="572" y="538" type="curve"/>
      <point x="572" y="663" type="line"/>
      <point x="505" y="692"/>
      <point x="423" y="708"/>
      <point x="343" y="708" type="curve" smooth="yes"/>
      <point x="173" y="708"/>
      <point x="65" y="636"/>
      <point x="65" y="509" type="curve" smooth="yes"/>
      <point x="65" y="267"/>
      <point x="458" y="325"/>
      <point x="458" y="186" type="curve" smooth="yes"/>
      <point x="458" y="132"/>
      <point x="399" y="102"/>
      <point x="307" y="102" type="curve" smooth="yes"/>
      <point x="226" y="102"/>
      <point x="143" y="125"/>
      <point x="44" y="172" type="curve"/>
      <point x="44" y="44" type="line"/>
      <point x="128" y="9"/>
      <point x="228" y="-12"/>
    </contour>
    <contour>
      <point x="319" y="783" type="move" name="topUC"/>
    </contour>
    <contour>
      <point x="319" y="-116" type="move" name="bottom"/>
    </contour>
  </outline>
</glyph>
<glyph name="T" format="1">
  <advance width="616"/>
  <unicode hex="0054"/>
  <outline>
    <contour>
      <point x="242" y="638" type="line"/>
      <point x="242" y="0" type="line"/>
      <point x="374" y="0" type="line"/>
      <point x="374" y="638" type="line"/>
    </contour>
    <contour>
      <point x="572" y="575" type="line"/>
      <point x="572" y="696" type="line"/>
      <point x="44" y="696" type="line"/>
      <point x="44" y="575" type="line"/>
    </contour>
    <contour>
      <point x="308" y="783" type="move" name="topUC"/>
    </contour>
    <contour>
      <point x="308" y="-116" type="move" name="bottom"/>
    </contour>
  </outline>
</glyph>
<glyph name="U" format="1">
  <advance width="726"/>
  <unicode hex="0055"/>
  <outline>
    <contour>
      <point x="363" y="-12" type="curve" smooth="yes"/>
      <point x="549" y="-12"/>
      <point x="660" y="101"/>
      <point x="660" y="288" type="curve" smooth="yes"/>
      <point x="660" y="696" type="line"/>
      <point x="528" y="696" type="line"/>
      <point x="528" y="291" type="line" smooth="yes"/>
      <point x="528" y="164"/>
      <point x="467" y="104"/>
      <point x="363" y="104" type="curve" smooth="yes"/>
      <point x="262" y="104"/>
      <point x="198" y="159"/>
      <point x="198" y="291" type="curve" smooth="yes"/>
      <point x="198" y="696" type="line"/>
      <point x="66" y="696" type="line"/>
      <point x="66" y="288" type="line" smooth="yes"/>
      <point x="66" y="101"/>
      <point x="177" y="-12"/>
    </contour>
    <contour>
      <point x="363" y="783" type="move" name="topUC"/>
    </contour>
    <contour>
      <point x="363" y="-116" type="move" name="bottom"/>
    </contour>
    <contour>
      <point x="363" y="52" type="move" name="ogonek"/>
    </contour>
  </outline>
</glyph>
<glyph name="V" format="1">
  <advance width="682"/>
  <unicode hex="0056"/>
  <outline>
    <contour>
      <point x="264" y="0" type="line"/>
      <point x="396" y="0" type="line"/>
      <point x="143" y="696" type="line"/>
      <point x="0" y="696" type="line"/>
    </contour>
    <contour>
      <point x="291" y="0" type="line"/>
      <point x="418" y="0" type="line"/>
      <point x="682" y="696" type="line"/>
      <point x="544" y="696" type="line"/>
    </contour>
  </outline>
</glyph>
<glyph name="W" format="1">
  <advance width="924"/>
  <unicode hex="0057"/>
  <outline>
    <contour>
      <point x="185" y="0" type="line"/>
      <point x="314" y="0" type="line"/>
      <point x="133" y="696" type="line"/>
      <point x="0" y="696" type="line"/>
    </contour>
    <contour>
      <point x="215" y="0" type="line"/>
      <point x="339" y="0" type="line"/>
      <point x="520" y="696" type="line"/>
      <point x="396" y="696" type="line"/>
    </contour>
    <contour>
      <point x="585" y="0" type="line"/>
      <point x="714" y="0" type="line"/>
      <point x="533" y="696" type="line"/>
      <point x="404" y="696" type="line"/>
    </contour>
    <contour>
      <point x="615" y="0" type="line"/>
      <point x="739" y="0" type="line"/>
      <point x="924" y="696" type="line"/>
      <point x="796" y="696" type="line"/>
    </contour>
    <contour>
      <point x="462" y="783" type="move" name="topUC"/>
    </contour>
  </outline>
</glyph>
<glyph name="X" format="1">
  <advance width="638"/>
  <unicode hex="0058"/>
  <outline>
    <contour>
      <point x="489" y="0" type="line"/>
      <point x="638" y="0" type="line"/>
      <point x="161" y="696" type="line"/>
      <point x="12" y="696" type="line"/>
    </contour>
    <contour>
      <point x="374" y="324" type="line"/>
      <point x="626" y="696" type="line"/>
      <point x="482" y="696" type="line"/>
      <point x="278" y="394" type="line"/>
    </contour>
    <contour>
      <point x="270" y="398" type="line"/>
      <point x="0" y="0" type="line"/>
      <point x="144" y="0" type="line"/>
      <point x="366" y="328" type="line"/>
    </contour>
  </outline>
</glyph>
<glyph name="Y" format="1">
  <advance width="638"/>
  <unicode hex="0059"/>
  <outline>
    <contour>
      <point x="253" y="280" type="line"/>
      <point x="253" y="0" type="line"/>
      <point x="385" y="0" type="line"/>
      <point x="385" y="280" type="line"/>
    </contour>
    <contour>
      <point x="259" y="240" type="line"/>
      <point x="385" y="240" type="line"/>
      <point x="638" y="696" type="line"/>
      <point x="496" y="696" type="line"/>
    </contour>
    <contour>
      <point x="253" y="240" type="line"/>
      <point x="379" y="240" type="line"/>
      <point x="147" y="696" type="line"/>
      <point x="0" y="696" type="line"/>
    </contour>
    <contour>
      <point x="319" y="783" type="move" name="topUC"/>
    </contour>
  </outline>
</glyph>
<glyph name="Z" format="1">
  <advance width="638"/>
  <unicode hex="005A"/>
  <outline>
    <contour>
      <point x="594" y="696" type="line"/>
      <point x="44" y="696" type="line"/>
      <point x="44" y="587" type="line"/>
      <point x="486" y="587" type="line"/>
      <point x="594" y="598" type="line"/>
    </contour>
    <contour>
      <point x="616" y="109" type="line"/>
      <point x="52" y="109" type="line"/>
      <point x="22" y="98" type="line"/>
      <point x="22" y="0" type="line"/>
      <point x="616" y="0" type="line"/>
    </contour>
    <contour>
      <point x="188" y="98" type="line"/>
      <point x="594" y="598" type="line"/>
      <point x="430" y="598" type="line"/>
      <point x="22" y="98" type="line"/>
    </contour>
    <contour>
      <point x="319" y="783" type="move" name="topUC"/>
    </contour>
    <contour>
      <point x="319" y="-116" type="move" name="bottom"/>
    </contour>
  </outline>
</glyph>
<glyph name="bracketleft" format="1">
  <advance width="396"/>
  <unicode hex="005B"/>
  <outline>
    <contour>
      <point x="88" y="-116" type="line"/>
      <point x="352" y="-116" type="line"/>
      <point x="352" y="-7" type="line"/>
      <point x="220" y="-7" type="line"/>
      <point x="220" y="703" type="line"/>
      <point x="352" y="703" type="line"/>
      <point x="352" y="812" type="line"/>
      <point x="88" y="812" type="line"/>
    </contour>
  </outline>
</glyph>
<glyph name="backslash" format="1">
  <advance width="352"/>
  <unicode hex="005C"/>
  <outline>
    <contour>
      <point x="124" y="754" type="line"/>
      <point x="0" y="754" type="line"/>
      <point x="229" y="-232" type="line"/>
      <point x="352" y="-232" type="line"/>
    </contour>
  </outline>
</glyph>
<glyph name="bracketright" format="1">
  <advance width="396"/>
  <unicode hex="005D"/>
  <outline>
    <contour>
      <point x="308" y="812" type="line"/>
      <point x="44" y="812" type="line"/>
      <point x="44" y="703" type="line"/>
      <point x="176" y="703" type="line"/>
      <point x="176" y="-7" type="line"/>
      <point x="44" y="-7" type="line"/>
      <point x="44" y="-116" type="line"/>
      <point x="308" y="-116" type="line"/>
    </contour>
  </outline>
</glyph>
<glyph name="asciicircum" format="1">
  <advance width="484"/>
  <unicode hex="005E"/>
  <outline>
    <contour>
      <point x="242" y="515" type="line"/>
      <point x="22" y="247" type="line"/>
      <point x="92" y="196" type="line"/>
      <point x="242" y="367" type="line"/>
      <point x="392" y="196" type="line"/>
      <point x="462" y="247" type="line"/>
    </contour>
  </outline>
</glyph>
<glyph name="underscore" format="1">
  <advance width="594"/>
  <unicode hex="005F"/>
  <outline>
    <contour>
      <point x="44" y="-126" type="line"/>
      <point x="550" y="-126" type="line"/>
      <point x="550" y="-20" type="line"/>
      <point x="44" y="-20" type="line"/>
    </contour>
  </outline>
</glyph>
<glyph name="grave" format="1">
  <advance width="352"/>
  <unicode hex="0060"/>
  <outline>
    <contour>
      <point x="44" y="721" type="line"/>
      <point x="257" y="594" type="line"/>
      <point x="308" y="652" type="line"/>
      <point x="118" y="825" type="line"/>
    </contour>
    <contour>
      <point x="176" y="638" type="move" name="_top"/>
    </contour>
  </outline>
</glyph>
<glyph name="a" format="1">
  <advance width="616"/>
  <unicode hex="0061"/>
  <outline>
    <contour>
      <point x="234" y="-12" type="curve" smooth="yes"/>
      <point x="318" y="-12"/>
      <point x="384" y="26"/>
      <point x="441" y="107" type="curve"/>
      <point x="441" y="211" type="line"/>
      <point x="375" y="130"/>
      <point x="321" y="95"/>
      <point x="254" y="95" type="curve" smooth="yes"/>
      <point x="202" y="95"/>
      <point x="176" y="116"/>
      <point x="176" y="159" type="curve" smooth="yes"/>
      <point x="176" y="214"/>
      <point x="217" y="231"/>
      <point x="299" y="231" type="curve" smooth="yes"/>
      <point x="440" y="231" type="line"/>
      <point x="440" y="312" type="line"/>
      <point x="387" y="318"/>
      <point x="345" y="321"/>
      <point x="307" y="321" type="curve" smooth="yes"/>
      <point x="134" y="321"/>
      <point x="44" y="257"/>
      <point x="44" y="151" type="curve" smooth="yes"/>
      <point x="44" y="52"/>
      <point x="124" y="-12"/>
    </contour>
    <contour>
      <point x="440" y="0" type="line"/>
      <point x="550" y="0" type="line"/>
      <point x="528" y="116" type="line"/>
      <point x="528" y="348" type="line" smooth="yes"/>
      <point x="528" y="470"/>
      <point x="448" y="534"/>
      <point x="300" y="534" type="curve" smooth="yes"/>
      <point x="219" y="534"/>
      <point x="153" y="515"/>
      <point x="88" y="467" type="curve"/>
      <point x="88" y="349" type="line"/>
      <point x="158" y="399"/>
      <point x="216" y="424"/>
      <point x="291" y="424" type="curve" smooth="yes"/>
      <point x="371" y="424"/>
      <point x="407" y="395"/>
      <point x="407" y="336" type="curve" smooth="yes"/>
      <point x="407" y="116" type="line"/>
    </contour>
    <contour>
      <point x="308" y="638" type="move" name="top"/>
    </contour>
    <contour>
      <point x="462" y="52" type="move" name="ogonek"/>
    </contour>
  </outline>
</glyph>
<glyph name="b" format="1">
  <advance width="638"/>
  <unicode hex="0062"/>
  <outline>
    <contour>
      <point x="339" y="-11" type="curve" smooth="yes"/>
      <point x="495" y="-11"/>
      <point x="594" y="89"/>
      <point x="594" y="259" type="curve" smooth="yes"/>
      <point x="594" y="426"/>
      <point x="499" y="534"/>
      <point x="363" y="534" type="curve" smooth="yes"/>
      <point x="285" y="534"/>
      <point x="218" y="498"/>
      <point x="164" y="412" type="curve"/>
      <point x="164" y="305" type="line"/>
      <point x="226" y="383"/>
      <point x="287" y="420"/>
      <point x="349" y="420" type="curve" smooth="yes"/>
      <point x="421" y="420"/>
      <point x="455" y="369"/>
      <point x="455" y="261" type="curve" smooth="yes"/>
      <point x="455" y="147"/>
      <point x="417" y="100"/>
      <point x="326" y="100" type="curve" smooth="yes"/>
      <point x="279" y="100"/>
      <point x="222" y="100"/>
      <point x="165" y="132" type="curve"/>
      <point x="165" y="45" type="line"/>
      <point x="243" y="2"/>
      <point x="283" y="-11"/>
    </contour>
    <contour>
      <point x="88" y="0" type="line"/>
      <point x="220" y="0" type="line"/>
      <point x="220" y="754" type="line"/>
      <point x="88" y="754" type="line"/>
    </contour>
  </outline>
</glyph>
<glyph name="c" format="1">
  <advance width="550"/>
  <unicode hex="0063"/>
  <outline>
    <contour>
      <point x="320" y="421" type="curve" smooth="yes"/>
      <point x="370" y="421"/>
      <point x="441" y="404"/>
      <point x="491" y="365" type="curve"/>
      <point x="495" y="365" type="line"/>
      <point x="495" y="477" type="line"/>
      <point x="452" y="515"/>
      <point x="383" y="534"/>
      <point x="315" y="534" type="curve" smooth="yes"/>
      <point x="153" y="534"/>
      <point x="44" y="426"/>
      <point x="44" y="259" type="curve" smooth="yes"/>
      <point x="44" y="94"/>
      <point x="149" y="-12"/>
      <point x="315" y="-12" type="curve" smooth="yes"/>
      <point x="395" y="-12"/>
      <point x="460" y="13"/>
      <point x="506" y="57" type="curve"/>
      <point x="506" y="170" type="line"/>
      <point x="502" y="170" type="line"/>
      <point x="449" y="125"/>
      <point x="379" y="101"/>
      <point x="318" y="101" type="curve" smooth="yes"/>
      <point x="226" y="101"/>
      <point x="181" y="155"/>
      <point x="181" y="259" type="curve" smooth="yes"/>
      <point x="181" y="365"/>
      <point x="228" y="421"/>
    </contour>
    <contour>
      <point x="275" y="638" type="move" name="top"/>
    </contour>
    <contour>
      <point x="275" y="-116" type="move" name="bottom"/>
    </contour>
  </outline>
</glyph>
<glyph name="d" format="1">
  <advance width="638"/>
  <unicode hex="0064"/>
  <outline>
    <contour>
      <point x="254" y="-11" type="curve" smooth="yes"/>
      <point x="344" y="-11"/>
      <point x="427" y="39"/>
      <point x="474" y="120" type="curve"/>
      <point x="474" y="221" type="line"/>
      <point x="410" y="135"/>
      <point x="346" y="97"/>
      <point x="289" y="97" type="curve" smooth="yes"/>
      <point x="218" y="97"/>
      <point x="183" y="156"/>
      <point x="183" y="259" type="curve" smooth="yes"/>
      <point x="183" y="373"/>
      <point x="226" y="425"/>
      <point x="318" y="425" type="curve" smooth="yes"/>
      <point x="359" y="425"/>
      <point x="418" y="415"/>
      <point x="473" y="396" type="curve"/>
      <point x="473" y="473" type="line"/>
      <point x="414" y="515"/>
      <point x="357" y="534"/>
      <point x="290" y="534" type="curve" smooth="yes"/>
      <point x="133" y="534"/>
      <point x="44" y="431"/>
      <point x="44" y="257" type="curve" smooth="yes"/>
      <point x="44" y="91"/>
      <point x="125" y="-11"/>
    </contour>
    <contour>
      <point x="550" y="754" type="line"/>
      <point x="418" y="754" type="line"/>
      <point x="418" y="116" type="line"/>
      <point x="451" y="0" type="line"/>
      <point x="572" y="0" type="line"/>
      <point x="550" y="116" type="line"/>
    </contour>
    <contour>
      <point x="319" y="-116" type="move" name="bottom"/>
    </contour>
    <contour>
      <point x="628" y="638" type="move" name="caronalt"/>
    </contour>
  </outline>
</glyph>
<glyph name="e" format="1">
  <advance width="594"/>
  <unicode hex="0065"/>
  <outline>
    <contour>
      <point x="320" y="-12" type="curve" smooth="yes"/>
      <point x="399" y="-12"/>
      <point x="475" y="11"/>
      <point x="528" y="52" type="curve"/>
      <point x="528" y="159" type="line"/>
      <point x="524" y="159" type="line"/>
      <point x="463" y="119"/>
      <point x="381" y="97"/>
      <point x="321" y="97" type="curve" smooth="yes"/>
      <point x="222" y="97"/>
      <point x="170" y="156"/>
      <point x="170" y="260" type="curve" smooth="yes"/>
      <point x="170" y="363"/>
      <point x="222" y="428"/>
      <point x="302" y="428" type="curve" smooth="yes"/>
      <point x="378" y="428"/>
      <point x="417" y="368"/>
      <point x="417" y="261" type="curve"/>
      <point x="493" y="311" type="line"/>
      <point x="127" y="311" type="line"/>
      <point x="127" y="221" type="line"/>
      <point x="550" y="221" type="line"/>
      <point x="550" y="261" type="line" smooth="yes"/>
      <point x="550" y="429"/>
      <point x="455" y="534"/>
      <point x="302" y="534" type="curve" smooth="yes"/>
      <point x="147" y="534"/>
      <point x="44" y="425"/>
      <point x="44" y="261" type="curve" smooth="yes"/>
      <point x="44" y="93"/>
      <point x="151" y="-12"/>
    </contour>
    <contour>
      <point x="297" y="638" type="move" name="top"/>
    </contour>
    <contour>
      <point x="297" y="-116" type="move" name="bottom"/>
    </contour>
    <contour>
      <point x="444" y="52" type="move" name="ogonek"/>
    </contour>
  </outline>
</glyph>
<glyph name="f" format="1">
  <advance width="440"/>
  <unicode hex="0066"/>
  <outline>
    <contour>
      <point x="132" y="424" type="line"/>
      <point x="418" y="424" type="line"/>
      <point x="418" y="522" type="line"/>
      <point x="264" y="522" type="line"/>
      <point x="264" y="582" type="line" smooth="yes"/>
      <point x="264" y="637"/>
      <point x="286" y="656"/>
      <point x="336" y="656" type="curve" smooth="yes"/>
      <point x="366" y="656"/>
      <point x="391" y="649"/>
      <point x="418" y="633" type="curve"/>
      <point x="418" y="742" type="line"/>
      <point x="393" y="758"/>
      <point x="368" y="766"/>
      <point x="323" y="766" type="curve" smooth="yes"/>
      <point x="201" y="766"/>
      <point x="132" y="708"/>
      <point x="132" y="582" type="curve" smooth="yes"/>
    </contour>
    <contour>
      <point x="22" y="424" type="line"/>
      <point x="161" y="424" type="line"/>
      <point x="161" y="522" type="line"/>
      <point x="22" y="522" type="line"/>
    </contour>
    <contour>
      <point x="264" y="0" type="line"/>
      <point x="264" y="424" type="line"/>
      <point x="132" y="424" type="line"/>
      <point x="132" y="0" type="line"/>
    </contour>
  </outline>
</glyph>
<glyph name="g" format="1">
  <advance width="638"/>
  <unicode hex="0067"/>
  <outline>
    <contour>
      <point x="291" y="7" type="curve" smooth="yes"/>
      <point x="364" y="7"/>
      <point x="423" y="30"/>
      <point x="474" y="74" type="curve"/>
      <point x="474" y="192" type="line"/>
      <point x="410" y="144"/>
      <point x="352" y="121"/>
      <point x="296" y="121" type="curve" smooth="yes"/>
      <point x="218" y="121"/>
      <point x="183" y="166"/>
      <point x="183" y="268" type="curve" smooth="yes"/>
      <point x="183" y="376"/>
      <point x="222" y="423"/>
      <point x="314" y="423" type="curve" smooth="yes"/>
      <point x="362" y="423"/>
      <point x="419" y="423"/>
      <point x="473" y="391" type="curve"/>
      <point x="473" y="489" type="line"/>
      <point x="398" y="522"/>
      <point x="356" y="534"/>
      <point x="301" y="534" type="curve" smooth="yes"/>
      <point x="143" y="534"/>
      <point x="44" y="434"/>
      <point x="44" y="268" type="curve" smooth="yes"/>
      <point x="44" y="105"/>
      <point x="139" y="7"/>
    </contour>
    <contour>
      <point x="283" y="-244" type="curve" smooth="yes"/>
      <point x="452" y="-244"/>
      <point x="550" y="-162"/>
      <point x="550" y="0" type="curve" smooth="yes"/>
      <point x="550" y="407" type="line"/>
      <point x="572" y="522" type="line"/>
      <point x="440" y="522" type="line"/>
      <point x="418" y="435" type="line"/>
      <point x="418" y="0" type="line" smooth="yes"/>
      <point x="418" y="-81"/>
      <point x="379" y="-129"/>
      <point x="278" y="-129" type="curve" smooth="yes"/>
      <point x="204" y="-129"/>
      <point x="136" y="-103"/>
      <point x="76" y="-57" type="curve"/>
      <point x="76" y="-168" type="line"/>
      <point x="131" y="-216"/>
      <point x="184" y="-244"/>
    </contour>
    <contour>
      <point x="319" y="638" type="move" name="top"/>
    </contour>
  </outline>
</glyph>
<glyph name="h" format="1">
  <advance width="638"/>
  <unicode hex="0068"/>
  <outline>
    <contour>
      <point x="418" y="0" type="line"/>
      <point x="550" y="0" type="line"/>
      <point x="550" y="365" type="line" smooth="yes"/>
      <point x="550" y="466"/>
      <point x="480" y="534"/>
      <point x="374" y="534" type="curve" smooth="yes"/>
      <point x="311" y="534"/>
      <point x="260" y="509"/>
      <point x="198" y="447" type="curve"/>
      <point x="198" y="334" type="line"/>
      <point x="244" y="389"/>
      <point x="289" y="417"/>
      <point x="330" y="417" type="curve" smooth="yes"/>
      <point x="393" y="417"/>
      <point x="418" y="381"/>
      <point x="418" y="290" type="curve" smooth="yes"/>
    </contour>
    <contour>
      <point x="88" y="0" type="line"/>
      <point x="220" y="0" type="line"/>
      <point x="220" y="754" type="line"/>
      <point x="88" y="754" type="line"/>
    </contour>
    <contour>
      <point x="319" y="638" type="move" name="top"/>
    </contour>
    <contour>
      <point x="319" y="-116" type="move" name="bottom"/>
    </contour>
  </outline>
</glyph>
<glyph name="i" format="1">
  <advance width="396"/>
  <unicode hex="0069"/>
  <outline>
    <contour>
      <point x="154" y="0" type="line"/>
      <point x="286" y="0" type="line"/>
      <point x="286" y="522" type="line"/>
      <point x="44" y="522" type="line"/>
      <point x="44" y="424" type="line"/>
      <point x="154" y="424" type="line"/>
    </contour>
    <contour>
      <point x="220" y="600" type="curve" smooth="yes"/>
      <point x="264" y="600"/>
      <point x="302" y="633"/>
      <point x="302" y="683" type="curve" smooth="yes"/>
      <point x="302" y="733"/>
      <point x="264" y="766"/>
      <point x="220" y="766" type="curve" smooth="yes"/>
      <point x="176" y="766"/>
      <point x="138" y="733"/>
      <point x="138" y="683" type="curve" smooth="yes"/>
      <point x="138" y="633"/>
      <point x="176" y="600"/>
    </contour>
    <contour>
      <point x="198" y="-116" type="move" name="bottom"/>
    </contour>
    <contour>
      <point x="198" y="52" type="move" name="ogonek"/>
    </contour>
  </outline>
</glyph>
<glyph name="j" format="1">
  <advance width="396"/>
  <unicode hex="006A"/>
  <outline>
    <contour>
      <point x="44" y="522" type="line"/>
      <point x="44" y="424" type="line"/>
      <point x="154" y="424" type="line"/>
      <point x="154" y="-60" type="line" smooth="yes"/>
      <point x="154" y="-115"/>
      <point x="135" y="-134"/>
      <point x="93" y="-134" type="curve" smooth="yes"/>
      <point x="59" y="-134"/>
      <point x="31" y="-127"/>
      <point x="0" y="-107" type="curve"/>
      <point x="0" y="-216" type="line"/>
      <point x="28" y="-236"/>
      <point x="56" y="-244"/>
      <point x="105" y="-244" type="curve" smooth="yes"/>
      <point x="221" y="-244"/>
      <point x="286" y="-186"/>
      <point x="286" y="-60" type="curve" smooth="yes"/>
      <point x="286" y="522" type="line"/>
    </contour>
    <contour>
      <point x="220" y="600" type="curve" smooth="yes"/>
      <point x="264" y="600"/>
      <point x="302" y="633"/>
      <point x="302" y="683" type="curve" smooth="yes"/>
      <point x="302" y="733"/>
      <point x="264" y="766"/>
      <point x="220" y="766" type="curve" smooth="yes"/>
      <point x="176" y="766"/>
      <point x="138" y="733"/>
      <point x="138" y="683" type="curve" smooth="yes"/>
      <point x="138" y="633"/>
      <point x="176" y="600"/>
    </contour>
  </outline>
</glyph>
<glyph name="k" format="1">
  <advance width="594"/>
  <unicode hex="006B"/>
  <outline>
    <contour>
      <point x="220" y="0" type="line"/>
      <point x="220" y="754" type="line"/>
      <point x="88" y="754" type="line"/>
      <point x="88" y="0" type="line"/>
    </contour>
    <contour>
      <point x="181" y="110" type="line"/>
      <point x="572" y="522" type="line"/>
      <point x="422" y="522" type="line"/>
      <point x="126" y="204" type="line"/>
    </contour>
    <contour>
      <point x="594" y="0" type="line"/>
      <point x="370" y="318" type="line"/>
      <point x="255" y="274" type="line"/>
      <point x="438" y="0" type="line"/>
    </contour>
    <contour>
      <point x="319" y="-116" type="move" name="bottom"/>
    </contour>
  </outline>
</glyph>
<glyph name="m" format="1">
  <advance width="924"/>
  <unicode hex="006D"/>
  <outline>
    <contour>
      <point x="396" y="0" type="line"/>
      <point x="528" y="0" type="line"/>
      <point x="528" y="372" type="line" smooth="yes"/>
      <point x="528" y="471"/>
      <point x="464" y="534"/>
      <point x="363" y="534" type="curve" smooth="yes"/>
      <point x="296" y="534"/>
      <point x="245" y="510"/>
      <point x="188" y="450" type="curve"/>
      <point x="188" y="337" type="line"/>
      <point x="230" y="389"/>
      <point x="275" y="417"/>
      <point x="319" y="417" type="curve" smooth="yes"/>
      <point x="374" y="417"/>
      <point x="396" y="381"/>
      <point x="396" y="290" type="curve" smooth="yes"/>
    </contour>
    <contour>
      <point x="88" y="0" type="line"/>
      <point x="220" y="0" type="line"/>
      <point x="220" y="406" type="line"/>
      <point x="187" y="522" type="line"/>
      <point x="66" y="522" type="line"/>
      <point x="88" y="406" type="line"/>
    </contour>
    <contour>
      <point x="704" y="0" type="line"/>
      <point x="836" y="0" type="line"/>
      <point x="836" y="372" type="line" smooth="yes"/>
      <point x="836" y="471"/>
      <point x="772" y="534"/>
      <point x="671" y="534" type="curve" smooth="yes"/>
      <point x="602" y="534"/>
      <point x="548" y="508"/>
      <point x="496" y="451" type="curve"/>
      <point x="496" y="337" type="line"/>
      <point x="538" y="389"/>
      <point x="583" y="417"/>
      <point x="627" y="417" type="curve" smooth="yes"/>
      <point x="682" y="417"/>
      <point x="704" y="381"/>
      <point x="704" y="290" type="curve" smooth="yes"/>
    </contour>
  </outline>
</glyph>
<glyph name="n" format="1">
  <advance width="638"/>
  <unicode hex="006E"/>
  <outline>
    <contour>
      <point x="418" y="0" type="line"/>
      <point x="550" y="0" type="line"/>
      <point x="550" y="365" type="line" smooth="yes"/>
      <point x="550" y="466"/>
      <point x="480" y="534"/>
      <point x="374" y="534" type="curve" smooth="yes"/>
      <point x="311" y="534"/>
      <point x="260" y="509"/>
      <point x="198" y="447" type="curve"/>
      <point x="198" y="334" type="line"/>
      <point x="243" y="389"/>
      <point x="289" y="417"/>
      <point x="330" y="417" type="curve" smooth="yes"/>
      <point x="393" y="417"/>
      <point x="418" y="381"/>
      <point x="418" y="290" type="curve" smooth="yes"/>
    </contour>
    <contour>
      <point x="88" y="0" type="line"/>
      <point x="220" y="0" type="line"/>
      <point x="220" y="406" type="line"/>
      <point x="187" y="522" type="line"/>
      <point x="66" y="522" type="line"/>
      <point x="88" y="406" type="line"/>
    </contour>
    <contour>
      <point x="319" y="638" type="move" name="top"/>
    </contour>
    <contour>
      <point x="319" y="-116" type="move" name="bottom"/>
    </contour>
    <contour>
      <point x="10" y="638" type="move" name="apostrophe"/>
    </contour>
  </outline>
</glyph>
<glyph name="o" format="1">
  <advance width="616"/>
  <unicode hex="006F"/>
  <outline>
    <contour>
      <point x="308" y="-12" type="curve" smooth="yes"/>
      <point x="468" y="-12"/>
      <point x="572" y="95"/>
      <point x="572" y="261" type="curve" smooth="yes"/>
      <point x="572" y="427"/>
      <point x="468" y="534"/>
      <point x="308" y="534" type="curve" smooth="yes"/>
      <point x="148" y="534"/>
      <point x="44" y="427"/>
      <point x="44" y="261" type="curve" smooth="yes"/>
      <point x="44" y="95"/>
      <point x="148" y="-12"/>
    </contour>
    <contour>
      <point x="308" y="97" type="curve" smooth="yes"/>
      <point x="231" y="97"/>
      <point x="183" y="154"/>
      <point x="183" y="261" type="curve" smooth="yes"/>
      <point x="183" y="369"/>
      <point x="231" y="425"/>
      <point x="308" y="425" type="curve" smooth="yes"/>
      <point x="385" y="425"/>
      <point x="433" y="369"/>
      <point x="433" y="261" type="curve" smooth="yes"/>
      <point x="433" y="154"/>
      <point x="385" y="97"/>
    </contour>
    <contour>
      <point x="308" y="638" type="move" name="top"/>
    </contour>
    <contour>
      <point x="308" y="-116" type="move" name="bottom"/>
    </contour>
    <contour>
      <point x="308" y="52" type="move" name="ogonek"/>
    </contour>
  </outline>
</glyph>
<glyph name="p" format="1">
  <advance width="638"/>
  <unicode hex="0070"/>
  <outline>
    <contour>
      <point x="382" y="533" type="curve" smooth="yes"/>
      <point x="295" y="533"/>
      <point x="211" y="483"/>
      <point x="164" y="402" type="curve"/>
      <point x="164" y="301" type="line"/>
      <point x="226" y="385"/>
      <point x="288" y="425"/>
      <point x="352" y="425" type="curve" smooth="yes"/>
      <point x="419" y="425"/>
      <point x="455" y="366"/>
      <point x="455" y="264" type="curve" smooth="yes"/>
      <point x="455" y="152"/>
      <point x="412" y="97"/>
      <point x="325" y="97" type="curve" smooth="yes"/>
      <point x="277" y="97"/>
      <point x="219" y="108"/>
      <point x="165" y="126" type="curve"/>
      <point x="165" y="49" type="line"/>
      <point x="224" y="6"/>
      <point x="278" y="-12"/>
      <point x="352" y="-12" type="curve" smooth="yes"/>
      <point x="491" y="-12"/>
      <point x="594" y="107"/>
      <point x="594" y="266" type="curve" smooth="yes"/>
      <point x="594" y="425"/>
      <point x="508" y="533"/>
    </contour>
    <contour>
      <point x="88" y="-232" type="line"/>
      <point x="220" y="-232" type="line"/>
      <point x="220" y="406" type="line"/>
      <point x="187" y="522" type="line"/>
      <point x="66" y="522" type="line"/>
      <point x="88" y="406" type="line"/>
    </contour>
  </outline>
</glyph>
<glyph name="q" format="1">
  <advance width="638"/>
  <unicode hex="0071"/>
  <outline>
    <contour>
      <point x="298" y="-11" type="curve" smooth="yes"/>
      <point x="362" y="-11"/>
      <point x="427" y="18"/>
      <point x="474" y="67" type="curve"/>
      <point x="474" y="174" type="line"/>
      <point x="411" y="127"/>
      <point x="353" y="103"/>
      <point x="298" y="103" type="curve" smooth="yes"/>
      <point x="217" y="103"/>
      <point x="183" y="153"/>
      <point x="183" y="275" type="curve" smooth="yes"/>
      <point x="183" y="376"/>
      <point x="224" y="423"/>
      <point x="313" y="423" type="curve" smooth="yes"/>
      <point x="389" y="423"/>
      <point x="433" y="414"/>
      <point x="473" y="391" type="curve"/>
      <point x="473" y="484" type="line"/>
      <point x="397" y="521"/>
      <point x="354" y="534"/>
      <point x="304" y="534" type="curve" smooth="yes"/>
      <point x="146" y="534"/>
      <point x="44" y="433"/>
      <point x="44" y="275" type="curve" smooth="yes"/>
      <point x="44" y="90"/>
      <point x="134" y="-11"/>
    </contour>
    <contour>
      <point x="418" y="417" type="line"/>
      <point x="418" y="-231" type="line"/>
      <point x="550" y="-231" type="line"/>
      <point x="550" y="407" type="line"/>
      <point x="572" y="523" type="line"/>
      <point x="440" y="523" type="line"/>
    </contour>
  </outline>
</glyph>
<glyph name="s" format="1">
  <advance width="528"/>
  <unicode hex="0073"/>
  <outline>
    <contour>
      <point x="254" y="-12" type="curve" smooth="yes"/>
      <point x="389" y="-12"/>
      <point x="484" y="55"/>
      <point x="484" y="151" type="curve" smooth="yes"/>
      <point x="484" y="364"/>
      <point x="186" y="294"/>
      <point x="186" y="378" type="curve" smooth="yes"/>
      <point x="186" y="408"/>
      <point x="227" y="423"/>
      <point x="292" y="423" type="curve" smooth="yes"/>
      <point x="352" y="423"/>
      <point x="401" y="406"/>
      <point x="462" y="367" type="curve"/>
      <point x="462" y="489" type="line"/>
      <point x="402" y="521"/>
      <point x="349" y="534"/>
      <point x="281" y="534" type="curve" smooth="yes"/>
      <point x="143" y="534"/>
      <point x="54" y="474"/>
      <point x="54" y="380" type="curve" smooth="yes"/>
      <point x="54" y="175"/>
      <point x="352" y="248"/>
      <point x="352" y="152" type="curve" smooth="yes"/>
      <point x="352" y="116"/>
      <point x="314" y="99"/>
      <point x="242" y="99" type="curve" smooth="yes"/>
      <point x="168" y="99"/>
      <point x="111" y="122"/>
      <point x="44" y="169" type="curve"/>
      <point x="44" y="44" type="line"/>
      <point x="107" y="8"/>
      <point x="180" y="-12"/>
    </contour>
    <contour>
      <point x="264" y="638" type="move" name="top"/>
    </contour>
    <contour>
      <point x="264" y="-116" type="move" name="bottom"/>
    </contour>
  </outline>
</glyph>
<glyph name="t" format="1">
  <advance width="440"/>
  <unicode hex="0074"/>
  <outline>
    <contour>
      <point x="132" y="662" type="line"/>
      <point x="132" y="522" type="line"/>
      <point x="22" y="522" type="line"/>
      <point x="22" y="424" type="line"/>
      <point x="132" y="424" type="line"/>
      <point x="132" y="172" type="line" smooth="yes"/>
      <point x="132" y="48"/>
      <point x="187" y="-12"/>
      <point x="299" y="-12" type="curve" smooth="yes"/>
      <point x="342" y="-12"/>
      <point x="393" y="-4"/>
      <point x="418" y="6" type="curve"/>
      <point x="418" y="115" type="line"/>
      <point x="396" y="106"/>
      <point x="355" y="98"/>
      <point x="319" y="98" type="curve" smooth="yes"/>
      <point x="283" y="98"/>
      <point x="264" y="122"/>
      <point x="264" y="172" type="curve" smooth="yes"/>
      <point x="264" y="424" type="line"/>
      <point x="418" y="424" type="line"/>
      <point x="418" y="522" type="line"/>
      <point x="264" y="522" type="line"/>
      <point x="264" y="708" type="line"/>
    </contour>
    <contour>
      <point x="220" y="-116" type="move" name="bottom"/>
    </contour>
    <contour>
      <point x="430" y="638" type="move" name="caronalt"/>
    </contour>
  </outline>
</glyph>
<glyph name="u" format="1">
  <advance width="616"/>
  <unicode hex="0075"/>
  <outline>
    <contour>
      <point x="198" y="522" type="line"/>
      <point x="66" y="522" type="line"/>
      <point x="66" y="157" type="line" smooth="yes"/>
      <point x="66" y="59"/>
      <point x="137" y="-12"/>
      <point x="233" y="-12" type="curve" smooth="yes"/>
      <point x="301" y="-12"/>
      <point x="345" y="8"/>
      <point x="418" y="75" type="curve"/>
      <point x="418" y="188" type="line"/>
      <point x="365" y="128"/>
      <point x="325" y="105"/>
      <point x="276" y="105" type="curve" smooth="yes"/>
      <point x="225" y="105"/>
      <point x="198" y="148"/>
      <point x="198" y="232" type="curve" smooth="yes"/>
    </contour>
    <contour>
      <point x="528" y="522" type="line"/>
      <point x="396" y="522" type="line"/>
      <point x="396" y="116" type="line"/>
      <point x="429" y="0" type="line"/>
      <point x="550" y="0" type="line"/>
      <point x="528" y="116" type="line"/>
    </contour>
    <contour>
      <point x="308" y="638" type="move" name="top"/>
    </contour>
    <contour>
      <point x="308" y="-116" type="move" name="bottom"/>
    </contour>
    <contour>
      <point x="462" y="52" type="move" name="ogonek"/>
    </contour>
  </outline>
</glyph>
<glyph name="v" format="1">
  <advance width="594"/>
  <unicode hex="0076"/>
  <outline>
    <contour>
      <point x="337" y="0" type="line"/>
      <point x="156" y="522" type="line"/>
      <point x="22" y="522" type="line"/>
      <point x="215" y="0" type="line"/>
    </contour>
    <contour>
      <point x="379" y="0" type="line"/>
      <point x="572" y="522" type="line"/>
      <point x="442" y="522" type="line"/>
      <point x="261" y="0" type="line"/>
    </contour>
  </outline>
</glyph>
<glyph name="w" format="1">
  <advance width="880"/>
  <unicode hex="0077"/>
  <outline>
    <contour>
      <point x="304" y="0" type="line"/>
      <point x="156" y="522" type="line"/>
      <point x="22" y="522" type="line"/>
      <point x="182" y="0" type="line"/>
    </contour>
    <contour>
      <point x="340" y="0" type="line"/>
      <point x="488" y="522" type="line"/>
      <point x="374" y="522" type="line"/>
      <point x="228" y="0" type="line"/>
    </contour>
    <contour>
      <point x="656" y="0" type="line"/>
      <point x="508" y="522" type="line"/>
      <point x="390" y="522" type="line"/>
      <point x="540" y="0" type="line"/>
    </contour>
    <contour>
      <point x="698" y="0" type="line"/>
      <point x="857" y="522" type="line"/>
      <point x="727" y="522" type="line"/>
      <point x="580" y="0" type="line"/>
    </contour>
    <contour>
      <point x="440" y="638" type="move" name="top"/>
    </contour>
  </outline>
</glyph>
<glyph name="x" format="1">
  <advance width="572"/>
  <unicode hex="0078"/>
  <outline>
    <contour>
      <point x="572" y="0" type="line"/>
      <point x="168" y="522" type="line"/>
      <point x="22" y="522" type="line"/>
      <point x="426" y="0" type="line"/>
    </contour>
    <contour>
      <point x="238" y="310" type="line"/>
      <point x="0" y="0" type="line"/>
      <point x="139" y="0" type="line"/>
      <point x="322" y="244" type="line"/>
    </contour>
    <contour>
      <point x="335" y="241" type="line"/>
      <point x="550" y="522" type="line"/>
      <point x="411" y="522" type="line"/>
      <point x="251" y="307" type="line"/>
    </contour>
  </outline>
</glyph>
<glyph name="y" format="1">
  <advance width="594"/>
  <unicode hex="0079"/>
  <outline>
    <contour>
      <point x="354" y="0" type="line"/>
      <point x="156" y="522" type="line"/>
      <point x="22" y="522" type="line"/>
      <point x="233" y="-17" type="line"/>
    </contour>
    <contour>
      <point x="273" y="-232" type="line"/>
      <point x="571" y="522" type="line"/>
      <point x="439" y="522" type="line"/>
      <point x="268" y="50" type="line"/>
      <point x="260" y="50" type="line"/>
      <point x="148" y="-232" type="line"/>
    </contour>
    <contour>
      <point x="297" y="638" type="move" name="top"/>
    </contour>
  </outline>
</glyph>
<glyph name="z" format="1">
  <advance width="594"/>
  <unicode hex="007A"/>
  <outline>
    <contour>
      <point x="529" y="522" type="line"/>
      <point x="66" y="522" type="line"/>
      <point x="66" y="420" type="line"/>
      <point x="466" y="420" type="line"/>
      <point x="529" y="430" type="line"/>
    </contour>
    <contour>
      <point x="550" y="102" type="line"/>
      <point x="74" y="102" type="line"/>
      <point x="44" y="92" type="line"/>
      <point x="44" y="0" type="line"/>
      <point x="550" y="0" type="line"/>
    </contour>
    <contour>
      <point x="220" y="98" type="line"/>
      <point x="529" y="430" type="line"/>
      <point x="354" y="424" type="line"/>
      <point x="44" y="92" type="line"/>
    </contour>
    <contour>
      <point x="297" y="638" type="move" name="top"/>
    </contour>
    <contour>
      <point x="297" y="-116" type="move" name="bottom"/>
    </contour>
  </outline>
</glyph>
<glyph name="braceleft" format="1">
  <advance width="418"/>
  <unicode hex="007B"/>
  <outline>
    <contour>
      <point x="270" y="596" type="line" smooth="yes"/>
      <point x="270" y="650"/>
      <point x="294" y="703"/>
      <point x="342" y="703" type="curve" smooth="yes"/>
      <point x="374" y="703" type="line"/>
      <point x="374" y="812" type="line"/>
      <point x="290" y="812" type="line" smooth="yes"/>
      <point x="201" y="812"/>
      <point x="143" y="727"/>
      <point x="143" y="632" type="curve" smooth="yes"/>
      <point x="143" y="498" type="line" smooth="yes"/>
      <point x="143" y="431"/>
      <point x="110" y="395"/>
      <point x="44" y="395" type="curve"/>
      <point x="44" y="300" type="line"/>
      <point x="110" y="300"/>
      <point x="143" y="264"/>
      <point x="143" y="197" type="curve" smooth="yes"/>
      <point x="143" y="64" type="line" smooth="yes"/>
      <point x="143" y="-31"/>
      <point x="200" y="-116"/>
      <point x="289" y="-116" type="curve" smooth="yes"/>
      <point x="374" y="-116" type="line"/>
      <point x="374" y="-7" type="line"/>
      <point x="342" y="-7" type="line" smooth="yes"/>
      <point x="294" y="-7"/>
      <point x="270" y="46"/>
      <point x="270" y="100" type="curve" smooth="yes"/>
      <point x="270" y="207" type="line" smooth="yes"/>
      <point x="270" y="271"/>
      <point x="237" y="325"/>
      <point x="180" y="347" type="curve"/>
      <point x="237" y="370"/>
      <point x="270" y="423"/>
      <point x="270" y="488" type="curve" smooth="yes"/>
    </contour>
  </outline>
</glyph>
<glyph name="bar" format="1">
  <advance width="308"/>
  <unicode hex="007C"/>
  <outline>
    <contour>
      <point x="88" y="-116" type="line"/>
      <point x="220" y="-116" type="line"/>
      <point x="220" y="812" type="line"/>
      <point x="88" y="812" type="line"/>
    </contour>
  </outline>
</glyph>
<glyph name="braceright" format="1">
  <advance width="418"/>
  <unicode hex="007D"/>
  <outline>
    <contour>
      <point x="148" y="100" type="line" smooth="yes"/>
      <point x="148" y="46"/>
      <point x="124" y="-7"/>
      <point x="76" y="-7" type="curve" smooth="yes"/>
      <point x="44" y="-7" type="line"/>
      <point x="44" y="-116" type="line"/>
      <point x="128" y="-116" type="line" smooth="yes"/>
      <point x="217" y="-116"/>
      <point x="275" y="-31"/>
      <point x="275" y="64" type="curve" smooth="yes"/>
      <point x="275" y="198" type="line" smooth="yes"/>
      <point x="275" y="265"/>
      <point x="308" y="301"/>
      <point x="374" y="301" type="curve"/>
      <point x="374" y="396" type="line"/>
      <point x="308" y="396"/>
      <point x="275" y="432"/>
      <point x="275" y="499" type="curve" smooth="yes"/>
      <point x="275" y="632" type="line" smooth="yes"/>
      <point x="275" y="727"/>
      <point x="218" y="812"/>
      <point x="129" y="812" type="curve" smooth="yes"/>
      <point x="44" y="812" type="line"/>
      <point x="44" y="703" type="line"/>
      <point x="76" y="703" type="line" smooth="yes"/>
      <point x="124" y="703"/>
      <point x="148" y="650"/>
      <point x="148" y="596" type="curve" smooth="yes"/>
      <point x="148" y="489" type="line" smooth="yes"/>
      <point x="148" y="425"/>
      <point x="181" y="371"/>
      <point x="238" y="349" type="curve"/>
      <point x="181" y="326"/>
      <point x="148" y="273"/>
      <point x="148" y="208" type="curve" smooth="yes"/>
    </contour>
  </outline>
</glyph>
<glyph name="asciitilde" format="1">
  <advance width="528"/>
  <unicode hex="007E"/>
  <outline>
    <contour>
      <point x="355" y="239" type="curve" smooth="yes"/>
      <point x="396" y="239"/>
      <point x="438" y="249"/>
      <point x="484" y="281" type="curve"/>
      <point x="484" y="389" type="line"/>
      <point x="443" y="363"/>
      <point x="399" y="352"/>
      <point x="360" y="352" type="curve" smooth="yes"/>
      <point x="292" y="352"/>
      <point x="244" y="400"/>
      <point x="173" y="400" type="curve" smooth="yes"/>
      <point x="132" y="400"/>
      <point x="90" y="386"/>
      <point x="44" y="347" type="curve"/>
      <point x="44" y="239" type="line"/>
      <point x="85" y="273"/>
      <point x="129" y="287"/>
      <point x="168" y="287" type="curve" smooth="yes"/>
      <point x="236" y="287"/>
      <point x="282" y="239"/>
    </contour>
  </outline>
</glyph>
<glyph name="exclamdown" format="1">
  <advance width="308"/>
  <unicode hex="00A1"/>
  <outline>
    <contour>
      <point x="154" y="534" type="curve" smooth="yes"/>
      <point x="106" y="534"/>
      <point x="66" y="499"/>
      <point x="66" y="445" type="curve" smooth="yes"/>
      <point x="66" y="391"/>
      <point x="106" y="356"/>
      <point x="154" y="356" type="curve" smooth="yes"/>
      <point x="202" y="356"/>
      <point x="242" y="391"/>
      <point x="242" y="445" type="curve" smooth="yes"/>
      <point x="242" y="499"/>
      <point x="202" y="534"/>
    </contour>
    <contour>
      <point x="88" y="268" type="line"/>
      <point x="88" y="-232" type="line"/>
      <point x="220" y="-232" type="line"/>
      <point x="220" y="268" type="line"/>
    </contour>
  </outline>
</glyph>
<glyph name="currency" format="1">
  <advance width="594"/>
  <unicode hex="00A4"/>
  <outline>
    <contour>
      <point x="67" y="329" type="curve" smooth="yes"/>
      <point x="67" y="193"/>
      <point x="161" y="101"/>
      <point x="298" y="101" type="curve" smooth="yes"/>
      <point x="434" y="101"/>
      <point x="527" y="193"/>
      <point x="527" y="329" type="curve" smooth="yes"/>
      <point x="527" y="466"/>
      <point x="434" y="562"/>
      <point x="298" y="562" type="curve" smooth="yes"/>
      <point x="161" y="562"/>
      <point x="67" y="466"/>
    </contour>
    <contour>
      <point x="176" y="332" type="curve" smooth="yes"/>
      <point x="176" y="409"/>
      <point x="229" y="456"/>
      <point x="298" y="456" type="curve" smooth="yes"/>
      <point x="367" y="456"/>
      <point x="417" y="409"/>
      <point x="417" y="332" type="curve" smooth="yes"/>
      <point x="417" y="254"/>
      <point x="368" y="203"/>
      <point x="298" y="203" type="curve" smooth="yes"/>
      <point x="228" y="203"/>
      <point x="176" y="255"/>
    </contour>
    <contour>
      <point x="147" y="412" type="line"/>
      <point x="217" y="482" type="line"/>
      <point x="88" y="612" type="line"/>
      <point x="17" y="541" type="line"/>
    </contour>
    <contour>
      <point x="578" y="541" type="line"/>
      <point x="507" y="612" type="line"/>
      <point x="386" y="491" type="line"/>
      <point x="457" y="420" type="line"/>
    </contour>
    <contour>
      <point x="507" y="51" type="line"/>
      <point x="578" y="122" type="line"/>
      <point x="448" y="251" type="line"/>
      <point x="378" y="181" type="line"/>
    </contour>
    <contour>
      <point x="209" y="172" type="line"/>
      <point x="138" y="243" type="line"/>
      <point x="17" y="122" type="line"/>
      <point x="88" y="51" type="line"/>
    </contour>
  </outline>
</glyph>
<glyph name="yen" format="1">
  <advance width="594"/>
  <unicode hex="00A5"/>
  <outline>
    <contour>
      <point x="231" y="240" type="line"/>
      <point x="231" y="0" type="line"/>
      <point x="363" y="0" type="line"/>
      <point x="363" y="240" type="line"/>
      <point x="594" y="696" type="line"/>
      <point x="452" y="696" type="line"/>
      <point x="297" y="367" type="line"/>
      <point x="147" y="696" type="line"/>
      <point x="0" y="696" type="line"/>
    </contour>
    <contour>
      <point x="88" y="82" type="line"/>
      <point x="506" y="82" type="line"/>
      <point x="506" y="174" type="line"/>
      <point x="88" y="174" type="line"/>
    </contour>
    <contour>
      <point x="88" y="226" type="line"/>
      <point x="506" y="226" type="line"/>
      <point x="506" y="318" type="line"/>
      <point x="88" y="318" type="line"/>
    </contour>
  </outline>
</glyph>
<glyph name="brokenbar" format="1">
  <advance width="308"/>
  <unicode hex="00A6"/>
  <outline>
    <contour>
      <point x="88" y="-116" type="line"/>
      <point x="220" y="-116" type="line"/>
      <point x="220" y="291" type="line"/>
      <point x="88" y="291" type="line"/>
    </contour>
    <contour>
      <point x="88" y="406" type="line"/>
      <point x="220" y="406" type="line"/>
      <point x="220" y="813" type="line"/>
      <point x="88" y="813" type="line"/>
    </contour>
  </outline>
</glyph>
<glyph name="section" format="1">
  <advance width="550"/>
  <unicode hex="00A7"/>
  <outline>
    <contour>
      <point x="435" y="82" type="line"/>
      <point x="477" y="116"/>
      <point x="506" y="167"/>
      <point x="506" y="240" type="curve" smooth="yes"/>
      <point x="506" y="453"/>
      <point x="179" y="421"/>
      <point x="179" y="531" type="curve" smooth="yes"/>
      <point x="179" y="570"/>
      <point x="221" y="594"/>
      <point x="294" y="594" type="curve" smooth="yes"/>
      <point x="353" y="594"/>
      <point x="430" y="578"/>
      <point x="507" y="538" type="curve"/>
      <point x="507" y="663" type="line"/>
      <point x="441" y="692"/>
      <point x="365" y="708"/>
      <point x="288" y="708" type="curve" smooth="yes"/>
      <point x="135" y="708"/>
      <point x="44" y="646"/>
      <point x="44" y="525" type="curve" smooth="yes"/>
      <point x="44" y="297"/>
      <point x="370" y="341"/>
      <point x="370" y="208" type="curve" smooth="yes"/>
      <point x="370" y="180"/>
      <point x="355" y="159"/>
      <point x="329" y="144" type="curve"/>
    </contour>
    <contour>
      <point x="115" y="452" type="line"/>
      <point x="72" y="417"/>
      <point x="44" y="367"/>
      <point x="44" y="294" type="curve" smooth="yes"/>
      <point x="44" y="77"/>
      <point x="371" y="112"/>
      <point x="371" y="-2" type="curve" smooth="yes"/>
      <point x="371" y="-41"/>
      <point x="332" y="-60"/>
      <point x="261" y="-60" type="curve" smooth="yes"/>
      <point x="193" y="-60"/>
      <point x="120" y="-43"/>
      <point x="44" y="-4" type="curve"/>
      <point x="44" y="-129" type="line"/>
      <point x="108" y="-158"/>
      <point x="186" y="-174"/>
      <point x="263" y="-174" type="curve" smooth="yes"/>
      <point x="416" y="-174"/>
      <point x="506" y="-112"/>
      <point x="506" y="7" type="curve" smooth="yes"/>
      <point x="506" y="234"/>
      <point x="180" y="183"/>
      <point x="180" y="316" type="curve" smooth="yes"/>
      <point x="180" y="342"/>
      <point x="192" y="371"/>
      <point x="221" y="390" type="curve"/>
    </contour>
  </outline>
</glyph>
<glyph name="dieresis" format="1">
  <advance width="484"/>
  <unicode hex="00A8"/>
  <outline>
    <contour>
      <point x="124" y="607" type="curve" smooth="yes"/>
      <point x="174" y="607"/>
      <point x="205" y="637"/>
      <point x="205" y="687" type="curve" smooth="yes"/>
      <point x="205" y="737"/>
      <point x="174" y="766"/>
      <point x="124" y="766" type="curve" smooth="yes"/>
      <point x="75" y="766"/>
      <point x="44" y="737"/>
      <point x="44" y="687" type="curve" smooth="yes"/>
      <point x="44" y="637"/>
      <point x="75" y="607"/>
    </contour>
    <contour>
      <point x="359" y="607" type="curve" smooth="yes"/>
      <point x="409" y="607"/>
      <point x="440" y="637"/>
      <point x="440" y="687" type="curve" smooth="yes"/>
      <point x="440" y="737"/>
      <point x="409" y="766"/>
      <point x="359" y="766" type="curve" smooth="yes"/>
      <point x="310" y="766"/>
      <point x="279" y="737"/>
      <point x="279" y="687" type="curve" smooth="yes"/>
      <point x="279" y="637"/>
      <point x="310" y="607"/>
    </contour>
    <contour>
      <point x="242" y="638" type="move" name="_top"/>
    </contour>
  </outline>
</glyph>
<glyph name="copyright" format="1">
  <advance width="858"/>
  <unicode hex="00A9"/>
  <outline>
    <contour>
      <point x="66" y="344" type="curve" smooth="yes"/>
      <point x="66" y="134"/>
      <point x="219" y="-12"/>
      <point x="433" y="-12" type="curve" smooth="yes"/>
      <point x="643" y="-12"/>
      <point x="792" y="134"/>
      <point x="792" y="344" type="curve" smooth="yes"/>
      <point x="792" y="558"/>
      <point x="643" y="708"/>
      <point x="433" y="708" type="curve" smooth="yes"/>
      <point x="219" y="708"/>
      <point x="66" y="558"/>
    </contour>
    <contour>
      <point x="164" y="344" type="curve" smooth="yes"/>
      <point x="164" y="508"/>
      <point x="276" y="620"/>
      <point x="433" y="620" type="curve" smooth="yes"/>
      <point x="585" y="620"/>
      <point x="694" y="508"/>
      <point x="694" y="344" type="curve" smooth="yes"/>
      <point x="694" y="183"/>
      <point x="585" y="76"/>
      <point x="433" y="76" type="curve" smooth="yes"/>
      <point x="276" y="76"/>
      <point x="164" y="183"/>
    </contour>
    <contour>
      <point x="440" y="453" type="curve" smooth="yes"/>
      <point x="485" y="453"/>
      <point x="518" y="440"/>
      <point x="553" y="410" type="curve"/>
      <point x="557" y="410" type="line"/>
      <point x="557" y="519" type="line"/>
      <point x="519" y="551"/>
      <point x="479" y="558"/>
      <point x="430" y="558" type="curve" smooth="yes"/>
      <point x="313" y="558"/>
      <point x="243" y="468"/>
      <point x="243" y="347" type="curve" smooth="yes"/>
      <point x="243" y="226"/>
      <point x="313" y="138"/>
      <point x="429" y="138" type="curve" smooth="yes"/>
      <point x="483" y="138"/>
      <point x="526" y="150"/>
      <point x="565" y="187" type="curve"/>
      <point x="565" y="296" type="line"/>
      <point x="561" y="296" type="line"/>
      <point x="525" y="260"/>
      <point x="489" y="243"/>
      <point x="439" y="243" type="curve" smooth="yes"/>
      <point x="387" y="243"/>
      <point x="359" y="288"/>
      <point x="359" y="346" type="curve" smooth="yes"/>
      <point x="359" y="406"/>
      <point x="386" y="453"/>
    </contour>
  </outline>
</glyph>
<glyph name="ordfeminine" format="1">
  <advance width="330"/>
  <unicode hex="00AA"/>
  <outline>
    <contour>
      <point x="148" y="420" type="curve" smooth="yes"/>
      <point x="195" y="420"/>
      <point x="230" y="444"/>
      <point x="259" y="483" type="curve"/>
      <point x="259" y="536" type="line"/>
      <point x="232" y="505"/>
      <point x="199" y="486"/>
      <point x="162" y="486" type="curve" smooth="yes"/>
      <point x="142" y="486"/>
      <point x="133" y="494"/>
      <point x="133" y="506" type="curve" smooth="yes"/>
      <point x="133" y="527"/>
      <point x="156" y="537"/>
      <point x="182" y="537" type="curve" smooth="yes"/>
      <point x="259" y="537" type="line"/>
      <point x="259" y="590" type="line"/>
      <point x="232" y="593"/>
      <point x="208" y="594"/>
      <point x="192" y="594" type="curve" smooth="yes"/>
      <point x="106" y="594"/>
      <point x="44" y="573"/>
      <point x="44" y="507" type="curve" smooth="yes"/>
      <point x="44" y="453"/>
      <point x="85" y="420"/>
    </contour>
    <contour>
      <point x="246" y="427" type="line"/>
      <point x="319" y="427" type="line"/>
      <point x="308" y="488" type="line"/>
      <point x="308" y="609" type="line" smooth="yes"/>
      <point x="308" y="669"/>
      <point x="261" y="708"/>
      <point x="180" y="708" type="curve" smooth="yes"/>
      <point x="140" y="708"/>
      <point x="100" y="699"/>
      <point x="67" y="678" type="curve"/>
      <point x="67" y="605" type="line"/>
      <point x="103" y="627"/>
      <point x="137" y="639"/>
      <point x="173" y="639" type="curve" smooth="yes"/>
      <point x="207" y="639"/>
      <point x="223" y="624"/>
      <point x="223" y="603" type="curve" smooth="yes"/>
      <point x="223" y="488" type="line"/>
    </contour>
  </outline>
</glyph>
<glyph name="guillemotleft" format="1">
  <advance width="572"/>
  <unicode hex="00AB"/>
  <outline>
    <contour>
      <point x="149" y="267" type="line"/>
      <point x="330" y="464" type="line"/>
      <point x="187" y="464" type="line"/>
      <point x="0" y="267" type="line"/>
      <point x="0" y="263" type="line"/>
      <point x="177" y="58" type="line"/>
      <point x="330" y="58" type="line"/>
      <point x="149" y="263" type="line"/>
    </contour>
    <contour>
      <point x="391" y="267" type="line"/>
      <point x="572" y="464" type="line"/>
      <point x="429" y="464" type="line"/>
      <point x="242" y="267" type="line"/>
      <point x="242" y="263" type="line"/>
      <point x="419" y="58" type="line"/>
      <point x="572" y="58" type="line"/>
      <point x="391" y="263" type="line"/>
    </contour>
  </outline>
</glyph>
<glyph name="logicalnot" format="1">
  <advance width="550"/>
  <unicode hex="00AC"/>
  <outline>
    <contour>
      <point x="66" y="275" type="line"/>
      <point x="374" y="275" type="line"/>
      <point x="374" y="138" type="line"/>
      <point x="506" y="138" type="line"/>
      <point x="506" y="384" type="line"/>
      <point x="66" y="384" type="line"/>
    </contour>
  </outline>
</glyph>
<glyph name="uni00AD" format="1">
  <advance width="506"/>
  <unicode hex="00AD"/>
  <outline>
    <contour>
      <point x="66" y="217" type="line"/>
      <point x="440" y="217" type="line"/>
      <point x="440" y="323" type="line"/>
      <point x="66" y="323" type="line"/>
    </contour>
  </outline>
</glyph>
<glyph name="registered" format="1">
  <advance width="682"/>
  <unicode hex="00AE"/>
  <outline>
    <contour>
      <point x="66" y="433" type="curve" smooth="yes"/>
      <point x="66" y="272"/>
      <point x="182" y="162"/>
      <point x="343" y="162" type="curve" smooth="yes"/>
      <point x="504" y="162"/>
      <point x="616" y="271"/>
      <point x="616" y="433" type="curve" smooth="yes"/>
      <point x="616" y="595"/>
      <point x="504" y="708"/>
      <point x="343" y="708" type="curve" smooth="yes"/>
      <point x="182" y="708"/>
      <point x="66" y="594"/>
    </contour>
    <contour>
      <point x="138" y="433" type="curve" smooth="yes"/>
      <point x="138" y="558"/>
      <point x="223" y="642"/>
      <point x="343" y="642" type="curve" smooth="yes"/>
      <point x="463" y="642"/>
      <point x="545" y="558"/>
      <point x="545" y="433" type="curve" smooth="yes"/>
      <point x="545" y="309"/>
      <point x="464" y="229"/>
      <point x="343" y="229" type="curve" smooth="yes"/>
      <point x="222" y="229"/>
      <point x="138" y="309"/>
    </contour>
    <contour>
      <point x="238" y="587" type="line"/>
      <point x="238" y="287" type="line"/>
      <point x="308" y="287" type="line"/>
      <point x="308" y="383" type="line"/>
      <point x="358" y="383" type="line" smooth="yes"/>
      <point x="433" y="383"/>
      <point x="473" y="426"/>
      <point x="473" y="490" type="curve" smooth="yes"/>
      <point x="473" y="554"/>
      <point x="434" y="587"/>
      <point x="353" y="587" type="curve" smooth="yes"/>
    </contour>
    <contour>
      <point x="353" y="519" type="line" smooth="yes"/>
      <point x="386" y="519"/>
      <point x="401" y="512"/>
      <point x="401" y="486" type="curve" smooth="yes"/>
      <point x="401" y="460"/>
      <point x="386" y="450"/>
      <point x="353" y="450" type="curve" smooth="yes"/>
      <point x="308" y="450" type="line"/>
      <point x="308" y="519" type="line"/>
    </contour>
    <contour>
      <point x="472" y="287" type="line"/>
      <point x="400" y="422" type="line"/>
      <point x="332" y="403" type="line"/>
      <point x="394" y="287" type="line"/>
    </contour>
  </outline>
</glyph>
<glyph name="macron" format="1">
  <advance width="462"/>
  <unicode hex="00AF"/>
  <outline>
    <contour>
      <point x="44" y="652" type="line"/>
      <point x="418" y="652" type="line"/>
      <point x="418" y="754" type="line"/>
      <point x="44" y="754" type="line"/>
    </contour>
    <contour>
      <point x="231" y="638" type="move" name="_top"/>
    </contour>
  </outline>
</glyph>
<glyph name="degree" format="1">
  <advance width="374"/>
  <unicode hex="00B0"/>
  <outline>
    <contour>
      <point x="44" y="562" type="curve" smooth="yes"/>
      <point x="44" y="478"/>
      <point x="103" y="420"/>
      <point x="188" y="420" type="curve" smooth="yes"/>
      <point x="272" y="420"/>
      <point x="330" y="478"/>
      <point x="330" y="562" type="curve" smooth="yes"/>
      <point x="330" y="647"/>
      <point x="272" y="707"/>
      <point x="188" y="707" type="curve" smooth="yes"/>
      <point x="103" y="707"/>
      <point x="44" y="647"/>
    </contour>
    <contour>
      <point x="127" y="564" type="curve" smooth="yes"/>
      <point x="127" y="602"/>
      <point x="153" y="626"/>
      <point x="188" y="626" type="curve" smooth="yes"/>
      <point x="222" y="626"/>
      <point x="246" y="602"/>
      <point x="246" y="564" type="curve" smooth="yes"/>
      <point x="246" y="526"/>
      <point x="222" y="500"/>
      <point x="188" y="500" type="curve" smooth="yes"/>
      <point x="152" y="500"/>
      <point x="127" y="526"/>
    </contour>
  </outline>
</glyph>
<glyph name="acute" format="1">
  <advance width="352"/>
  <unicode hex="00B4"/>
  <outline>
    <contour>
      <point x="234" y="825" type="line"/>
      <point x="44" y="652" type="line"/>
      <point x="95" y="594" type="line"/>
      <point x="308" y="721" type="line"/>
    </contour>
    <contour>
      <point x="176" y="638" type="move" name="_top"/>
    </contour>
  </outline>
</glyph>
<glyph name="paragraph" format="1">
  <advance width="682"/>
  <unicode hex="00B6"/>
  <outline>
    <contour>
      <point x="440" y="696" type="line"/>
      <point x="282" y="696" type="line" smooth="yes"/>
      <point x="108" y="696"/>
      <point x="22" y="620"/>
      <point x="22" y="468" type="curve" smooth="yes"/>
      <point x="22" y="314"/>
      <point x="110" y="232"/>
      <point x="275" y="232" type="curve" smooth="yes"/>
      <point x="308" y="232" type="line"/>
      <point x="308" y="-116" type="line"/>
      <point x="440" y="-116" type="line"/>
    </contour>
    <contour>
      <point x="506" y="-116" type="line"/>
      <point x="638" y="-116" type="line"/>
      <point x="638" y="696" type="line"/>
      <point x="506" y="696" type="line"/>
    </contour>
  </outline>
</glyph>
<glyph name="cedilla" format="1">
  <advance width="352"/>
  <unicode hex="00B8"/>
  <outline>
    <contour>
      <point x="170" y="-244" type="curve" smooth="yes"/>
      <point x="238" y="-244"/>
      <point x="308" y="-218"/>
      <point x="308" y="-144" type="curve" smooth="yes"/>
      <point x="308" y="-84"/>
      <point x="263" y="-47"/>
      <point x="190" y="-47" type="curve"/>
      <point x="210" y="22" type="line"/>
      <point x="111" y="22" type="line"/>
      <point x="77" y="-102" type="line"/>
      <point x="80" y="-105" type="line"/>
      <point x="109" y="-105" type="line" smooth="yes"/>
      <point x="177" y="-105"/>
      <point x="198" y="-119"/>
      <point x="198" y="-141" type="curve" smooth="yes"/>
      <point x="198" y="-160"/>
      <point x="181" y="-170"/>
      <point x="148" y="-170" type="curve" smooth="yes"/>
      <point x="114" y="-170"/>
      <point x="79" y="-162"/>
      <point x="48" y="-140" type="curve"/>
      <point x="44" y="-140" type="line"/>
      <point x="44" y="-218" type="line"/>
      <point x="80" y="-236"/>
      <point x="128" y="-244"/>
    </contour>
    <contour>
      <point x="176" y="-116" type="move" name="_bottom"/>
    </contour>
  </outline>
</glyph>
<glyph name="ordmasculine" format="1">
  <advance width="352"/>
  <unicode hex="00BA"/>
  <outline>
    <contour>
      <point x="176" y="420" type="curve" smooth="yes"/>
      <point x="269" y="420"/>
      <point x="319" y="479"/>
      <point x="319" y="564" type="curve" smooth="yes"/>
      <point x="319" y="649"/>
      <point x="269" y="708"/>
      <point x="176" y="708" type="curve" smooth="yes"/>
      <point x="83" y="708"/>
      <point x="33" y="649"/>
      <point x="33" y="564" type="curve" smooth="yes"/>
      <point x="33" y="479"/>
      <point x="83" y="420"/>
    </contour>
    <contour>
      <point x="177" y="488" type="curve" smooth="yes"/>
      <point x="138" y="488"/>
      <point x="122" y="522"/>
      <point x="122" y="564" type="curve" smooth="yes"/>
      <point x="122" y="605"/>
      <point x="138" y="640"/>
      <point x="177" y="640" type="curve" smooth="yes"/>
      <point x="214" y="640"/>
      <point x="230" y="606"/>
      <point x="230" y="564" type="curve" smooth="yes"/>
      <point x="230" y="521"/>
      <point x="214" y="488"/>
    </contour>
  </outline>
</glyph>
<glyph name="guillemotright" format="1">
  <advance width="572"/>
  <unicode hex="00BB"/>
  <outline>
    <contour>
      <point x="423" y="255" type="line"/>
      <point x="242" y="58" type="line"/>
      <point x="385" y="58" type="line"/>
      <point x="572" y="255" type="line"/>
      <point x="572" y="259" type="line"/>
      <point x="395" y="464" type="line"/>
      <point x="242" y="464" type="line"/>
      <point x="423" y="259" type="line"/>
    </contour>
    <contour>
      <point x="181" y="255" type="line"/>
      <point x="0" y="58" type="line"/>
      <point x="143" y="58" type="line"/>
      <point x="330" y="255" type="line"/>
      <point x="330" y="259" type="line"/>
      <point x="153" y="464" type="line"/>
      <point x="0" y="464" type="line"/>
      <point x="181" y="259" type="line"/>
    </contour>
  </outline>
</glyph>
<glyph name="questiondown" format="1">
  <advance width="550"/>
  <unicode hex="00BF"/>
  <outline>
    <contour>
      <point x="314" y="-244" type="curve"/>
      <point x="388" y="-244"/>
      <point x="447" y="-228"/>
      <point x="506" y="-189" type="curve"/>
      <point x="506" y="-71" type="line"/>
      <point x="502" y="-71" type="line"/>
      <point x="446" y="-108"/>
      <point x="393" y="-128"/>
      <point x="322" y="-128" type="curve" smooth="yes"/>
      <point x="229" y="-128"/>
      <point x="178" y="-93"/>
      <point x="178" y="-34" type="curve" smooth="yes"/>
      <point x="178" y="37"/>
      <point x="250" y="84"/>
      <point x="396" y="84" type="curve"/>
      <point x="396" y="188" type="line"/>
      <point x="310" y="188" type="line" smooth="yes"/>
      <point x="164" y="188"/>
      <point x="44" y="98"/>
      <point x="44" y="-38" type="curve" smooth="yes"/>
      <point x="44" y="-168"/>
      <point x="154" y="-244"/>
    </contour>
    <contour>
      <point x="264" y="268" type="line"/>
      <point x="264" y="123" type="line"/>
      <point x="396" y="123" type="line"/>
      <point x="396" y="268" type="line"/>
    </contour>
    <contour>
      <point x="331" y="534" type="curve" smooth="yes"/>
      <point x="283" y="534"/>
      <point x="243" y="499"/>
      <point x="243" y="445" type="curve" smooth="yes"/>
      <point x="243" y="391"/>
      <point x="283" y="356"/>
      <point x="331" y="356" type="curve" smooth="yes"/>
      <point x="379" y="356"/>
      <point x="419" y="391"/>
      <point x="419" y="445" type="curve" smooth="yes"/>
      <point x="419" y="499"/>
      <point x="379" y="534"/>
    </contour>
  </outline>
</glyph>
<glyph name="AE" format="1">
  <advance width="924"/>
  <unicode hex="00C6"/>
  <outline>
    <contour>
      <point x="451" y="0" type="line"/>
      <point x="880" y="0" type="line"/>
      <point x="880" y="117" type="line"/>
      <point x="583" y="117" type="line"/>
      <point x="583" y="297" type="line"/>
      <point x="858" y="297" type="line"/>
      <point x="858" y="407" type="line"/>
      <point x="583" y="407" type="line"/>
      <point x="583" y="579" type="line"/>
      <point x="880" y="579" type="line"/>
      <point x="880" y="696" type="line"/>
      <point x="361" y="696" type="line"/>
      <point x="0" y="0" type="line"/>
      <point x="140" y="0" type="line"/>
      <point x="225" y="161" type="line"/>
      <point x="451" y="161" type="line"/>
    </contour>
    <contour>
      <point x="280" y="269" type="line"/>
      <point x="451" y="595" type="line"/>
      <point x="451" y="269" type="line"/>
    </contour>
    <contour>
      <point x="462" y="783" type="move" name="topUC"/>
    </contour>
  </outline>
</glyph>
<glyph name="Eth" format="1">
  <advance width="748"/>
  <unicode hex="00D0"/>
  <outline>
    <contour>
      <point x="22" y="308" type="line"/>
      <point x="88" y="308" type="line"/>
      <point x="88" y="0" type="line"/>
      <point x="365" y="0" type="line" smooth="yes"/>
      <point x="586" y="0"/>
      <point x="704" y="133"/>
      <point x="704" y="348" type="curve" smooth="yes"/>
      <point x="704" y="563"/>
      <point x="586" y="696"/>
      <point x="365" y="696" type="curve" smooth="yes"/>
      <point x="88" y="696" type="line"/>
      <point x="88" y="428" type="line"/>
      <point x="22" y="428" type="line"/>
    </contour>
    <contour>
      <point x="372" y="579" type="line" smooth="yes"/>
      <point x="504" y="579"/>
      <point x="565" y="487"/>
      <point x="565" y="348" type="curve" smooth="yes"/>
      <point x="565" y="209"/>
      <point x="504" y="117"/>
      <point x="372" y="117" type="curve" smooth="yes"/>
      <point x="220" y="117" type="line"/>
      <point x="220" y="308" type="line"/>
      <point x="374" y="308" type="line"/>
      <point x="374" y="428" type="line"/>
      <point x="220" y="428" type="line"/>
      <point x="220" y="579" type="line"/>
    </contour>
  </outline>
</glyph>
<glyph name="multiply" format="1">
  <advance width="594"/>
  <unicode hex="00D7"/>
  <outline>
    <contour>
      <point x="142" y="103" type="line"/>
      <point x="535" y="518" type="line"/>
      <point x="452" y="601" type="line"/>
      <point x="59" y="186" type="line"/>
    </contour>
    <contour>
      <point x="535" y="186" type="line"/>
      <point x="142" y="601" type="line"/>
      <point x="59" y="518" type="line"/>
      <point x="452" y="103" type="line"/>
    </contour>
  </outline>
</glyph>
<glyph name="Oslash" format="1">
  <advance width="770"/>
  <unicode hex="00D8"/>
  <outline>
    <contour>
      <point x="385" y="-12" type="curve" smooth="yes"/>
      <point x="602" y="-12"/>
      <point x="726" y="129"/>
      <point x="726" y="348" type="curve" smooth="yes"/>
      <point x="726" y="567"/>
      <point x="602" y="708"/>
      <point x="385" y="708" type="curve" smooth="yes"/>
      <point x="168" y="708"/>
      <point x="44" y="567"/>
      <point x="44" y="348" type="curve" smooth="yes"/>
      <point x="44" y="129"/>
      <point x="168" y="-12"/>
    </contour>
    <contour>
      <point x="385" y="110" type="curve" smooth="yes"/>
      <point x="261" y="110"/>
      <point x="183" y="193"/>
      <point x="183" y="348" type="curve" smooth="yes"/>
      <point x="183" y="503"/>
      <point x="261" y="586"/>
      <point x="385" y="586" type="curve" smooth="yes"/>
      <point x="509" y="586"/>
      <point x="587" y="503"/>
      <point x="587" y="348" type="curve" smooth="yes"/>
      <point x="587" y="193"/>
      <point x="509" y="110"/>
    </contour>
    <contour>
      <point x="22" y="0" type="line"/>
      <point x="176" y="0" type="line"/>
      <point x="748" y="696" type="line"/>
      <point x="594" y="696" type="line"/>
    </contour>
    <contour>
      <point x="385" y="783" type="move" name="topUC"/>
    </contour>
  </outline>
</glyph>
<glyph name="Thorn" format="1">
  <advance width="704"/>
  <unicode hex="00DE"/>
  <outline>
    <contour>
      <point x="88" y="0" type="line"/>
      <point x="220" y="0" type="line"/>
      <point x="220" y="115" type="line"/>
      <point x="407" y="115" type="line" smooth="yes"/>
      <point x="572" y="115"/>
      <point x="660" y="197"/>
      <point x="660" y="351" type="curve" smooth="yes"/>
      <point x="660" y="503"/>
      <point x="574" y="579"/>
      <point x="400" y="579" type="curve" smooth="yes"/>
      <point x="220" y="579" type="line"/>
      <point x="220" y="696" type="line"/>
      <point x="88" y="696" type="line"/>
    </contour>
    <contour>
      <point x="220" y="230" type="line"/>
      <point x="220" y="462" type="line"/>
      <point x="378" y="462" type="line" smooth="yes"/>
      <point x="482" y="462"/>
      <point x="521" y="430"/>
      <point x="521" y="347" type="curve" smooth="yes"/>
      <point x="521" y="264"/>
      <point x="481" y="230"/>
      <point x="382" y="230" type="curve" smooth="yes"/>
    </contour>
  </outline>
</glyph>
<glyph name="germandbls" format="1">
  <advance width="682"/>
  <unicode hex="00DF"/>
  <outline>
    <contour>
      <point x="406" y="418" type="curve" smooth="yes"/>
      <point x="406" y="392"/>
      <point x="431" y="375"/>
      <point x="484" y="346" type="curve" smooth="yes"/>
      <point x="588" y="289"/>
      <point x="638" y="257"/>
      <point x="638" y="167" type="curve" smooth="yes"/>
      <point x="638" y="32"/>
      <point x="525" y="-12"/>
      <point x="429" y="-12" type="curve" smooth="yes"/>
      <point x="373" y="-12"/>
      <point x="322" y="3"/>
      <point x="264" y="44" type="curve"/>
      <point x="264" y="169" type="line"/>
      <point x="324" y="119"/>
      <point x="373" y="99"/>
      <point x="422" y="99" type="curve" smooth="yes"/>
      <point x="466" y="99"/>
      <point x="506" y="115"/>
      <point x="506" y="167" type="curve" smooth="yes"/>
      <point x="506" y="202"/>
      <point x="487" y="212"/>
      <point x="402" y="255" type="curve" smooth="yes"/>
      <point x="331" y="291"/>
      <point x="274" y="327"/>
      <point x="274" y="408" type="curve" smooth="yes"/>
      <point x="274" y="520"/>
      <point x="385" y="532"/>
      <point x="385" y="602" type="curve" smooth="yes"/>
      <point x="385" y="638"/>
      <point x="356" y="657"/>
      <point x="312" y="657" type="curve" smooth="yes"/>
      <point x="246" y="657"/>
      <point x="220" y="613"/>
      <point x="220" y="559" type="curve" smooth="yes"/>
      <point x="220" y="0" type="line"/>
      <point x="88" y="0" type="line"/>
      <point x="88" y="582" type="line" smooth="yes"/>
      <point x="88" y="695"/>
      <point x="160" y="768"/>
      <point x="303" y="768" type="curve" smooth="yes"/>
      <point x="444" y="768"/>
      <point x="517" y="697"/>
      <point x="517" y="612" type="curve" smooth="yes"/>
      <point x="517" y="508"/>
      <point x="406" y="471"/>
    </contour>
  </outline>
</glyph>
<glyph name="ae" format="1">
  <advance width="946"/>
  <unicode hex="00E6"/>
  <outline>
    <contour>
      <point x="680" y="-12" type="curve" smooth="yes"/>
      <point x="751" y="-12"/>
      <point x="814" y="6"/>
      <point x="880" y="49" type="curve"/>
      <point x="880" y="170" type="line"/>
      <point x="876" y="170" type="line"/>
      <point x="812" y="123"/>
      <point x="750" y="97"/>
      <point x="681" y="97" type="curve" smooth="yes"/>
      <point x="589" y="97"/>
      <point x="540" y="143"/>
      <point x="531" y="209" type="curve"/>
      <point x="902" y="209" type="line"/>
      <point x="902" y="261" type="line" smooth="yes"/>
      <point x="902" y="415"/>
      <point x="813" y="534"/>
      <point x="653" y="534" type="curve" smooth="yes"/>
      <point x="577" y="534"/>
      <point x="517" y="507"/>
      <point x="477" y="463" type="curve"/>
      <point x="437" y="515"/>
      <point x="381" y="534"/>
      <point x="302" y="534" type="curve" smooth="yes"/>
      <point x="232" y="534"/>
      <point x="156" y="519"/>
      <point x="88" y="467" type="curve"/>
      <point x="88" y="349" type="line"/>
      <point x="148" y="394"/>
      <point x="219" y="424"/>
      <point x="288" y="424" type="curve" smooth="yes"/>
      <point x="363" y="424"/>
      <point x="396" y="388"/>
      <point x="396" y="336" type="curve" smooth="yes"/>
      <point x="396" y="322" type="line"/>
      <point x="367" y="326"/>
      <point x="340" y="328"/>
      <point x="311" y="328" type="curve" smooth="yes"/>
      <point x="168" y="328"/>
      <point x="44" y="279"/>
      <point x="44" y="150" type="curve" smooth="yes"/>
      <point x="44" y="49"/>
      <point x="120" y="-12"/>
      <point x="245" y="-12" type="curve" smooth="yes"/>
      <point x="336" y="-12"/>
      <point x="412" y="20"/>
      <point x="470" y="74" type="curve"/>
      <point x="515" y="20"/>
      <point x="586" y="-12"/>
    </contour>
    <contour>
      <point x="262" y="95" type="curve" smooth="yes"/>
      <point x="210" y="95"/>
      <point x="183" y="117"/>
      <point x="183" y="155" type="curve" smooth="yes"/>
      <point x="183" y="210"/>
      <point x="242" y="228"/>
      <point x="306" y="228" type="curve" smooth="yes"/>
      <point x="396" y="228" type="line"/>
      <point x="398" y="202"/>
      <point x="402" y="178"/>
      <point x="410" y="156" type="curve"/>
      <point x="367" y="121"/>
      <point x="318" y="95"/>
    </contour>
    <contour>
      <point x="653" y="428" type="curve" smooth="yes"/>
      <point x="726" y="428"/>
      <point x="760" y="376"/>
      <point x="767" y="310" type="curve"/>
      <point x="532" y="310" type="line"/>
      <point x="540" y="375"/>
      <point x="579" y="428"/>
    </contour>
    <contour>
      <point x="473" y="638" type="move" name="top"/>
    </contour>
  </outline>
</glyph>
<glyph name="eth" format="1">
  <advance width="594"/>
  <unicode hex="00F0"/>
  <outline>
    <contour>
      <point x="433" y="326" type="curve" smooth="yes"/>
      <point x="433" y="177"/>
      <point x="389" y="102"/>
      <point x="299" y="102" type="curve" smooth="yes"/>
      <point x="223" y="102"/>
      <point x="182" y="154"/>
      <point x="182" y="240" type="curve" smooth="yes"/>
      <point x="182" y="333"/>
      <point x="229" y="382"/>
      <point x="311" y="382" type="curve" smooth="yes"/>
      <point x="375" y="382"/>
      <point x="439" y="355"/>
      <point x="496" y="306" type="curve"/>
      <point x="496" y="418" type="line"/>
      <point x="439" y="470"/>
      <point x="390" y="495"/>
      <point x="312" y="495" type="curve" smooth="yes"/>
      <point x="150" y="495"/>
      <point x="44" y="405"/>
      <point x="44" y="241" type="curve" smooth="yes"/>
      <point x="44" y="85"/>
      <point x="139" y="-12"/>
      <point x="298" y="-12" type="curve" smooth="yes"/>
      <point x="475" y="-12"/>
      <point x="572" y="111"/>
      <point x="572" y="319" type="curve" smooth="yes"/>
      <point x="572" y="529"/>
      <point x="481" y="681"/>
      <point x="329" y="765" type="curve"/>
      <point x="188" y="743" type="line"/>
      <point x="188" y="739" type="line"/>
      <point x="370" y="631"/>
      <point x="433" y="516"/>
    </contour>
    <contour>
      <point x="220" y="544" type="line"/>
      <point x="572" y="601" type="line"/>
      <point x="572" y="699" type="line"/>
      <point x="220" y="642" type="line"/>
    </contour>
  </outline>
</glyph>
<glyph name="divide" format="1">
  <advance width="594"/>
  <unicode hex="00F7"/>
  <outline>
    <contour>
      <point x="66" y="293" type="line"/>
      <point x="528" y="293" type="line"/>
      <point x="528" y="399" type="line"/>
      <point x="66" y="399" type="line"/>
    </contour>
    <contour>
      <point x="297" y="51" type="curve" smooth="yes"/>
      <point x="346" y="51"/>
      <point x="387" y="86"/>
      <point x="387" y="142" type="curve" smooth="yes"/>
      <point x="387" y="198"/>
      <point x="346" y="233"/>
      <point x="297" y="233" type="curve" smooth="yes"/>
      <point x="248" y="233"/>
      <point x="207" y="198"/>
      <point x="207" y="142" type="curve" smooth="yes"/>
      <point x="207" y="86"/>
      <point x="248" y="51"/>
    </contour>
    <contour>
      <point x="297" y="459" type="curve" smooth="yes"/>
      <point x="346" y="459"/>
      <point x="387" y="494"/>
      <point x="387" y="550" type="curve" smooth="yes"/>
      <point x="387" y="606"/>
      <point x="346" y="641"/>
      <point x="297" y="641" type="curve" smooth="yes"/>
      <point x="248" y="641"/>
      <point x="207" y="606"/>
      <point x="207" y="550" type="curve" smooth="yes"/>
      <point x="207" y="494"/>
      <point x="248" y="459"/>
    </contour>
  </outline>
</glyph>
<glyph name="oslash" format="1">
  <advance width="616"/>
  <unicode hex="00F8"/>
  <outline>
    <contour>
      <point x="308" y="-12" type="curve" smooth="yes"/>
      <point x="468" y="-12"/>
      <point x="572" y="95"/>
      <point x="572" y="261" type="curve" smooth="yes"/>
      <point x="572" y="427"/>
      <point x="468" y="534"/>
      <point x="308" y="534" type="curve" smooth="yes"/>
      <point x="148" y="534"/>
      <point x="44" y="427"/>
      <point x="44" y="261" type="curve" smooth="yes"/>
      <point x="44" y="95"/>
      <point x="148" y="-12"/>
    </contour>
    <contour>
      <point x="308" y="97" type="curve" smooth="yes"/>
      <point x="231" y="97"/>
      <point x="183" y="154"/>
      <point x="183" y="261" type="curve" smooth="yes"/>
      <point x="183" y="369"/>
      <point x="231" y="425"/>
      <point x="308" y="425" type="curve" smooth="yes"/>
      <point x="385" y="425"/>
      <point x="433" y="369"/>
      <point x="433" y="261" type="curve" smooth="yes"/>
      <point x="433" y="154"/>
      <point x="385" y="97"/>
    </contour>
    <contour>
      <point x="0" y="0" type="line"/>
      <point x="143" y="0" type="line"/>
      <point x="616" y="522" type="line"/>
      <point x="473" y="522" type="line"/>
    </contour>
    <contour>
      <point x="308" y="638" type="move" name="top"/>
    </contour>
  </outline>
</glyph>
<glyph name="dotlessi" format="1">
  <advance width="396"/>
  <unicode hex="0131"/>
  <outline>
    <contour>
      <point x="154" y="0" type="line"/>
      <point x="286" y="0" type="line"/>
      <point x="286" y="522" type="line"/>
      <point x="44" y="522" type="line"/>
      <point x="44" y="424" type="line"/>
      <point x="154" y="424" type="line"/>
    </contour>
    <contour>
      <point x="198" y="638" type="move" name="top"/>
    </contour>
  </outline>
</glyph>
<glyph name="kgreenlandic" format="1">
  <advance width="594"/>
  <unicode hex="0138"/>
  <outline>
    <contour>
      <point x="220" y="0" type="line"/>
      <point x="220" y="151" type="line"/>
      <point x="290" y="225" type="line"/>
      <point x="438" y="0" type="line"/>
      <point x="594" y="0" type="line"/>
      <point x="373" y="313" type="line"/>
      <point x="572" y="522" type="line"/>
      <point x="422" y="522" type="line"/>
      <point x="220" y="303" type="line"/>
      <point x="220" y="522" type="line"/>
      <point x="110" y="522" type="line"/>
      <point x="110" y="0" type="line"/>
    </contour>
  </outline>
</glyph>
<glyph name="Lslash" format="1">
  <advance width="616"/>
  <unicode hex="0141"/>
  <outline>
    <contour>
      <point x="22" y="209" type="line"/>
      <point x="374" y="350" type="line"/>
      <point x="374" y="480" type="line"/>
      <point x="22" y="334" type="line"/>
    </contour>
    <component base="L"/>
  </outline>
</glyph>
<glyph name="lslash" format="1">
  <advance width="308"/>
  <unicode hex="0142"/>
  <outline>
    <contour>
      <point x="22" y="268" type="line"/>
      <point x="286" y="373" type="line"/>
      <point x="286" y="503" type="line"/>
      <point x="22" y="393" type="line"/>
    </contour>
    <component base="l"/>
  </outline>
</glyph>
<glyph name="Eng" format="1">
  <advance width="792"/>
  <unicode hex="014A"/>
  <outline>
    <contour>
      <point x="572" y="446" type="line"/>
      <point x="572" y="-49" type="line" smooth="yes"/>
      <point x="572" y="-105"/>
      <point x="554" y="-134"/>
      <point x="501" y="-134" type="curve" smooth="yes"/>
      <point x="475" y="-134"/>
      <point x="448" y="-127"/>
      <point x="418" y="-107" type="curve"/>
      <point x="418" y="-216" type="line"/>
      <point x="453" y="-241"/>
      <point x="483" y="-244"/>
      <point x="511" y="-244" type="curve" smooth="yes"/>
      <point x="651" y="-244"/>
      <point x="704" y="-169"/>
      <point x="704" y="-49" type="curve" smooth="yes"/>
      <point x="704" y="522" type="line"/>
    </contour>
    <component base="N"/>
  </outline>
</glyph>
<glyph name="eng" format="1">
  <advance width="638"/>
  <unicode hex="014B"/>
  <outline>
    <contour>
      <point x="88" y="0" type="line"/>
      <point x="220" y="0" type="line"/>
      <point x="220" y="359" type="line"/>
      <point x="258" y="397"/>
      <point x="293" y="417"/>
      <point x="335" y="417" type="curve" smooth="yes"/>
      <point x="393" y="417"/>
      <point x="418" y="378"/>
      <point x="418" y="290" type="curve" smooth="yes"/>
      <point x="418" y="-60" type="line" smooth="yes"/>
      <point x="418" y="-117"/>
      <point x="399" y="-134"/>
      <point x="353" y="-134" type="curve" smooth="yes"/>
      <point x="324" y="-134"/>
      <point x="295" y="-127"/>
      <point x="264" y="-107" type="curve"/>
      <point x="264" y="-216" type="line"/>
      <point x="292" y="-236"/>
      <point x="321" y="-244"/>
      <point x="366" y="-244" type="curve" smooth="yes"/>
      <point x="485" y="-244"/>
      <point x="550" y="-187"/>
      <point x="550" y="-60" type="curve" smooth="yes"/>
      <point x="550" y="365" type="line" smooth="yes"/>
      <point x="550" y="466"/>
      <point x="480" y="534"/>
      <point x="375" y="534" type="curve" smooth="yes"/>
      <point x="314" y="534"/>
      <point x="264" y="511"/>
      <point x="206" y="455" type="curve"/>
      <point x="187" y="522" type="line"/>
      <point x="66" y="522" type="line"/>
      <point x="88" y="406" type="line"/>
    </contour>
  </outline>
</glyph>
<glyph name="Schwa" format="1">
  <advance width="726"/>
  <unicode hex="018F"/>
  <outline>
    <contour>
      <point x="330" y="708" type="curve" smooth="yes"/>
      <point x="239" y="708"/>
      <point x="150" y="683"/>
      <point x="66" y="631" type="curve"/>
      <point x="66" y="511" type="line"/>
      <point x="70" y="511" type="line"/>
      <point x="151" y="563"/>
      <point x="239" y="595"/>
      <point x="324" y="595" type="curve" smooth="yes"/>
      <point x="470" y="595"/>
      <point x="543" y="502"/>
      <point x="543" y="371" type="curve"/>
      <point x="44" y="371" type="line"/>
      <point x="44" y="319" type="line" smooth="yes"/>
      <point x="44" y="137"/>
      <point x="158" y="-12"/>
      <point x="358" y="-12" type="curve" smooth="yes"/>
      <point x="563" y="-12"/>
      <point x="682" y="144"/>
      <point x="682" y="347" type="curve" smooth="yes"/>
      <point x="682" y="558"/>
      <point x="553" y="708"/>
    </contour>
    <contour>
      <point x="358" y="102" type="curve" smooth="yes"/>
      <point x="250" y="102"/>
      <point x="195" y="177"/>
      <point x="185" y="259" type="curve"/>
      <point x="542" y="259" type="line"/>
      <point x="542" y="178"/>
      <point x="468" y="102"/>
    </contour>
  </outline>
</glyph>
<glyph name="florin" format="1">
  <advance width="594"/>
  <unicode hex="0192"/>
  <outline>
    <contour>
      <point x="132" y="430" type="line"/>
      <point x="249" y="430" type="line"/>
      <point x="198" y="-41" type="line" smooth="yes"/>
      <point x="191" y="-104"/>
      <point x="171" y="-134"/>
      <point x="117" y="-134" type="curve" smooth="yes"/>
      <point x="94" y="-134"/>
      <point x="72" y="-129"/>
      <point x="48" y="-111" type="curve"/>
      <point x="44" y="-111" type="line"/>
      <point x="44" y="-225" type="line"/>
      <point x="73" y="-240"/>
      <point x="103" y="-244"/>
      <point x="134" y="-244" type="curve" smooth="yes"/>
      <point x="264" y="-244"/>
      <point x="316" y="-173"/>
      <point x="328" y="-60" type="curve" smooth="yes"/>
      <point x="381" y="430" type="line"/>
      <point x="528" y="430" type="line"/>
      <point x="528" y="522" type="line"/>
      <point x="390" y="522" type="line"/>
      <point x="394" y="566" type="line" smooth="yes"/>
      <point x="399" y="620"/>
      <point x="419" y="656"/>
      <point x="476" y="656" type="curve" smooth="yes"/>
      <point x="502" y="656"/>
      <point x="526" y="649"/>
      <point x="546" y="633" type="curve"/>
      <point x="550" y="633" type="line"/>
      <point x="550" y="747" type="line"/>
      <point x="511" y="761"/>
      <point x="483" y="766"/>
      <point x="452" y="766" type="curve" smooth="yes"/>
      <point x="335" y="766"/>
      <point x="275" y="695"/>
      <point x="264" y="582" type="curve" smooth="yes"/>
      <point x="258" y="522" type="line"/>
      <point x="132" y="522" type="line"/>
    </contour>
  </outline>
</glyph>
<glyph name="Aringacute" format="1">
  <advance width="682"/>
  <unicode hex="01FA"/>
  <outline>
    <contour>
      <point x="270" y="822" type="line"/>
      <point x="176" y="798" type="line"/>
      <point x="190" y="710" type="line"/>
      <point x="279" y="721" type="line"/>
    </contour>
    <contour>
      <point x="411" y="735" type="line"/>
      <point x="506" y="746" type="line"/>
      <point x="484" y="870" type="line"/>
      <point x="399" y="850" type="line"/>
    </contour>
    <component base="A"/>
    <component base="ring.cap" xOffset="187"/>
  </outline>
</glyph>
<glyph name="schwa" format="1">
  <advance width="594"/>
  <unicode hex="0259"/>
  <outline>
    <contour>
      <point x="267" y="534" type="curve" smooth="yes"/>
      <point x="195" y="534"/>
      <point x="132" y="513"/>
      <point x="66" y="462" type="curve"/>
      <point x="66" y="341" type="line"/>
      <point x="70" y="341" type="line"/>
      <point x="134" y="395"/>
      <point x="196" y="425"/>
      <point x="265" y="425" type="curve" smooth="yes"/>
      <point x="357" y="425"/>
      <point x="415" y="370"/>
      <point x="415" y="291" type="curve"/>
      <point x="44" y="291" type="line"/>
      <point x="44" y="239" type="line" smooth="yes"/>
      <point x="44" y="97"/>
      <point x="134" y="-12"/>
      <point x="292" y="-12" type="curve" smooth="yes"/>
      <point x="455" y="-12"/>
      <point x="550" y="105"/>
      <point x="550" y="258" type="curve" smooth="yes"/>
      <point x="550" y="420"/>
      <point x="444" y="534"/>
    </contour>
    <contour>
      <point x="293" y="94" type="curve" smooth="yes"/>
      <point x="220" y="94"/>
      <point x="186" y="137"/>
      <point x="179" y="190" type="curve"/>
      <point x="414" y="190" type="line"/>
      <point x="414" y="137"/>
      <point x="367" y="94"/>
    </contour>
  </outline>
</glyph>
<glyph name="apostrophe" format="1">
  <advance width="264"/>
  <unicode hex="02BC"/>
  <outline>
    <contour>
      <point x="123" y="444" type="line"/>
      <point x="185" y="509"/>
      <point x="220" y="589"/>
      <point x="220" y="657" type="curve" smooth="yes"/>
      <point x="220" y="727"/>
      <point x="183" y="766"/>
      <point x="124" y="766" type="curve" smooth="yes"/>
      <point x="65" y="766"/>
      <point x="33" y="728"/>
      <point x="33" y="681" type="curve" smooth="yes"/>
      <point x="33" y="638"/>
      <point x="61" y="607"/>
      <point x="98" y="607" type="curve" smooth="yes"/>
      <point x="102" y="607"/>
      <point x="106" y="607"/>
      <point x="113" y="609" type="curve"/>
      <point x="103" y="568"/>
      <point x="87" y="541"/>
      <point x="57" y="500" type="curve"/>
      <point x="57" y="496" type="line"/>
    </contour>
    <contour>
      <point x="132" y="638" type="move" name="_apostrophe"/>
    </contour>
  </outline>
</glyph>
<glyph name="circumflex" format="1">
  <advance width="484"/>
  <unicode hex="02C6"/>
  <outline>
    <contour>
      <point x="242" y="825" type="line"/>
      <point x="44" y="661" type="line"/>
      <point x="92" y="594" type="line"/>
      <point x="242" y="687" type="line"/>
      <point x="391" y="594" type="line"/>
      <point x="440" y="661" type="line"/>
    </contour>
    <contour>
      <point x="242" y="638" type="move" name="_top"/>
    </contour>
  </outline>
</glyph>
<glyph name="caron" format="1">
  <advance width="484"/>
  <unicode hex="02C7"/>
  <outline>
    <contour>
      <point x="440" y="758" type="line"/>
      <point x="391" y="825" type="line"/>
      <point x="242" y="732" type="line"/>
      <point x="92" y="825" type="line"/>
      <point x="44" y="758" type="line"/>
      <point x="242" y="594" type="line"/>
    </contour>
    <contour>
      <point x="242" y="638" type="move" name="_top"/>
    </contour>
  </outline>
</glyph>
<glyph name="uni02C9" format="1">
  <advance width="462"/>
  <unicode hex="02C9"/>
  <outline>
    <contour>
      <point x="44" y="652" type="line"/>
      <point x="418" y="652" type="line"/>
      <point x="418" y="754" type="line"/>
      <point x="44" y="754" type="line"/>
    </contour>
  </outline>
</glyph>
<glyph name="breve" format="1">
  <advance width="418"/>
  <unicode hex="02D8"/>
  <outline>
    <contour>
      <point x="209" y="594" type="curve" smooth="yes"/>
      <point x="312" y="594"/>
      <point x="396" y="663"/>
      <point x="396" y="774" type="curve"/>
      <point x="297" y="774" type="line"/>
      <point x="297" y="731"/>
      <point x="261" y="699"/>
      <point x="209" y="699" type="curve" smooth="yes"/>
      <point x="158" y="699"/>
      <point x="121" y="731"/>
      <point x="121" y="774" type="curve"/>
      <point x="22" y="774" type="line"/>
      <point x="22" y="663"/>
      <point x="108" y="594"/>
    </contour>
    <contour>
      <point x="209" y="638" type="move" name="_top"/>
    </contour>
  </outline>
</glyph>
<glyph name="dotaccent" format="1">
  <advance width="264"/>
  <unicode hex="02D9"/>
  <outline>
    <contour>
      <point x="132" y="600" type="curve" smooth="yes"/>
      <point x="176" y="600"/>
      <point x="214" y="633"/>
      <point x="214" y="683" type="curve" smooth="yes"/>
      <point x="214" y="733"/>
      <point x="176" y="766"/>
      <point x="132" y="766" type="curve" smooth="yes"/>
      <point x="88" y="766"/>
      <point x="50" y="733"/>
      <point x="50" y="683" type="curve" smooth="yes"/>
      <point x="50" y="633"/>
      <point x="88" y="600"/>
    </contour>
    <contour>
      <point x="132" y="638" type="move" name="_top"/>
    </contour>
  </outline>
</glyph>
<glyph name="ring" format="1">
  <advance width="308"/>
  <unicode hex="02DA"/>
  <outline>
    <contour>
      <point x="44" y="726" type="curve" smooth="yes"/>
      <point x="44" y="665"/>
      <point x="93" y="616"/>
      <point x="154" y="616" type="curve" smooth="yes"/>
      <point x="215" y="616"/>
      <point x="264" y="665"/>
      <point x="264" y="726" type="curve" smooth="yes"/>
      <point x="264" y="787"/>
      <point x="215" y="836"/>
      <point x="154" y="836" type="curve" smooth="yes"/>
      <point x="93" y="836"/>
      <point x="44" y="787"/>
    </contour>
    <contour>
      <point x="120" y="726" type="curve" smooth="yes"/>
      <point x="120" y="746"/>
      <point x="134" y="760"/>
      <point x="154" y="760" type="curve" smooth="yes"/>
      <point x="173" y="760"/>
      <point x="187" y="746"/>
      <point x="187" y="726" type="curve" smooth="yes"/>
      <point x="187" y="707"/>
      <point x="173" y="691"/>
      <point x="154" y="691" type="curve" smooth="yes"/>
      <point x="134" y="691"/>
      <point x="120" y="707"/>
    </contour>
    <contour>
      <point x="154" y="638" type="move" name="_top"/>
    </contour>
  </outline>
</glyph>
<glyph name="ogonek" format="1">
  <advance width="352"/>
  <unicode hex="02DB"/>
  <outline>
    <contour>
      <point x="308" y="-129" type="line"/>
      <point x="304" y="-129" type="line"/>
      <point x="278" y="-146"/>
      <point x="249" y="-156"/>
      <point x="218" y="-156" type="curve" smooth="yes"/>
      <point x="191" y="-156"/>
      <point x="158" y="-148"/>
      <point x="158" y="-105" type="curve" smooth="yes"/>
      <point x="158" y="-63"/>
      <point x="189" y="-21"/>
      <point x="252" y="33" type="curve"/>
      <point x="164" y="33" type="line"/>
      <point x="91" y="-21"/>
      <point x="44" y="-84"/>
      <point x="44" y="-143" type="curve" smooth="yes"/>
      <point x="44" y="-202"/>
      <point x="90" y="-244"/>
      <point x="186" y="-244" type="curve" smooth="yes"/>
      <point x="236" y="-244"/>
      <point x="280" y="-233"/>
      <point x="308" y="-218" type="curve"/>
    </contour>
    <contour>
      <point x="176" y="52" type="move" name="_ogonek"/>
    </contour>
  </outline>
</glyph>
<glyph name="tilde" format="1">
  <advance width="462"/>
  <unicode hex="02DC"/>
  <outline>
    <contour>
      <point x="315" y="618" type="curve" smooth="yes"/>
      <point x="344" y="618"/>
      <point x="382" y="630"/>
      <point x="418" y="660" type="curve"/>
      <point x="418" y="763" type="line"/>
      <point x="384" y="737"/>
      <point x="347" y="726"/>
      <point x="320" y="726" type="curve" smooth="yes"/>
      <point x="248" y="726"/>
      <point x="220" y="774"/>
      <point x="148" y="774" type="curve" smooth="yes"/>
      <point x="118" y="774"/>
      <point x="82" y="760"/>
      <point x="44" y="721" type="curve"/>
      <point x="44" y="618" type="line"/>
      <point x="78" y="652"/>
      <point x="114" y="666"/>
      <point x="143" y="666" type="curve" smooth="yes"/>
      <point x="211" y="666"/>
      <point x="241" y="618"/>
    </contour>
    <contour>
      <point x="231" y="638" type="move" name="_top"/>
    </contour>
  </outline>
</glyph>
<glyph name="hungarumlaut" format="1">
  <advance width="528"/>
  <unicode hex="02DD"/>
  <outline>
    <contour>
      <point x="212" y="825" type="line"/>
      <point x="22" y="652" type="line"/>
      <point x="73" y="594" type="line"/>
      <point x="286" y="721" type="line"/>
    </contour>
    <contour>
      <point x="432" y="825" type="line"/>
      <point x="242" y="652" type="line"/>
      <point x="293" y="594" type="line"/>
      <point x="506" y="721" type="line"/>
    </contour>
    <contour>
      <point x="264" y="638" type="move" name="_top"/>
    </contour>
  </outline>
</glyph>
<glyph name="uni030F" format="1">
  <advance width="528"/>
  <unicode hex="030F"/>
  <outline>
    <contour>
      <point x="242" y="721" type="line"/>
      <point x="455" y="594" type="line"/>
      <point x="506" y="652" type="line"/>
      <point x="316" y="825" type="line"/>
    </contour>
    <contour>
      <point x="22" y="721" type="line"/>
      <point x="235" y="594" type="line"/>
      <point x="286" y="652" type="line"/>
      <point x="96" y="825" type="line"/>
    </contour>
    <contour>
      <point x="264" y="638" type="move" name="_top"/>
    </contour>
  </outline>
</glyph>
<glyph name="uni0311" format="1">
  <advance width="418"/>
  <unicode hex="0311"/>
  <outline>
    <contour>
      <point x="209" y="774" type="curve" smooth="yes"/>
      <point x="108" y="774"/>
      <point x="22" y="705"/>
      <point x="22" y="594" type="curve"/>
      <point x="121" y="594" type="line"/>
      <point x="121" y="637"/>
      <point x="158" y="669"/>
      <point x="209" y="669" type="curve" smooth="yes"/>
      <point x="261" y="669"/>
      <point x="297" y="637"/>
      <point x="297" y="594" type="curve"/>
      <point x="396" y="594" type="line"/>
      <point x="396" y="705"/>
      <point x="312" y="774"/>
    </contour>
    <contour>
      <point x="209" y="638" type="move" name="_top"/>
    </contour>
  </outline>
</glyph>
<glyph name="uni03BC" format="1">
  <advance width="616"/>
  <unicode hex="03BC"/>
  <outline>
    <contour>
      <point x="198" y="-174" type="line"/>
      <point x="178" y="39" type="line"/>
      <point x="198" y="10"/>
      <point x="225" y="-12"/>
      <point x="277" y="-12" type="curve" smooth="yes"/>
      <point x="330" y="-12"/>
      <point x="376" y="11"/>
      <point x="420" y="68" type="curve"/>
      <point x="440" y="0" type="line"/>
      <point x="550" y="0" type="line"/>
      <point x="528" y="116" type="line"/>
      <point x="528" y="522" type="line"/>
      <point x="396" y="522" type="line"/>
      <point x="396" y="166" type="line"/>
      <point x="367" y="124"/>
      <point x="329" y="100"/>
      <point x="281" y="100" type="curve" smooth="yes"/>
      <point x="221" y="100"/>
      <point x="198" y="137"/>
      <point x="198" y="205" type="curve" smooth="yes"/>
      <point x="198" y="522" type="line"/>
      <point x="66" y="522" type="line"/>
      <point x="66" y="-174" type="line"/>
    </contour>
  </outline>
</glyph>
<glyph name="pi" format="1">
  <advance width="682"/>
  <unicode hex="03C0"/>
  <outline>
    <contour>
      <point x="528" y="413" type="line"/>
      <point x="638" y="413" type="line"/>
      <point x="638" y="522" type="line"/>
      <point x="44" y="522" type="line"/>
      <point x="44" y="413" type="line"/>
      <point x="154" y="413" type="line"/>
      <point x="154" y="0" type="line"/>
      <point x="286" y="0" type="line"/>
      <point x="286" y="413" type="line"/>
      <point x="396" y="413" type="line"/>
      <point x="396" y="172" type="line" smooth="yes"/>
      <point x="396" y="59"/>
      <point x="448" y="-12"/>
      <point x="558" y="-12" type="curve" smooth="yes"/>
      <point x="588" y="-12"/>
      <point x="608" y="-7"/>
      <point x="638" y="5" type="curve"/>
      <point x="638" y="114" type="line"/>
      <point x="621" y="102"/>
      <point x="612" y="98"/>
      <point x="597" y="98" type="curve" smooth="yes"/>
      <point x="546" y="98"/>
      <point x="528" y="141"/>
      <point x="528" y="195" type="curve" smooth="yes"/>
    </contour>
  </outline>
</glyph>
<glyph name="candrabindudeva" format="1">
  <advance width="527"/>
  <unicode hex="0901"/>
  <outline>
    <contour>
      <point x="264" y="696" type="curve" smooth="yes"/>
      <point x="385" y="696"/>
      <point x="484" y="768"/>
      <point x="484" y="881" type="curve"/>
      <point x="385" y="881" type="line"/>
      <point x="385" y="827"/>
      <point x="335" y="783"/>
      <point x="264" y="783" type="curve" smooth="yes"/>
      <point x="194" y="783"/>
      <point x="143" y="827"/>
      <point x="143" y="881" type="curve"/>
      <point x="44" y="881" type="line"/>
      <point x="44" y="768"/>
      <point x="145" y="696"/>
    </contour>
    <contour>
      <point x="209" y="820" type="line"/>
      <point x="319" y="820" type="line"/>
      <point x="319" y="928" type="line"/>
      <point x="209" y="928" type="line"/>
    </contour>
  </outline>
</glyph>
<glyph name="anusvaradeva" format="1">
  <advance width="198"/>
  <unicode hex="0902"/>
  <outline>
    <contour>
      <point x="33" y="777" type="line"/>
      <point x="165" y="777" type="line"/>
      <point x="165" y="909" type="line"/>
      <point x="33" y="909" type="line"/>
    </contour>
  </outline>
</glyph>
<glyph name="aadeva" format="1">
  <advance width="1254"/>
  <unicode hex="0906"/>
  <outline>
    <contour>
      <point x="185" y="316" type="line"/>
      <point x="262" y="316" type="line"/>
      <point x="407" y="341"/>
      <point x="472" y="404"/>
      <point x="472" y="495" type="curve" smooth="yes"/>
      <point x="472" y="592"/>
      <point x="398" y="650"/>
      <point x="282" y="650" type="curve" smooth="yes"/>
      <point x="187" y="650"/>
      <point x="111" y="611"/>
      <point x="64" y="552" type="curve"/>
      <point x="64" y="548" type="line"/>
      <point x="116" y="493" type="line"/>
      <point x="120" y="493" type="line"/>
      <point x="161" y="535"/>
      <point x="218" y="558"/>
      <point x="267" y="558" type="curve" smooth="yes"/>
      <point x="321" y="558"/>
      <point x="348" y="530"/>
      <point x="348" y="488" type="curve" smooth="yes"/>
      <point x="348" y="431"/>
      <point x="299" y="396"/>
      <point x="236" y="396" type="curve" smooth="yes"/>
      <point x="185" y="396" type="line"/>
    </contour>
    <contour>
      <point x="280" y="20" type="curve" smooth="yes"/>
      <point x="392" y="20"/>
      <point x="476" y="88"/>
      <point x="476" y="183" type="curve" smooth="yes"/>
      <point x="476" y="286"/>
      <point x="376" y="379"/>
      <point x="262" y="379" type="curve" smooth="yes"/>
      <point x="242" y="379" type="line"/>
      <point x="242" y="316" type="line"/>
      <point x="300" y="316"/>
      <point x="353" y="276"/>
      <point x="353" y="213" type="curve" smooth="yes"/>
      <point x="353" y="160"/>
      <point x="316" y="120"/>
      <point x="258" y="120" type="curve" smooth="yes"/>
      <point x="200" y="120"/>
      <point x="143" y="160"/>
      <point x="87" y="246" type="curve"/>
      <point x="83" y="246" type="line"/>
      <point x="26" y="191" type="line"/>
      <point x="26" y="187" type="line"/>
      <point x="79" y="87"/>
      <point x="169" y="20"/>
    </contour>
    <contour>
      <point x="660" y="0" type="line"/>
      <point x="792" y="0" type="line"/>
      <point x="792" y="558" type="line"/>
      <point x="924" y="558" type="line"/>
      <point x="924" y="638" type="line"/>
      <point x="572" y="638" type="line"/>
      <point x="572" y="558" type="line"/>
      <point x="660" y="558" type="line"/>
    </contour>
    <contour>
      <point x="1144" y="0" type="line"/>
      <point x="1144" y="558" type="line"/>
      <point x="1276" y="558" type="line"/>
      <point x="1276" y="638" type="line"/>
      <point x="880" y="638" type="line"/>
      <point x="880" y="558" type="line"/>
      <point x="1012" y="558" type="line"/>
      <point x="1012" y="0" type="line"/>
    </contour>
    <contour>
      <point x="352" y="290" type="line"/>
      <point x="726" y="290" type="line"/>
      <point x="726" y="371" type="line"/>
      <point x="312" y="371" type="line"/>
    </contour>
  </outline>
</glyph>
<glyph name="ideva" format="1">
  <advance width="594"/>
  <unicode hex="0907"/>
  <outline>
    <contour>
      <point x="202" y="36" type="line"/>
      <point x="220" y="64" type="line"/>
      <point x="128" y="214" type="line"/>
      <point x="36" y="165" type="line"/>
      <point x="33" y="155"/>
      <point x="32" y="142"/>
      <point x="32" y="133" type="curve" smooth="yes"/>
      <point x="32" y="108"/>
      <point x="39" y="89"/>
      <point x="53" y="70" type="curve"/>
    </contour>
    <contour>
      <point x="398" y="-176" type="curve"/>
      <point x="484" y="-101" type="line"/>
      <point x="373" y="-49"/>
      <point x="230" y="67"/>
      <point x="190" y="112" type="curve"/>
      <point x="144" y="48" type="line"/>
      <point x="188" y="-2"/>
      <point x="306" y="-121"/>
    </contour>
    <contour>
      <point x="322" y="28" type="curve" smooth="yes"/>
      <point x="462" y="28"/>
      <point x="551" y="81"/>
      <point x="551" y="169" type="curve" smooth="yes"/>
      <point x="551" y="247"/>
      <point x="482" y="320"/>
      <point x="406" y="320" type="curve" smooth="yes"/>
      <point x="386" y="320"/>
      <point x="352" y="315"/>
      <point x="227" y="292" type="curve"/>
      <point x="197" y="306"/>
      <point x="170" y="337"/>
      <point x="170" y="366" type="curve" smooth="yes"/>
      <point x="170" y="385"/>
      <point x="182" y="397"/>
      <point x="214" y="397" type="curve" smooth="yes"/>
      <point x="484" y="397" type="line"/>
      <point x="484" y="558" type="line"/>
      <point x="616" y="558" type="line"/>
      <point x="616" y="638" type="line"/>
      <point x="-22" y="638" type="line"/>
      <point x="-22" y="558" type="line"/>
      <point x="352" y="558" type="line"/>
      <point x="352" y="483" type="line"/>
      <point x="132" y="483" type="line" smooth="yes"/>
      <point x="79" y="483"/>
      <point x="44" y="451"/>
      <point x="44" y="404" type="curve" smooth="yes"/>
      <point x="44" y="334"/>
      <point x="124" y="243"/>
      <point x="216" y="204" type="curve"/>
      <point x="301" y="225"/>
      <point x="351" y="233"/>
      <point x="377" y="233" type="curve" smooth="yes"/>
      <point x="415" y="233"/>
      <point x="430" y="216"/>
      <point x="430" y="180" type="curve" smooth="yes"/>
      <point x="430" y="134"/>
      <point x="405" y="112"/>
      <point x="319" y="112" type="curve" smooth="yes"/>
      <point x="270" y="112"/>
      <point x="202" y="119"/>
      <point x="153" y="129" type="curve"/>
      <point x="166" y="50" type="line"/>
      <point x="217" y="37"/>
      <point x="265" y="28"/>
    </contour>
  </outline>
</glyph>
<glyph name="iideva" format="1">
  <advance width="594"/>
  <unicode hex="0908"/>
  <outline>
    <contour>
      <point x="330" y="621" type="line"/>
      <point x="506" y="621" type="line"/>
      <point x="506" y="638" type="line"/>
      <point x="457" y="638" type="line"/>
      <point x="392" y="677"/>
      <point x="367" y="706"/>
      <point x="367" y="738" type="curve" smooth="yes"/>
      <point x="367" y="767"/>
      <point x="386" y="783"/>
      <point x="427" y="783" type="curve" smooth="yes"/>
      <point x="460" y="783"/>
      <point x="495" y="773"/>
      <point x="542" y="752" type="curve"/>
      <point x="564" y="819" type="line"/>
      <point x="508" y="849"/>
      <point x="434" y="870"/>
      <point x="373" y="870" type="curve" smooth="yes"/>
      <point x="290" y="870"/>
      <point x="233" y="831"/>
      <point x="233" y="767" type="curve" smooth="yes"/>
      <point x="233" y="719"/>
      <point x="266" y="680"/>
      <point x="350" y="638" type="curve"/>
      <point x="330" y="638" type="line"/>
    </contour>
    <component base="ideva"/>
  </outline>
</glyph>
<glyph name="udeva" format="1">
  <advance width="572"/>
  <unicode hex="0909"/>
  <outline>
    <contour>
      <point x="594" y="558" type="line"/>
      <point x="594" y="638" type="line"/>
      <point x="-22" y="638" type="line"/>
      <point x="-22" y="558" type="line"/>
    </contour>
    <contour>
      <point x="241" y="304" type="line"/>
      <point x="318" y="304" type="line"/>
      <point x="442" y="327"/>
      <point x="528" y="379"/>
      <point x="528" y="476" type="curve" smooth="yes"/>
      <point x="528" y="572"/>
      <point x="442" y="612"/>
      <point x="312" y="612" type="curve"/>
      <point x="307" y="558" type="line"/>
      <point x="364" y="558"/>
      <point x="399" y="535"/>
      <point x="399" y="483" type="curve" smooth="yes"/>
      <point x="399" y="423"/>
      <point x="350" y="385"/>
      <point x="270" y="385" type="curve" smooth="yes"/>
      <point x="241" y="385" type="line"/>
    </contour>
    <contour>
      <point x="320" y="91" type="curve" smooth="yes"/>
      <point x="245" y="91"/>
      <point x="172" y="128"/>
      <point x="77" y="206" type="curve"/>
      <point x="44" y="111" type="line"/>
      <point x="125" y="35"/>
      <point x="220" y="-4"/>
      <point x="320" y="-4" type="curve" smooth="yes"/>
      <point x="446" y="-4"/>
      <point x="550" y="59"/>
      <point x="550" y="186" type="curve" smooth="yes"/>
      <point x="550" y="300"/>
      <point x="466" y="385"/>
      <point x="351" y="385" type="curve" smooth="yes"/>
      <point x="171" y="385" type="line"/>
      <point x="171" y="293" type="line"/>
      <point x="311" y="293" type="line" smooth="yes"/>
      <point x="376" y="293"/>
      <point x="424" y="253"/>
      <point x="424" y="181" type="curve" smooth="yes"/>
      <point x="424" y="119"/>
      <point x="385" y="91"/>
    </contour>
  </outline>
</glyph>
<glyph name="uudeva" format="1">
  <advance width="902"/>
  <unicode hex="090A"/>
  <outline>
    <contour>
      <point x="924" y="558" type="line"/>
      <point x="924" y="638" type="line"/>
      <point x="-22" y="638" type="line"/>
      <point x="-22" y="558" type="line"/>
    </contour>
    <contour>
      <point x="241" y="304" type="line"/>
      <point x="318" y="304" type="line"/>
      <point x="442" y="327"/>
      <point x="528" y="379"/>
      <point x="528" y="476" type="curve" smooth="yes"/>
      <point x="528" y="572"/>
      <point x="442" y="612"/>
      <point x="312" y="612" type="curve"/>
      <point x="307" y="558" type="line"/>
      <point x="364" y="558"/>
      <point x="399" y="535"/>
      <point x="399" y="483" type="curve" smooth="yes"/>
      <point x="399" y="423"/>
      <point x="350" y="385"/>
      <point x="270" y="385" type="curve" smooth="yes"/>
      <point x="241" y="385" type="line"/>
    </contour>
    <contour>
      <point x="320" y="91" type="curve" smooth="yes"/>
      <point x="245" y="91"/>
      <point x="172" y="130"/>
      <point x="77" y="206" type="curve"/>
      <point x="44" y="111" type="line"/>
      <point x="125" y="35"/>
      <point x="220" y="-4"/>
      <point x="320" y="-4" type="curve" smooth="yes"/>
      <point x="446" y="-4"/>
      <point x="550" y="59"/>
      <point x="550" y="186" type="curve" smooth="yes"/>
      <point x="550" y="300"/>
      <point x="466" y="385"/>
      <point x="351" y="385" type="curve" smooth="yes"/>
      <point x="171" y="385" type="line"/>
      <point x="171" y="293" type="line"/>
      <point x="311" y="293" type="line" smooth="yes"/>
      <point x="376" y="293"/>
      <point x="424" y="253"/>
      <point x="424" y="181" type="curve" smooth="yes"/>
      <point x="424" y="121"/>
      <point x="385" y="91"/>
    </contour>
    <contour>
      <point x="753" y="11" type="line"/>
      <point x="837" y="84"/>
      <point x="880" y="135"/>
      <point x="880" y="211" type="curve" smooth="yes"/>
      <point x="880" y="324"/>
      <point x="784" y="407"/>
      <point x="677" y="407" type="curve" smooth="yes"/>
      <point x="596" y="407"/>
      <point x="538" y="360"/>
      <point x="483" y="251" type="curve"/>
      <point x="483" y="152" type="line"/>
      <point x="535" y="248"/>
      <point x="600" y="308"/>
      <point x="675" y="308" type="curve" smooth="yes"/>
      <point x="724" y="308"/>
      <point x="755" y="283"/>
      <point x="755" y="222" type="curve" smooth="yes"/>
      <point x="755" y="175"/>
      <point x="736" y="134"/>
      <point x="668" y="82" type="curve"/>
    </contour>
  </outline>
</glyph>
<glyph name="rvocalicdeva" format="1">
  <advance width="968"/>
  <unicode hex="090B"/>
  <outline>
    <contour>
      <point x="550" y="0" type="line"/>
      <point x="550" y="558" type="line"/>
      <point x="990" y="558" type="line"/>
      <point x="990" y="638" type="line"/>
      <point x="-22" y="638" type="line"/>
      <point x="-22" y="558" type="line"/>
      <point x="418" y="558" type="line"/>
      <point x="418" y="0" type="line"/>
    </contour>
    <contour>
      <point x="470" y="330" type="line"/>
      <point x="440" y="330" type="line"/>
      <point x="94" y="140" type="line"/>
      <point x="94" y="136" type="line"/>
      <point x="161" y="47" type="line"/>
      <point x="165" y="47" type="line"/>
      <point x="440" y="233" type="line"/>
      <point x="470" y="233" type="line"/>
    </contour>
    <contour>
      <point x="83" y="343" type="line"/>
      <point x="115" y="364"/>
      <point x="173" y="381"/>
      <point x="228" y="381" type="curve" smooth="yes"/>
      <point x="310" y="381"/>
      <point x="388" y="348"/>
      <point x="447" y="281" type="curve"/>
      <point x="458" y="377" type="line"/>
      <point x="405" y="434"/>
      <point x="321" y="474"/>
      <point x="206" y="474" type="curve" smooth="yes"/>
      <point x="146" y="474"/>
      <point x="78" y="463"/>
      <point x="44" y="439" type="curve"/>
    </contour>
    <contour>
      <point x="455" y="286" type="line"/>
      <point x="502" y="262"/>
      <point x="553" y="239"/>
      <point x="625" y="239" type="curve" smooth="yes"/>
      <point x="693" y="239"/>
      <point x="738" y="260"/>
      <point x="796" y="306" type="curve"/>
      <point x="753" y="395" type="line"/>
      <point x="707" y="358"/>
      <point x="659" y="327"/>
      <point x="599" y="327" type="curve" smooth="yes"/>
      <point x="555" y="327"/>
      <point x="504" y="344"/>
      <point x="467" y="371" type="curve"/>
    </contour>
    <contour>
      <point x="741" y="323" type="curve" smooth="yes"/>
      <point x="769" y="276"/>
      <point x="801" y="237"/>
      <point x="801" y="172" type="curve" smooth="yes"/>
      <point x="801" y="120"/>
      <point x="755" y="90"/>
      <point x="660" y="90" type="curve"/>
      <point x="660" y="-12" type="line"/>
      <point x="804" y="-12"/>
      <point x="924" y="36"/>
      <point x="924" y="174" type="curve" smooth="yes"/>
      <point x="924" y="232"/>
      <point x="884" y="298"/>
      <point x="842" y="336" type="curve"/>
      <point x="836" y="414" type="line"/>
      <point x="820" y="449"/>
      <point x="803" y="470"/>
      <point x="775" y="495" type="curve"/>
      <point x="683" y="456" type="line"/>
      <point x="700" y="383"/>
      <point x="708" y="364"/>
    </contour>
  </outline>
</glyph>
<glyph name="ecandradeva" format="1">
  <advance width="682"/>
  <unicode hex="090D"/>
  <outline>
    <contour>
      <point x="341" y="709" type="curve" smooth="yes"/>
      <point x="510" y="709"/>
      <point x="608" y="793"/>
      <point x="608" y="910" type="curve"/>
      <point x="485" y="910" type="line"/>
      <point x="485" y="841"/>
      <point x="438" y="797"/>
      <point x="341" y="797" type="curve" smooth="yes"/>
      <point x="244" y="797"/>
      <point x="197" y="841"/>
      <point x="197" y="910" type="curve"/>
      <point x="74" y="910" type="line"/>
      <point x="74" y="793"/>
      <point x="172" y="709"/>
    </contour>
    <component base="edeva"/>
  </outline>
</glyph>
<glyph name="eshortdeva" format="1">
  <advance width="682"/>
  <unicode hex="090E"/>
  <outline>
    <contour>
      <point x="565" y="610" type="line"/>
      <point x="565" y="638" type="line" smooth="yes"/>
      <point x="565" y="727"/>
      <point x="531" y="828"/>
      <point x="407" y="844" type="curve" smooth="yes"/>
      <point x="274" y="861"/>
      <point x="237" y="866"/>
      <point x="237" y="928" type="curve"/>
      <point x="125" y="928" type="line"/>
      <point x="125" y="794"/>
      <point x="207" y="782"/>
      <point x="327" y="765" type="curve" smooth="yes"/>
      <point x="391" y="756"/>
      <point x="444" y="743"/>
      <point x="444" y="638" type="curve" smooth="yes"/>
      <point x="444" y="610" type="line"/>
    </contour>
    <component base="edeva"/>
  </outline>
</glyph>
<glyph name="edeva" format="1">
  <advance width="682"/>
  <unicode hex="090F"/>
  <outline>
    <contour>
      <point x="357" y="-115" type="curve"/>
      <point x="492" y="-115" type="line"/>
      <point x="505" y="-85"/>
      <point x="510" y="-54"/>
      <point x="510" y="-31" type="curve" smooth="yes"/>
      <point x="510" y="139"/>
      <point x="242" y="174"/>
      <point x="242" y="277" type="curve" smooth="yes"/>
      <point x="242" y="566" type="line"/>
      <point x="110" y="566" type="line"/>
      <point x="110" y="306" type="line" smooth="yes"/>
      <point x="110" y="96"/>
      <point x="376" y="109"/>
      <point x="376" y="-35" type="curve" smooth="yes"/>
      <point x="376" y="-57"/>
      <point x="370" y="-87"/>
    </contour>
    <contour>
      <point x="423" y="216" type="line"/>
      <point x="516" y="256"/>
      <point x="572" y="336"/>
      <point x="572" y="424" type="curve" smooth="yes"/>
      <point x="572" y="566" type="line"/>
      <point x="440" y="566" type="line"/>
      <point x="440" y="416" type="line" smooth="yes"/>
      <point x="440" y="367"/>
      <point x="413" y="334"/>
      <point x="357" y="318" type="curve"/>
    </contour>
    <contour>
      <point x="-22" y="558" type="line"/>
      <point x="704" y="558" type="line"/>
      <point x="704" y="638" type="line"/>
      <point x="-22" y="638" type="line"/>
    </contour>
  </outline>
</glyph>
<glyph name="aideva" format="1">
  <advance width="682"/>
  <unicode hex="0910"/>
  <outline>
    <contour>
      <point x="440" y="638" type="line"/>
      <point x="440" y="608" type="line"/>
      <point x="557" y="608" type="line"/>
      <point x="557" y="638" type="line"/>
      <point x="363" y="928" type="line"/>
      <point x="359" y="928" type="line"/>
      <point x="254" y="865" type="line"/>
      <point x="254" y="861" type="line"/>
    </contour>
    <component base="edeva"/>
  </outline>
</glyph>
<glyph name="ocandradeva" format="1">
  <advance width="1254"/>
  <unicode hex="0911"/>
  <outline>
    <contour>
      <point x="902" y="709" type="curve" smooth="yes"/>
      <point x="1071" y="709"/>
      <point x="1169" y="793"/>
      <point x="1169" y="910" type="curve"/>
      <point x="1046" y="910" type="line"/>
      <point x="1046" y="841"/>
      <point x="999" y="797"/>
      <point x="902" y="797" type="curve" smooth="yes"/>
      <point x="805" y="797"/>
      <point x="758" y="841"/>
      <point x="758" y="910" type="curve"/>
      <point x="635" y="910" type="line"/>
      <point x="635" y="793"/>
      <point x="733" y="709"/>
    </contour>
    <component base="aadeva"/>
  </outline>
</glyph>
<glyph name="oshortdeva" format="1">
  <advance width="1254"/>
  <unicode hex="0912"/>
  <outline>
    <contour>
      <point x="1137" y="610" type="line"/>
      <point x="1137" y="638" type="line" smooth="yes"/>
      <point x="1137" y="727"/>
      <point x="1103" y="828"/>
      <point x="979" y="844" type="curve" smooth="yes"/>
      <point x="846" y="861"/>
      <point x="809" y="866"/>
      <point x="809" y="928" type="curve"/>
      <point x="697" y="928" type="line"/>
      <point x="697" y="794"/>
      <point x="779" y="782"/>
      <point x="899" y="765" type="curve" smooth="yes"/>
      <point x="963" y="756"/>
      <point x="1016" y="743"/>
      <point x="1016" y="638" type="curve" smooth="yes"/>
      <point x="1016" y="610" type="line"/>
    </contour>
    <component base="aadeva"/>
  </outline>
</glyph>
<glyph name="odeva" format="1">
  <advance width="1254"/>
  <unicode hex="0913"/>
  <outline>
    <contour>
      <point x="1010" y="638" type="line"/>
      <point x="1010" y="608" type="line"/>
      <point x="1127" y="608" type="line"/>
      <point x="1127" y="638" type="line"/>
      <point x="933" y="928" type="line"/>
      <point x="929" y="928" type="line"/>
      <point x="824" y="865" type="line"/>
      <point x="824" y="861" type="line"/>
    </contour>
    <component base="aadeva"/>
  </outline>
</glyph>
<glyph name="audeva" format="1">
  <advance width="1254"/>
  <unicode hex="0914"/>
  <outline>
    <contour>
      <point x="979" y="610" type="line"/>
      <point x="1142" y="610" type="line"/>
      <point x="1142" y="638" type="line"/>
      <point x="1102" y="928" type="line"/>
      <point x="1098" y="928" type="line"/>
      <point x="976" y="906" type="line"/>
      <point x="976" y="902" type="line"/>
      <point x="1029" y="692" type="line"/>
      <point x="1025" y="692" type="line"/>
      <point x="815" y="887" type="line"/>
      <point x="811" y="887" type="line"/>
      <point x="705" y="789" type="line"/>
      <point x="705" y="785" type="line"/>
      <point x="979" y="638" type="line"/>
    </contour>
    <component base="aadeva"/>
  </outline>
</glyph>
<glyph name="kadeva" format="1">
  <advance width="880"/>
  <unicode hex="0915"/>
  <outline>
    <contour>
      <point x="228" y="86" type="curve" smooth="yes"/>
      <point x="301" y="86"/>
      <point x="370" y="136"/>
      <point x="418" y="220" type="curve"/>
      <point x="418" y="352" type="line"/>
      <point x="363" y="245"/>
      <point x="292" y="185"/>
      <point x="234" y="185" type="curve" smooth="yes"/>
      <point x="191" y="185"/>
      <point x="168" y="219"/>
      <point x="168" y="279" type="curve" smooth="yes"/>
      <point x="168" y="342"/>
      <point x="194" y="379"/>
      <point x="249" y="379" type="curve" smooth="yes"/>
      <point x="267" y="379"/>
      <point x="293" y="375"/>
      <point x="332" y="364" type="curve"/>
      <point x="332" y="460" type="line"/>
      <point x="301" y="472"/>
      <point x="272" y="477"/>
      <point x="243" y="477" type="curve" smooth="yes"/>
      <point x="127" y="477"/>
      <point x="43" y="395"/>
      <point x="43" y="287" type="curve" smooth="yes"/>
      <point x="43" y="177"/>
      <point x="130" y="86"/>
    </contour>
    <contour>
      <point x="710" y="83" type="line"/>
      <point x="800" y="161"/>
      <point x="837" y="212"/>
      <point x="837" y="281" type="curve" smooth="yes"/>
      <point x="837" y="389"/>
      <point x="747" y="479"/>
      <point x="648" y="479" type="curve" smooth="yes"/>
      <point x="572" y="479"/>
      <point x="509" y="427"/>
      <point x="462" y="345" type="curve"/>
      <point x="462" y="213" type="line"/>
      <point x="512" y="312"/>
      <point x="578" y="380"/>
      <point x="652" y="380" type="curve" smooth="yes"/>
      <point x="686" y="380"/>
      <point x="717" y="366"/>
      <point x="717" y="303" type="curve" smooth="yes"/>
      <point x="717" y="251"/>
      <point x="696" y="211"/>
      <point x="625" y="154" type="curve"/>
    </contour>
    <contour>
      <point x="374" y="0" type="line"/>
      <point x="506" y="0" type="line"/>
      <point x="506" y="558" type="line"/>
      <point x="902" y="558" type="line"/>
      <point x="902" y="638" type="line"/>
      <point x="-22" y="638" type="line"/>
      <point x="-22" y="558" type="line"/>
      <point x="374" y="558" type="line"/>
    </contour>
  </outline>
</glyph>
<glyph name="khadeva" format="1">
  <advance width="1034"/>
  <unicode hex="0916"/>
  <outline>
    <contour>
      <point x="535" y="-11" type="curve" smooth="yes"/>
      <point x="648" y="-11"/>
      <point x="783" y="45"/>
      <point x="868" y="148" type="curve"/>
      <point x="868" y="245" type="line"/>
      <point x="742" y="127"/>
      <point x="649" y="76"/>
      <point x="544" y="76" type="curve" smooth="yes"/>
      <point x="406" y="76"/>
      <point x="265" y="166"/>
      <point x="198" y="269" type="curve"/>
      <point x="204" y="238" type="line"/>
      <point x="312" y="243"/>
      <point x="396" y="337"/>
      <point x="396" y="443" type="curve" smooth="yes"/>
      <point x="396" y="494"/>
      <point x="377" y="528"/>
      <point x="342" y="558" type="curve"/>
      <point x="462" y="558" type="line"/>
      <point x="462" y="638" type="line"/>
      <point x="-22" y="638" type="line"/>
      <point x="-22" y="558" type="line"/>
      <point x="222" y="558" type="line"/>
      <point x="259" y="520"/>
      <point x="274" y="492"/>
      <point x="274" y="456" type="curve" smooth="yes"/>
      <point x="274" y="395"/>
      <point x="232" y="351"/>
      <point x="169" y="343" type="curve"/>
      <point x="199" y="331" type="line"/>
      <point x="126" y="447" type="line"/>
      <point x="79" y="447"/>
      <point x="45" y="400"/>
      <point x="45" y="360" type="curve" smooth="yes"/>
      <point x="45" y="331"/>
      <point x="62" y="294"/>
      <point x="85" y="258" type="curve" smooth="yes"/>
      <point x="170" y="125"/>
      <point x="359" y="-11"/>
    </contour>
    <contour>
      <point x="634" y="202" type="curve" smooth="yes"/>
      <point x="723" y="202"/>
      <point x="794" y="244"/>
      <point x="846" y="304" type="curve"/>
      <point x="846" y="430" type="line"/>
      <point x="783" y="341"/>
      <point x="707" y="291"/>
      <point x="640" y="291" type="curve" smooth="yes"/>
      <point x="592" y="291"/>
      <point x="565" y="316"/>
      <point x="565" y="355" type="curve" smooth="yes"/>
      <point x="565" y="399"/>
      <point x="601" y="427"/>
      <point x="662" y="427" type="curve" smooth="yes"/>
      <point x="685" y="427"/>
      <point x="704" y="423"/>
      <point x="727" y="412" type="curve"/>
      <point x="727" y="501" type="line"/>
      <point x="701" y="511"/>
      <point x="672" y="517"/>
      <point x="640" y="517" type="curve" smooth="yes"/>
      <point x="534" y="517"/>
      <point x="447" y="449"/>
      <point x="447" y="358" type="curve" smooth="yes"/>
      <point x="447" y="276"/>
      <point x="517" y="202"/>
    </contour>
    <contour>
      <point x="792" y="0" type="line"/>
      <point x="924" y="0" type="line"/>
      <point x="924" y="558" type="line"/>
      <point x="1056" y="558" type="line"/>
      <point x="1056" y="638" type="line"/>
      <point x="352" y="638" type="line"/>
      <point x="352" y="558" type="line"/>
      <point x="792" y="558" type="line"/>
    </contour>
  </outline>
</glyph>
<glyph name="gadeva" format="1">
  <advance width="704"/>
  <unicode hex="0917"/>
  <outline>
    <contour>
      <point x="462" y="0" type="line"/>
      <point x="594" y="0" type="line"/>
      <point x="594" y="558" type="line"/>
      <point x="726" y="558" type="line"/>
      <point x="726" y="638" type="line"/>
      <point x="-22" y="638" type="line"/>
      <point x="-22" y="558" type="line"/>
      <point x="462" y="558" type="line"/>
    </contour>
    <contour>
      <point x="220" y="155" type="line"/>
      <point x="249" y="159"/>
      <point x="292" y="178"/>
      <point x="308" y="198" type="curve"/>
      <point x="308" y="573" type="line"/>
      <point x="185" y="573" type="line"/>
      <point x="185" y="325" type="line"/>
      <point x="44" y="325" type="line"/>
      <point x="44" y="252" type="line"/>
    </contour>
  </outline>
</glyph>
<glyph name="ngadeva" format="1">
  <advance width="704"/>
  <unicode hex="0919"/>
  <outline>
    <contour>
      <point x="726" y="558" type="line"/>
      <point x="726" y="638" type="line"/>
      <point x="572" y="638" type="line"/>
      <point x="572" y="558" type="line"/>
    </contour>
    <contour>
      <point x="616" y="269" type="curve"/>
      <point x="647" y="278"/>
      <point x="684" y="311"/>
      <point x="693" y="348" type="curve"/>
      <point x="684" y="385"/>
      <point x="647" y="418"/>
      <point x="616" y="427" type="curve"/>
      <point x="584" y="418"/>
      <point x="548" y="385"/>
      <point x="539" y="348" type="curve"/>
      <point x="548" y="311"/>
      <point x="584" y="278"/>
    </contour>
    <component base="ddadeva"/>
  </outline>
</glyph>
<glyph name="cadeva" format="1">
  <advance width="748"/>
  <unicode hex="091A"/>
  <outline>
    <contour>
      <point x="319" y="68" type="curve" smooth="yes"/>
      <point x="428" y="68"/>
      <point x="522" y="148"/>
      <point x="577" y="284" type="curve"/>
      <point x="547" y="390" type="line"/>
      <point x="482" y="244"/>
      <point x="397" y="155"/>
      <point x="322" y="155" type="curve" smooth="yes"/>
      <point x="282" y="155"/>
      <point x="253" y="181"/>
      <point x="253" y="228" type="curve" smooth="yes"/>
      <point x="253" y="284"/>
      <point x="294" y="341"/>
      <point x="351" y="374" type="curve"/>
      <point x="292" y="407" type="line"/>
      <point x="195" y="374"/>
      <point x="135" y="301"/>
      <point x="135" y="226" type="curve" smooth="yes"/>
      <point x="135" y="137"/>
      <point x="218" y="68"/>
    </contour>
    <contour>
      <point x="506" y="0" type="line"/>
      <point x="638" y="0" type="line"/>
      <point x="638" y="558" type="line"/>
      <point x="770" y="558" type="line"/>
      <point x="770" y="638" type="line"/>
      <point x="-22" y="638" type="line"/>
      <point x="-22" y="558" type="line"/>
      <point x="506" y="558" type="line"/>
    </contour>
    <contour>
      <point x="44" y="374" type="line"/>
      <point x="440" y="374" type="line"/>
      <point x="440" y="464" type="line"/>
      <point x="44" y="464" type="line"/>
    </contour>
  </outline>
</glyph>
<glyph name="chadeva" format="1">
  <advance width="770"/>
  <unicode hex="091B"/>
  <outline>
    <contour>
      <point x="350" y="26" type="curve" smooth="yes"/>
      <point x="558" y="26"/>
      <point x="726" y="140"/>
      <point x="726" y="287" type="curve" smooth="yes"/>
      <point x="726" y="400"/>
      <point x="628" y="467"/>
      <point x="458" y="467" type="curve" smooth="yes"/>
      <point x="406" y="467" type="line"/>
      <point x="406" y="373" type="line"/>
      <point x="448" y="373" type="line" smooth="yes"/>
      <point x="552" y="373"/>
      <point x="600" y="341"/>
      <point x="600" y="281" type="curve" smooth="yes"/>
      <point x="600" y="190"/>
      <point x="492" y="117"/>
      <point x="334" y="117" type="curve" smooth="yes"/>
      <point x="227" y="117"/>
      <point x="168" y="150"/>
      <point x="168" y="206" type="curve" smooth="yes"/>
      <point x="168" y="260"/>
      <point x="223" y="312"/>
      <point x="298" y="312" type="curve" smooth="yes"/>
      <point x="332" y="312" type="line"/>
      <point x="332" y="370" type="line"/>
      <point x="206" y="370" type="line"/>
      <point x="118" y="351"/>
      <point x="43" y="298"/>
      <point x="43" y="206" type="curve" smooth="yes"/>
      <point x="43" y="57"/>
      <point x="241" y="26"/>
    </contour>
    <contour>
      <point x="296" y="322" type="curve"/>
      <point x="332" y="322" type="line"/>
      <point x="332" y="404" type="line"/>
      <point x="294" y="404" type="line" smooth="yes"/>
      <point x="217" y="404"/>
      <point x="171" y="434"/>
      <point x="171" y="485" type="curve" smooth="yes"/>
      <point x="171" y="532"/>
      <point x="211" y="558"/>
      <point x="269" y="558" type="curve"/>
      <point x="269" y="581" type="line"/>
      <point x="184" y="581" type="line" smooth="yes"/>
      <point x="102" y="581"/>
      <point x="44" y="539"/>
      <point x="44" y="471" type="curve" smooth="yes"/>
      <point x="44" y="383"/>
      <point x="143" y="322"/>
    </contour>
    <contour>
      <point x="528" y="382" type="line"/>
      <point x="660" y="382" type="line"/>
      <point x="660" y="558" type="line"/>
      <point x="792" y="558" type="line"/>
      <point x="792" y="638" type="line"/>
      <point x="-22" y="638" type="line"/>
      <point x="-22" y="558" type="line"/>
      <point x="528" y="558" type="line"/>
    </contour>
  </outline>
</glyph>
<glyph name="jadeva" format="1">
  <advance width="814"/>
  <unicode hex="091C"/>
  <outline>
    <contour>
      <point x="299" y="79" type="curve" smooth="yes"/>
      <point x="406" y="79"/>
      <point x="484" y="147"/>
      <point x="484" y="242" type="curve" smooth="yes"/>
      <point x="484" y="329"/>
      <point x="420" y="393"/>
      <point x="308" y="418" type="curve"/>
      <point x="258" y="385" type="line"/>
      <point x="319" y="371"/>
      <point x="361" y="317"/>
      <point x="361" y="262" type="curve" smooth="yes"/>
      <point x="361" y="207"/>
      <point x="319" y="173"/>
      <point x="263" y="173" type="curve" smooth="yes"/>
      <point x="199" y="173"/>
      <point x="143" y="217"/>
      <point x="84" y="331" type="curve"/>
      <point x="39" y="284" type="line"/>
      <point x="98" y="150"/>
      <point x="190" y="79"/>
    </contour>
    <contour>
      <point x="572" y="0" type="line"/>
      <point x="704" y="0" type="line"/>
      <point x="704" y="558" type="line"/>
      <point x="836" y="558" type="line"/>
      <point x="836" y="638" type="line"/>
      <point x="-22" y="638" type="line"/>
      <point x="-22" y="558" type="line"/>
      <point x="572" y="558" type="line"/>
    </contour>
    <contour>
      <point x="240" y="385" type="line"/>
      <point x="644" y="385" type="line"/>
      <point x="644" y="475" type="line"/>
      <point x="240" y="475" type="line"/>
    </contour>
  </outline>
</glyph>
<glyph name="jhadeva" format="1">
  <advance width="968"/>
  <unicode hex="091D"/>
  <outline>
    <contour>
      <point x="462" y="187" type="line"/>
      <point x="598" y="206"/>
      <point x="708" y="248"/>
      <point x="792" y="368" type="curve"/>
      <point x="792" y="455" type="line"/>
      <point x="748" y="455" type="line"/>
      <point x="701" y="352"/>
      <point x="568" y="283"/>
      <point x="462" y="268" type="curve"/>
    </contour>
    <component base="ideva"/>
    <component base="aasigndeva" xOffset="616"/>
  </outline>
</glyph>
<glyph name="nyadeva" format="1">
  <advance width="792"/>
  <unicode hex="091E"/>
  <outline>
    <contour>
      <point x="240" y="107" type="curve" smooth="yes"/>
      <point x="366" y="107"/>
      <point x="451" y="187"/>
      <point x="451" y="295" type="curve" smooth="yes"/>
      <point x="451" y="399"/>
      <point x="373" y="481"/>
      <point x="245" y="481" type="curve" smooth="yes"/>
      <point x="208" y="481"/>
      <point x="149" y="474"/>
      <point x="93" y="447" type="curve"/>
      <point x="116" y="357" type="line"/>
      <point x="159" y="379"/>
      <point x="213" y="388"/>
      <point x="244" y="388" type="curve" smooth="yes"/>
      <point x="306" y="388"/>
      <point x="322" y="352"/>
      <point x="322" y="310" type="curve" smooth="yes"/>
      <point x="322" y="257"/>
      <point x="296" y="196"/>
      <point x="220" y="196" type="curve" smooth="yes"/>
      <point x="159" y="196"/>
      <point x="77" y="236"/>
      <point x="53" y="247" type="curve"/>
      <point x="44" y="168" type="line"/>
      <point x="106" y="131"/>
      <point x="171" y="107"/>
    </contour>
    <contour>
      <point x="550" y="-20" type="line"/>
      <point x="682" y="-20" type="line"/>
      <point x="682" y="558" type="line"/>
      <point x="814" y="558" type="line"/>
      <point x="814" y="638" type="line"/>
      <point x="-22" y="638" type="line"/>
      <point x="-22" y="558" type="line"/>
      <point x="550" y="558" type="line"/>
    </contour>
    <contour>
      <point x="374" y="246" type="line"/>
      <point x="459" y="246"/>
      <point x="538" y="247"/>
      <point x="616" y="282" type="curve"/>
      <point x="616" y="382" type="line"/>
      <point x="541" y="336"/>
      <point x="462" y="328"/>
      <point x="374" y="328" type="curve"/>
    </contour>
  </outline>
</glyph>
<glyph name="ttadeva" format="1">
  <advance width="572"/>
  <unicode hex="091F"/>
  <outline>
    <contour>
      <point x="284" y="19" type="curve" smooth="yes"/>
      <point x="381" y="19"/>
      <point x="470" y="65"/>
      <point x="547" y="105" type="curve"/>
      <point x="515" y="196" type="line"/>
      <point x="452" y="158"/>
      <point x="346" y="109"/>
      <point x="277" y="109" type="curve" smooth="yes"/>
      <point x="219" y="109"/>
      <point x="170" y="143"/>
      <point x="170" y="228" type="curve" smooth="yes"/>
      <point x="170" y="306"/>
      <point x="212" y="350"/>
      <point x="281" y="350" type="curve" smooth="yes"/>
      <point x="440" y="350" type="line"/>
      <point x="440" y="558" type="line"/>
      <point x="594" y="558" type="line"/>
      <point x="594" y="638" type="line"/>
      <point x="-22" y="638" type="line"/>
      <point x="-22" y="558" type="line"/>
      <point x="308" y="558" type="line"/>
      <point x="308" y="436" type="line"/>
      <point x="202" y="436" type="line" smooth="yes"/>
      <point x="106" y="436"/>
      <point x="44" y="354"/>
      <point x="44" y="250" type="curve" smooth="yes"/>
      <point x="44" y="121"/>
      <point x="139" y="19"/>
    </contour>
  </outline>
</glyph>
<glyph name="tthadeva" format="1">
  <advance width="594"/>
  <unicode hex="0920"/>
  <outline>
    <contour>
      <point x="306" y="13" type="curve" smooth="yes"/>
      <point x="443" y="13"/>
      <point x="550" y="96"/>
      <point x="550" y="222" type="curve" smooth="yes"/>
      <point x="550" y="325"/>
      <point x="479" y="413"/>
      <point x="374" y="431" type="curve"/>
      <point x="317" y="392" type="line"/>
      <point x="394" y="369"/>
      <point x="432" y="300"/>
      <point x="432" y="235" type="curve" smooth="yes"/>
      <point x="432" y="148"/>
      <point x="364" y="102"/>
      <point x="296" y="102" type="curve" smooth="yes"/>
      <point x="207" y="102"/>
      <point x="165" y="179"/>
      <point x="165" y="248" type="curve" smooth="yes"/>
      <point x="165" y="315"/>
      <point x="205" y="350"/>
      <point x="259" y="350" type="curve" smooth="yes"/>
      <point x="440" y="350" type="line"/>
      <point x="440" y="558" type="line"/>
      <point x="616" y="558" type="line"/>
      <point x="616" y="638" type="line"/>
      <point x="-22" y="638" type="line"/>
      <point x="-22" y="558" type="line"/>
      <point x="308" y="558" type="line"/>
      <point x="308" y="436" type="line"/>
      <point x="202" y="436" type="line" smooth="yes"/>
      <point x="106" y="436"/>
      <point x="44" y="349"/>
      <point x="44" y="248" type="curve" smooth="yes"/>
      <point x="44" y="111"/>
      <point x="157" y="13"/>
    </contour>
  </outline>
</glyph>
<glyph name="ddadeva" format="1">
  <advance width="594"/>
  <unicode hex="0921"/>
  <outline>
    <contour>
      <point x="319" y="-15" type="curve" smooth="yes"/>
      <point x="448" y="-15"/>
      <point x="551" y="47"/>
      <point x="551" y="159" type="curve" smooth="yes"/>
      <point x="551" y="247"/>
      <point x="479" y="308"/>
      <point x="367" y="308" type="curve" smooth="yes"/>
      <point x="317" y="308"/>
      <point x="264" y="292"/>
      <point x="209" y="274" type="curve"/>
      <point x="184" y="292"/>
      <point x="170" y="327"/>
      <point x="170" y="351" type="curve" smooth="yes"/>
      <point x="170" y="380"/>
      <point x="192" y="389"/>
      <point x="221" y="389" type="curve" smooth="yes"/>
      <point x="484" y="389" type="line"/>
      <point x="484" y="558" type="line"/>
      <point x="616" y="558" type="line"/>
      <point x="616" y="638" type="line"/>
      <point x="-22" y="638" type="line"/>
      <point x="-22" y="558" type="line"/>
      <point x="352" y="558" type="line"/>
      <point x="352" y="475" type="line"/>
      <point x="133" y="475" type="line" smooth="yes"/>
      <point x="85" y="475"/>
      <point x="45" y="442"/>
      <point x="45" y="372" type="curve" smooth="yes"/>
      <point x="45" y="296"/>
      <point x="92" y="231"/>
      <point x="154" y="191" type="curve"/>
      <point x="199" y="200"/>
      <point x="282" y="216"/>
      <point x="343" y="216" type="curve" smooth="yes"/>
      <point x="403" y="216"/>
      <point x="430" y="200"/>
      <point x="430" y="161" type="curve" smooth="yes"/>
      <point x="430" y="115"/>
      <point x="380" y="93"/>
      <point x="308" y="93" type="curve" smooth="yes"/>
      <point x="211" y="93"/>
      <point x="140" y="140"/>
      <point x="75" y="189" type="curve"/>
      <point x="27" y="97" type="line"/>
      <point x="115" y="28"/>
      <point x="202" y="-15"/>
    </contour>
  </outline>
</glyph>
<glyph name="ddhadeva" format="1">
  <advance width="594"/>
  <unicode hex="0922"/>
  <outline>
    <contour>
      <point x="310" y="17" type="curve" smooth="yes"/>
      <point x="439" y="17"/>
      <point x="550" y="68"/>
      <point x="550" y="173" type="curve" smooth="yes"/>
      <point x="550" y="248"/>
      <point x="485" y="296"/>
      <point x="402" y="296" type="curve" smooth="yes"/>
      <point x="360" y="296"/>
      <point x="325" y="287"/>
      <point x="286" y="266" type="curve"/>
      <point x="286" y="168" type="line"/>
      <point x="323" y="189"/>
      <point x="357" y="200"/>
      <point x="389" y="200" type="curve" smooth="yes"/>
      <point x="414" y="200"/>
      <point x="428" y="190"/>
      <point x="428" y="171" type="curve" smooth="yes"/>
      <point x="428" y="122"/>
      <point x="369" y="106"/>
      <point x="305" y="106" type="curve" smooth="yes"/>
      <point x="222" y="106"/>
      <point x="165" y="170"/>
      <point x="165" y="255" type="curve" smooth="yes"/>
      <point x="165" y="315"/>
      <point x="196" y="356"/>
      <point x="263" y="356" type="curve" smooth="yes"/>
      <point x="440" y="356" type="line"/>
      <point x="440" y="558" type="line"/>
      <point x="616" y="558" type="line"/>
      <point x="616" y="638" type="line"/>
      <point x="-22" y="638" type="line"/>
      <point x="-22" y="558" type="line"/>
      <point x="308" y="558" type="line"/>
      <point x="308" y="442" type="line"/>
      <point x="202" y="442" type="line" smooth="yes"/>
      <point x="103" y="442"/>
      <point x="44" y="357"/>
      <point x="44" y="246" type="curve" smooth="yes"/>
      <point x="44" y="109"/>
      <point x="157" y="17"/>
    </contour>
  </outline>
</glyph>
<glyph name="nnadeva" format="1">
  <advance width="880"/>
  <unicode hex="0923"/>
  <outline>
    <contour>
      <point x="638" y="0" type="line"/>
      <point x="770" y="0" type="line"/>
      <point x="770" y="558" type="line"/>
      <point x="902" y="558" type="line"/>
      <point x="902" y="638" type="line"/>
      <point x="-22" y="638" type="line"/>
      <point x="-22" y="558" type="line"/>
      <point x="110" y="558" type="line"/>
      <point x="110" y="334" type="line" smooth="yes"/>
      <point x="110" y="211"/>
      <point x="188" y="135"/>
      <point x="313" y="135" type="curve" smooth="yes"/>
      <point x="435" y="135"/>
      <point x="528" y="207"/>
      <point x="528" y="302" type="curve" smooth="yes"/>
      <point x="528" y="558" type="line"/>
      <point x="638" y="558" type="line"/>
    </contour>
    <contour>
      <point x="396" y="558" type="line"/>
      <point x="396" y="329" type="line" smooth="yes"/>
      <point x="396" y="269"/>
      <point x="358" y="231"/>
      <point x="304" y="231" type="curve" smooth="yes"/>
      <point x="259" y="231"/>
      <point x="242" y="257"/>
      <point x="242" y="314" type="curve" smooth="yes"/>
      <point x="242" y="558" type="line"/>
    </contour>
  </outline>
</glyph>
